<svg xmlns="http://www.w3.org/2000/svg" viewBox="0 0 154.28571 154.28571"><defs><style>.cls-1{fill:#29456d;}.cls-2{fill:#85d3c1;}.cls-3{fill:#f9d48a;}.cls-4{fill:#f5f7fa;}.cls-5{fill:#ff958a;}.cls-6{fill:#232323;}</style></defs><title>acacre</title><g id="Layer_1" data-name="Layer 1"><circle class="cls-1" cx="77.14286" cy="77.14286" r="77.14286"/></g><g id="Layer_3" data-name="Layer 3"><path class="cls-2" d="M125.20708,77.97183A46.89175,46.89175,0,1,1,78.31534,31.08009,46.89211,46.89211,0,0,1,125.20708,77.97183Z" transform="translate(-1.17248 -0.82898)"/><path class="cls-3" d="M78.31534,73.28266c1.21885,0,2.26674,2.25071,2.7819,4.18927v.01526a8.53237,8.53237,0,0,1,.34421,2.0477,3.12612,3.12612,0,1,1-6.25223,0C75.18922,77.81538,76.59582,73.28266,78.31534,73.28266Z" transform="translate(-1.17248 -0.82898)"/><path class="cls-3" d="M78.31534,77.03385a9.381,9.381,0,0,1,5.56458-8.56553l8.50294-3.78248h1.56306V78.75336H90.8198a6.24346,6.24346,0,0,0-6.25223,6.25223,6.184,6.184,0,0,0,3.017,5.33028,47.05641,47.05641,0,0,1-18.53842,0,6.18405,6.18405,0,0,0,3.017-5.33028,6.24344,6.24344,0,0,0-6.25223-6.25223H62.68476V64.68584h1.56305l8.50295,3.78248A9.381,9.381,0,0,1,78.31534,77.03385Z" transform="translate(-1.17248 -0.82898)"/><path class="cls-4" d="M90.8198,72.18058v.54722a46.6476,46.6476,0,0,1-21.992,11.03529,6.18406,6.18406,0,0,1-3.017-5.33028,6.24346,6.24346,0,0,1,6.25223-6.25223Z" transform="translate(-1.17248 -0.82898)"/><path class="cls-4" d="M88.99115,74.00924a6.2931,6.2931,0,0,1,1.82865,4.42357,6.184,6.184,0,0,1-3.017,5.33028,46.64765,46.64765,0,0,1-21.992-11.03529v-.54722h18.7567A6.29309,6.29309,0,0,1,88.99115,74.00924Z" transform="translate(-1.17248 -0.82898)"/><path class="cls-5" d="M83.87992,80.19125a9.381,9.381,0,0,0-5.56458,8.56553,9.381,9.381,0,0,0-5.56458-8.56553l-8.50295-3.78247H62.68476V90.4763H47.05417V78.79992A9.37918,9.37918,0,0,1,53.85363,69.781L68.937,65.46737l9.37835,7.81529,9.37835-7.81529L102.777,69.781a9.37918,9.37918,0,0,1,6.79946,9.01888V90.4763H93.94592V76.40878H92.38286Z" transform="translate(-1.17248 -0.82898)"/><path class="cls-5" d="M106.45038,77.97183v1.56306a1.568,1.568,0,0,1-1.56306,1.56306h-53.144a1.568,1.568,0,0,1-1.56306-1.56306V76.40878a1.568,1.568,0,0,1,1.56306-1.56306h53.144a1.568,1.568,0,0,1,1.56306,1.56306Z" transform="translate(-1.17248 -0.82898)"/><path class="cls-5" d="M56.43252,81.94206c-2.04769-.48464-3.12611-.84411-3.12611-.84411V71.7196h50.01786V81.098s-1.07842.35947-3.12612.84411a98.15741,98.15741,0,0,1-21.88281,2.282A98.15744,98.15744,0,0,1,56.43252,81.94206Z" transform="translate(-1.17248 -0.82898)"/><path class="cls-3" d="M78.31534,71.29754a98.15757,98.15757,0,0,0,21.88281-2.282V86.92813a6.24346,6.24346,0,0,0-6.25223-6.25224V77.54978H84.302a32.72421,32.72421,0,0,1-16.928-4.68918,6.85863,6.85863,0,0,0-4.68917,6.50257v1.31272a6.2506,6.2506,0,0,0-6.25224,6.25224V69.01554A98.15761,98.15761,0,0,0,78.31534,71.29754Z" transform="translate(-1.17248 -0.82898)"/><path class="cls-4" d="M62.68476,73.28266v1.56306c0,.53119.03129,1.04712.07784,1.56306h-.07784a6.25224,6.25224,0,1,1,0-12.50447Z" transform="translate(-1.17248 -0.82898)"/><path class="cls-4" d="M78.31534,90.4763a15.61658,15.61658,0,0,0,9.37835-3.12612v4.68918l-9.37835,7.81529L68.937,92.03936V87.35018C74.53286,90.13209,76.39281,90.4763,78.31534,90.4763Z" transform="translate(-1.17248 -0.82898)"/><path class="cls-4" d="M98.36949,65.733a6.25588,6.25588,0,0,1-4.42357,10.67581h-.07785c.04656-.51594.07785-1.03187.07785-1.56306V63.90431A6.29306,6.29306,0,0,1,98.36949,65.733Z" transform="translate(-1.17248 -0.82898)"/><path class="cls-4" d="M83.00451,73.28266H93.94592v1.56306c0,.53119-.03129,1.04712-.07785,1.56306A15.63146,15.63146,0,0,1,78.31534,90.4763c-1.92253,0-3.78248-.34421-9.37835-3.12612a16.58307,16.58307,0,0,1-1.6722-1.45392,15.5392,15.5392,0,0,1-4.50219-9.48748c-.04655-.51594-.07784-1.03187-.07784-1.56306V73.28266h10.9414a1.568,1.568,0,0,0,1.56306-1.56306V70.15654h6.25223V71.7196A1.568,1.568,0,0,0,83.00451,73.28266Z" transform="translate(-1.17248 -0.82898)"/><path class="cls-4" d="M93.94592,65.46737H83.00451a1.568,1.568,0,0,0-1.56306,1.56306v3.12611H75.18922V67.03043a1.568,1.568,0,0,0-1.56306-1.56306H62.68476V62.59159A6.85862,6.85862,0,0,1,67.37393,56.089a32.72408,32.72408,0,0,0,16.928,4.68917h9.644Z" transform="translate(-1.17248 -0.82898)"/><path class="cls-3" d="M84.56757,74.06419v7.81529H73.62616a1.56805,1.56805,0,0,1-1.56306-1.56306V75.62725a1.56805,1.56805,0,0,1,1.56306-1.56306Z" transform="translate(-1.17248 -0.82898)"/><path class="cls-3" d="M84.56757,78.75336v1.56306a1.568,1.568,0,0,1-1.56306,1.56306H72.0631V74.06419H83.00451a1.568,1.568,0,0,1,1.56306,1.56306Z" transform="translate(-1.17248 -0.82898)"/><path class="cls-6" d="M78.31534,77.97183a3.12921,3.12921,0,0,1-3.12612-3.12611H72.0631a6.25224,6.25224,0,0,0,12.50447,0H81.44145A3.1292,3.1292,0,0,1,78.31534,77.97183Z" transform="translate(-1.17248 -0.82898)"/><path class="cls-6" d="M120.06608,53.42083c-.48311-1.73478-1.36157-3.70616-2.67429-4.62354V40.45844a7.82449,7.82449,0,0,0-7.81529-7.81529h-1.56306a3.12921,3.12921,0,0,0-3.12612-3.12612h-53.144a3.12921,3.12921,0,0,0-3.12612,3.12612v3.12611a3.11694,3.11694,0,0,0,1.618,2.72162,48.47439,48.47439,0,1,0,69.83084,14.93Zm-4.23735-1.88971a9.6798,9.6798,0,0,1,1.56306,4.5579,1.56306,1.56306,0,0,1-3.12612,0A9.68573,9.68573,0,0,1,115.82873,51.53112ZM109.5765,35.76926a4.69528,4.69528,0,0,1,4.68917,4.68918v5.03643a48.284,48.284,0,0,0-7.90764-6.98415,3.11581,3.11581,0,0,0,1.65541-2.74146ZM86.13063,118.61134a4.69528,4.69528,0,0,1,4.68917-4.68917H105.878A45.14018,45.14018,0,0,1,87.941,122.261,4.67333,4.67333,0,0,1,86.13063,118.61134Zm21.88281-7.81529h-6.25223V98.29159H98.63509v12.50446H95.509V96.72853H92.05163l-8.80136,3.91223a10.91352,10.91352,0,0,0-4.93493,4.40831,10.905,10.905,0,0,0-4.93493-4.40831l-8.80136-3.91223H61.1217v14.06752H57.99558V98.29159H54.86947v12.50446H48.61723V100.67663a7.84982,7.84982,0,0,1,5.66761-7.51535l14.28657-4.0809,9.74393,8.11982,9.74392-8.11982,14.28657,4.0809a7.84982,7.84982,0,0,1,5.66761,7.51535ZM68.68971,122.261a45.12569,45.12569,0,0,1-17.937-8.33885H65.81087a4.65446,4.65446,0,0,1,2.87884,8.33885ZM86.13063,86.619l-7.81529,6.51172L70.50005,86.619V85.45284a17.04456,17.04456,0,0,0,15.63058,0Zm-7.81529-2.395A14.08488,14.08488,0,0,1,64.24781,70.15654h9.37835a3.12921,3.12921,0,0,0,3.12612-3.12611h3.12611a3.12921,3.12921,0,0,0,3.12612,3.12611h9.37835A14.08487,14.08487,0,0,1,78.31534,84.22407ZM57.99558,65.46737a4.68281,4.68281,0,0,1,3.12612-4.40144v8.80136A4.67936,4.67936,0,0,1,57.99558,65.46737Zm7.30547-14.81318a8.38688,8.38688,0,0,0-4.17172,7.15435,7.7513,7.7513,0,0,0-3.13375,1.44552V49.49258C59.93185,49.88869,62.37871,50.30845,65.30105,50.65419ZM92.38286,67.03043H83.00451V62.34125h9.37835Zm0-7.81529H83.00451a3.12921,3.12921,0,0,0-3.12612,3.12611v1.56306H76.75228V62.34125a3.12921,3.12921,0,0,0-3.12612-3.12611H64.24781V57.90546a5.28757,5.28757,0,0,1,2.99637-4.77083A34.48412,34.48412,0,0,0,84.3035,57.65208h8.07936Zm-28.135,3.12611h9.37835v4.68918H64.24781ZM95.509,61.06593a4.66158,4.66158,0,0,1,0,8.80288Zm3.12611-1.81034a7.73754,7.73754,0,0,0-3.12611-1.444V51.39985H92.38286V54.526H84.3035a31.346,31.346,0,0,1-14.23009-3.41842c2.50868.18164,5.26082.29231,8.24193.29231a102.15416,102.15416,0,0,0,20.31975-1.90727ZM78.31534,48.27373a91.85668,91.85668,0,0,1-23.44587-2.73535v-6.643h46.89174v6.643A91.85676,91.85676,0,0,1,78.31534,48.27373Zm-26.572-15.63058h53.144v3.12611h-53.144l-.00153-3.12611ZM32.98665,77.97183a45.11448,45.11448,0,0,1,18.7567-36.73034v6.59492l1.06926.35642c.10151.03282.80977.26407,2.05686.58386V65.46737a7.81058,7.81058,0,0,0,6.5308,7.67944,17.18967,17.18967,0,0,0,5.97366,10.26138v2.76207L53.427,90.15575a10.98847,10.98847,0,0,0-7.93587,10.52088v8.50828A45.15966,45.15966,0,0,1,32.98665,77.97183Zm39.339,44.92037a7.78751,7.78751,0,0,0-6.51478-12.09615H64.24781v-10.7941l7.86338,3.49474a7.8227,7.8227,0,0,1,4.64109,7.14138v7.97327h3.12611v-7.97327a7.82108,7.82108,0,0,1,4.6411-7.14138l7.86337-3.49474v10.7941H90.8198A7.78751,7.78751,0,0,0,84.305,122.8922a44.13579,44.13579,0,0,1-11.97937,0Zm38.81391-13.70729v-8.50828a10.98664,10.98664,0,0,0-7.93588-10.51935l-13.94694-3.9855V83.40972A17.19348,17.19348,0,0,0,95.2304,73.15291a7.81072,7.81072,0,0,0,6.53081-7.68554V48.779c1.24861-.32055,1.95687-.55181,2.05685-.58462l1.06926-.35642V41.29187a45.30553,45.30553,0,0,1,8.62506,8.19918,12.3532,12.3532,0,0,0-2.37282,6.598,4.66838,4.66838,0,0,0,8.31519,2.93531,45.11419,45.11419,0,0,1-8.31519,50.16058Z" transform="translate(-1.17248 -0.82898)"/></g></svg>