<svg xmlns="http://www.w3.org/2000/svg" viewBox="0 0 154.28571 154.28571"><defs><style>.cls-1{fill:#25efe0;}.cls-2{fill:#1a2b63;}.cls-3{fill:#ffaf10;}.cls-4{fill:#ef9614;}.cls-5{fill:#ffd00d;}.cls-6{fill:#ef8318;}.cls-7{fill:#db722c;}.cls-8{fill:#a05f33;}.cls-9{fill:#87502a;}.cls-10{fill:#293d7c;}.cls-11{fill:#bf7e52;}.cls-12{fill:#aa6b3f;}.cls-13{fill:#c95e23;}.cls-14{fill:#fff;}</style></defs><title>award</title><g id="Layer_8" data-name="Layer 8"><circle class="cls-1" cx="77.14286" cy="77.14286" r="77.14286"/></g><g id="Layer_9" data-name="Layer 9"><circle class="cls-2" cx="76.98519" cy="79.72023" r="47.42857"/><path class="cls-3" d="M80.81633,98.6231V88.244a5.23407,5.23407,0,0,1-1.24728.15081h-4.281a5.234,5.234,0,0,1-1.24727-.15081V98.6231Z" transform="translate(-0.44338 -0.55207)"/><path class="cls-4" d="M77.0414,98.6231V88.39479H75.28809a5.234,5.234,0,0,1-1.24727-.15081V98.6231Z" transform="translate(-0.44338 -0.55207)"/><path class="cls-5" d="M77.42857,83.75743a20.74914,20.74914,0,0,1-7.37291-1.34755v.95438a5.23232,5.23232,0,0,0,5.23243,5.23224h4.281a5.23232,5.23232,0,0,0,5.23244-5.23224v-.95438A20.75,20.75,0,0,1,77.42857,83.75743Z" transform="translate(-0.44338 -0.55207)"/><path class="cls-3" d="M76.053,83.711a20.7046,20.7046,0,0,1-5.9971-1.30109v.95438a5.23232,5.23232,0,0,0,5.23243,5.23224h4.281a5.25583,5.25583,0,0,0,.85178-.07008A5.23292,5.23292,0,0,1,76.053,83.711Z" transform="translate(-0.44338 -0.55207)"/><path class="cls-6" d="M84.97843,102.53469v-3.291a.97078.97078,0,0,0-.96793-.96793H70.84665a.97078.97078,0,0,0-.96793.96793v3.291Z" transform="translate(-0.44338 -0.55207)"/><path class="cls-7" d="M75.6863,102.53469v-3.291a.97078.97078,0,0,1,.96793-.96793H70.84665a.97078.97078,0,0,0-.96793.96793v3.291Z" transform="translate(-0.44338 -0.55207)"/><path class="cls-8" d="M95.72245,118.9895V103.11545a.97078.97078,0,0,0-.96793-.96793H60.10262a.97078.97078,0,0,0-.96793.96793V118.9895Z" transform="translate(-0.44338 -0.55207)"/><path class="cls-9" d="M62.13528,118.9895V103.11545a.97078.97078,0,0,1,.96793-.96793H60.10262a.97078.97078,0,0,0-.96793.96793V118.9895Z" transform="translate(-0.44338 -0.55207)"/><path class="cls-10" d="M90.40309,114.73061a.97078.97078,0,0,1-.96793.96793H65.422a.97078.97078,0,0,1-.96793-.96793V106.6a.97078.97078,0,0,1,.96793-.96793H89.43516a.97078.97078,0,0,1,.96793.96793Z" transform="translate(-0.44338 -0.55207)"/><path class="cls-2" d="M68.32132,114.73061V106.6a.97078.97078,0,0,1,.96793-.96793H65.422a.97078.97078,0,0,0-.96793.96793v8.13061a.97078.97078,0,0,0,.96793.96793h3.86727A.97078.97078,0,0,1,68.32132,114.73061Z" transform="translate(-0.44338 -0.55207)"/><path class="cls-11" d="M99.78776,118.79592H55.06939a.97078.97078,0,0,0-.96793.96793v1.81041a47.47175,47.47175,0,0,0,46.65423-.00019v-1.81022A.97078.97078,0,0,0,99.78776,118.79592Z" transform="translate(-0.44338 -0.55207)"/><path class="cls-12" d="M60.00583,119.76385a.97078.97078,0,0,1,.96793-.96793H55.06939a.97078.97078,0,0,0-.96793.96793v1.81041a47.25347,47.25347,0,0,0,5.90437,2.82075Z" transform="translate(-0.44338 -0.55207)"/><path class="cls-3" d="M110.00039,33.5389H102.498v1.62786a.77513.77513,0,0,1-.77434.77435H98.47505a.19353.19353,0,0,0-.19359.19358v2.24386h10.14778A30.971,30.971,0,0,1,98.28146,59.81471v3.09a20.91863,20.91863,0,0,1-.26289,3.30431,35.8601,35.8601,0,0,0,15.28768-29.36428A3.30956,3.30956,0,0,0,110.00039,33.5389Z" transform="translate(-0.44338 -0.55207)"/><path class="cls-5" d="M56.57587,62.90474v-3.09A30.971,30.971,0,0,1,46.4281,38.37855H56.57587V36.13469a.19365.19365,0,0,0-.19358-.19358H53.13353a.77513.77513,0,0,1-.77435-.77435V33.5389H44.85676a3.30968,3.30968,0,0,0-3.30587,3.30587A35.8607,35.8607,0,0,0,56.83857,66.20925,20.9231,20.9231,0,0,1,56.57587,62.90474Z" transform="translate(-0.44338 -0.55207)"/><path class="cls-6" d="M56.38229,35.94111V62.90474a21.04638,21.04638,0,0,0,42.09276,0V35.94111Z" transform="translate(-0.44338 -0.55207)"/><path class="cls-7" d="M60.58659,62.90474V35.7481h-4.2043V62.90474A21.04636,21.04636,0,0,0,77.42857,83.951c.70485,0,1.4004-.03736,2.08725-.10551A21.04884,21.04884,0,0,1,60.58659,62.90474Z" transform="translate(-0.44338 -0.55207)"/><circle class="cls-7" cx="76.98519" cy="58.13539" r="14.32536"/><path class="cls-13" d="M66.78134,58.68727a14.32479,14.32479,0,0,1,12.4863-14.20379,14.32538,14.32538,0,1,0,0,28.40758A14.32464,14.32464,0,0,1,66.78134,58.68727Z" transform="translate(-0.44338 -0.55207)"/><path class="cls-5" d="M82.41457,67.63075a1.54024,1.54024,0,0,1-.71956-.19068L77.79484,65.3898a1.03254,1.03254,0,0,0-.73272,0l-3.8998,2.05027a1.54363,1.54363,0,0,1-.71955.19068,1.16207,1.16207,0,0,1-.905-.41253,1.38841,1.38841,0,0,1-.26638-1.15222l.74493-4.34252a1.02844,1.02844,0,0,0-.22631-.69692l-3.15506-3.07549a1.2486,1.2486,0,0,1,.72246-2.22315l4.35994-.63341a1.02851,1.02851,0,0,0,.59276-.43073l1.9498-3.95109a1.24867,1.24867,0,0,1,2.33755,0l1.95,3.95109a1.02734,1.02734,0,0,0,.59257.43073l4.36014.63341a1.24867,1.24867,0,0,1,.72266,2.223l-3.15526,3.07569a1.02733,1.02733,0,0,0-.2265.69692l.74472,4.34252a1.389,1.389,0,0,1-.26618,1.15222A1.16263,1.16263,0,0,1,82.41457,67.63075Z" transform="translate(-0.44338 -0.55207)"/><path class="cls-3" d="M74.4667,65.65094l.80707-4.70549a1.11407,1.11407,0,0,0-.24528-.75518l-3.41892-3.33258a1.43628,1.43628,0,0,1-.46364-1.38937l-1.78893.26a1.2486,1.2486,0,0,0-.72246,2.22314l3.15507,3.0755a1.0281,1.0281,0,0,1,.2263.69691L71.271,66.06638a1.38976,1.38976,0,0,0,.26638,1.15223,1.16235,1.16235,0,0,0,.905.41253,1.543,1.543,0,0,0,.71956-.19069l1.44628-.7604A1.59262,1.59262,0,0,1,74.4667,65.65094Z" transform="translate(-0.44338 -0.55207)"/><path class="cls-5" d="M102.69155,35.16676a.97077.97077,0,0,1-.96793.96793H53.13353a.97077.97077,0,0,1-.96793-.96793v-5.614a.97078.97078,0,0,1,.96793-.96793h48.59009a.97078.97078,0,0,1,.96793.96793Z" transform="translate(-0.44338 -0.55207)"/><path class="cls-3" d="M58.07,35.16676v-5.614a.97078.97078,0,0,1,.96793-.96793H53.13353a.97078.97078,0,0,0-.96793.96793v5.614a.97077.97077,0,0,0,.96793.96793H59.0379A.97077.97077,0,0,1,58.07,35.16676Z" transform="translate(-0.44338 -0.55207)"/><path class="cls-5" d="M52.456,92.66181a.58061.58061,0,0,1-.55018-.39492c-1.11428-3.30141-1.94825-4.13538-5.24947-5.24947a.58078.58078,0,0,1-.00019-1.10054c3.30122-1.11409,4.13519-1.94825,5.24947-5.24947a.58069.58069,0,0,1,1.10035,0c1.11428,3.30122,1.94824,4.13538,5.24947,5.24947a.58074.58074,0,0,1,0,1.10054c-3.30122,1.11409-4.13519,1.948-5.24947,5.24947A.58018.58018,0,0,1,52.456,92.66181Z" transform="translate(-0.44338 -0.55207)"/><path class="cls-14" d="M100.5621,86.27347a.46315.46315,0,0,1-.43867-.31458c-.88778-2.63083-1.55255-3.29541-4.1832-4.1832a.463.463,0,0,1,0-.87714c2.63084-.88778,3.29542-1.55256,4.1832-4.1832a.463.463,0,0,1,.87733,0c.88779,2.63064,1.55256,3.29522,4.18321,4.1832a.463.463,0,0,1,0,.87714c-2.63084.888-3.29542,1.55237-4.18321,4.1832A.46351.46351,0,0,1,100.5621,86.27347Z" transform="translate(-0.44338 -0.55207)"/><path class="cls-14" d="M82.65539,109.69738H72.20175a.96793.96793,0,1,1,0-1.93586H82.65539a.96793.96793,0,0,1,0,1.93586Z" transform="translate(-0.44338 -0.55207)"/><path class="cls-14" d="M80.33236,113.18192H74.52478a.96793.96793,0,0,1,0-1.93586h5.80758a.96793.96793,0,0,1,0,1.93586Z" transform="translate(-0.44338 -0.55207)"/><path class="cls-14" d="M65.61983,44.07172a.43582.43582,0,0,1-.41273-.29619c-.83571-2.476-1.46119-3.10144-3.93715-3.93715a.43565.43565,0,0,1,0-.82545c2.476-.83552,3.10144-1.46119,3.93715-3.93715a.43565.43565,0,0,1,.82545,0c.83571,2.476,1.46119,3.10144,3.93715,3.93715a.43565.43565,0,0,1,0,.82545c-2.476.83571-3.10144,1.46119-3.93715,3.93715A.43582.43582,0,0,1,65.61983,44.07172Z" transform="translate(-0.44338 -0.55207)"/></g></svg>