<svg id="Layer_7" data-name="Layer 7" xmlns="http://www.w3.org/2000/svg" viewBox="0 0 154.28571 154.28571"><defs><style>.cls-1{fill:#25efe0;}.cls-2{fill:#f9c295;}.cls-3{fill:#656d88;}.cls-4{fill:#444966;}.cls-5{fill:#e59f6a;}.cls-6{fill:#2e344c;}.cls-7{fill:#ebeef2;}.cls-8{fill:#d1d6de;}.cls-9{fill:#ed5575;}.cls-10{fill:#5c9cee;}.cls-11{fill:#1b3d66;}.cls-12{fill:#e8ae6a;}.cls-13{fill:#d39053;}.cls-14{fill:#af713e;}</style></defs><title>guelec</title><circle class="cls-1" cx="77.14286" cy="77.14286" r="77.14286"/><path class="cls-2" d="M59.29425,56.39748h3.87312V48.687H59.29425a3.8553,3.8553,0,0,0-3.85534,3.85534h0A3.85552,3.85552,0,0,0,59.29425,56.39748Z" transform="translate(-0.44338 -0.55207)"/><path class="cls-2" d="M97.27718,56.39748H93.40406V48.687h3.87312a3.8553,3.8553,0,0,1,3.85534,3.85534h0A3.85552,3.85552,0,0,1,97.27718,56.39748Z" transform="translate(-0.44338 -0.55207)"/><path class="cls-3" d="M84.41123,73.82661H72.16c-2.20008,0-4.29108-.1398-6.18006.69915a15.24169,15.24169,0,0,0-9.05829,13.93316v18.76623H99.64957V88.45892a15.24171,15.24171,0,0,0-9.07828-13.94205C88.68777,73.68358,86.60364,73.82661,84.41123,73.82661Z" transform="translate(-0.44338 -0.55207)"/><path class="cls-4" d="M84.41123,73.82661H81.8435c2.97842,0,5.73685.43371,7.99309,2.20209a15.73884,15.73884,0,0,1,5.8219,12.43042v18.76623h3.99129V88.45912a15.24173,15.24173,0,0,0-9.07829-13.942C88.68777,73.68358,86.60364,73.82661,84.41123,73.82661Z" transform="translate(-0.44338 -0.55207)"/><path class="cls-2" d="M78.28572,29.27818h0A16.45654,16.45654,0,0,0,61.82926,45.73464v7.9339A16.45654,16.45654,0,0,0,78.28572,70.125h0A16.45653,16.45653,0,0,0,94.74217,53.66854v-7.9339A16.45654,16.45654,0,0,0,78.28572,29.27818Z" transform="translate(-0.44338 -0.55207)"/><path class="cls-5" d="M78.28572,29.27818c-.46745,0-.92884.02424-1.38639.06242,7.12768.70461,12.72818,7.7727,12.72818,16.394v7.9339c0,8.62134-5.6005,15.68942-12.72818,16.394.45755.03818.91894.06242,1.38639.06242A16.45653,16.45653,0,0,0,94.74217,53.66854v-7.9339A16.45654,16.45654,0,0,0,78.28572,29.27818Z" transform="translate(-0.44338 -0.55207)"/><path class="cls-4" d="M80.44439,25.14286H76.12685A14.2976,14.2976,0,0,0,61.82926,39.44044V45.6605h1.04318a6.05573,6.05573,0,0,0,5.80089-4.31733l.74278-2.47866L70.76756,40.216A18.589,18.589,0,0,0,83.91187,45.6605h10.8299V39.44064A14.29709,14.29709,0,0,0,80.44439,25.14286Z" transform="translate(-0.44338 -0.55207)"/><path class="cls-6" d="M80.44439,25.14286H77.67464c6.72145,0,12.17044,6.40126,12.17044,14.29758V45.6605H94.742V39.44044A14.29734,14.29734,0,0,0,80.44439,25.14286Z" transform="translate(-0.44338 -0.55207)"/><path class="cls-7" d="M78.28572,98.99833l12.304-24.46873a15.17792,15.17792,0,0,0-6.17825-1.309H72.16019a15.18061,15.18061,0,0,0-6.17824,1.309Z" transform="translate(-0.44338 -0.55207)"/><path class="cls-8" d="M90.58948,74.5296a15.27546,15.27546,0,0,0-1.44154-.55452l-.016-.00545q-.35179-.11484-.71127-.21231l-.04848-.01374c-.22625-.061-.45512-.11555-.68562-.16625-.0297-.00646-.059-.01414-.08868-.0204-.21514-.04606-.43291-.08545-.65128-.12242-.045-.00747-.08969-.017-.13494-.024-.20443-.03252-.41109-.05838-.61815-.08262-.059-.00687-.11716-.01616-.17635-.02242-.20221-.02121-.40623-.03555-.61067-.04889-.06343-.004-.12626-.01111-.18989-.01434q-.39543-.02091-.79612-.02121l-.00929-.00021H81.8435a12.89394,12.89394,0,0,1,7.99067,2.81156l.75531-1.50274Z" transform="translate(-0.44338 -0.55207)"/><path class="cls-9" d="M76.30987,78.1999,74.46734,91.405l3.81838,7.59331L82.10389,91.405,80.26136,78.1999a5.35785,5.35785,0,0,0,3.38143-4.97932H72.92824A5.35791,5.35791,0,0,0,76.30987,78.1999Z" transform="translate(-0.44338 -0.55207)"/><path class="cls-5" d="M81.668,59.36559H78.28572a1.51626,1.51626,0,0,1-1.51628-1.51627V51.51674a1.51628,1.51628,0,0,1,3.03256,0V56.333h1.86575a1.51628,1.51628,0,0,1,.00021,3.03256Z" transform="translate(-0.44338 -0.55207)"/><path class="cls-10" d="M64.32528,66.0024a5.34667,5.34667,0,0,0-7.29474-1.95464l-4.24966,2.4536a5.34013,5.34013,0,0,0,5.3401,9.24939l4.24967-2.4536A5.34645,5.34645,0,0,0,64.32528,66.0024Z" transform="translate(-0.44338 -0.55207)"/><path class="cls-11" d="M45.61,91.3834a1.51627,1.51627,0,0,1-1.51628-1.51628V78.55482a4.55546,4.55546,0,0,1,2.27139-3.93412l5.01547-2.8956A1.51635,1.51635,0,0,1,52.897,74.35142L47.88135,77.247a1.51387,1.51387,0,0,0-.75511,1.3076v11.3123A1.51631,1.51631,0,0,1,45.61,91.3834Z" transform="translate(-0.44338 -0.55207)"/><path class="cls-12" d="M37.5084,91.83752V97.3661A1.401,1.401,0,0,0,38.90933,98.767H117.6619a1.401,1.401,0,0,0,1.40093-1.40094V91.83752a1.401,1.401,0,0,0-1.40093-1.40093H38.90933A1.40094,1.40094,0,0,0,37.5084,91.83752Z" transform="translate(-0.44338 -0.55207)"/><path class="cls-13" d="M117.66211,90.43658H113.0759a1.401,1.401,0,0,1,1.40093,1.40094V97.3661A1.401,1.401,0,0,1,113.0759,98.767h4.58621A1.401,1.401,0,0,0,119.063,97.3661V91.83752A1.401,1.401,0,0,0,117.66211,90.43658Z" transform="translate(-0.44338 -0.55207)"/><path class="cls-13" d="M44.70921,98.767v6.619a1.61942,1.61942,0,0,0,1.6195,1.61951h.21151a8.8643,8.8643,0,0,1,8.86435,8.86435v12.70152h45.76209V115.86991a8.8643,8.8643,0,0,1,8.86436-8.86435h.2115a1.61942,1.61942,0,0,0,1.61951-1.61951V98.767Z" transform="translate(-0.44338 -0.55207)"/><rect class="cls-14" x="44.26643" y="98.21496" width="67.15383" height="4.40218"/><path class="cls-14" d="M106.37768,98.767v6.619a1.51678,1.51678,0,0,1-1.38679,1.61951h-.1812c-4.19209,0-7.59049,3.96866-7.59049,8.86435v12.70152h3.94746V115.86991a8.86429,8.86429,0,0,1,8.86435-8.86435h.21151a1.61942,1.61942,0,0,0,1.6195-1.61951V98.767Z" transform="translate(-0.44338 -0.55207)"/><path class="cls-14" d="M87.72943,116.49432a1.51627,1.51627,0,0,0-1.51628,1.51629v10.56082h3.03276V118.01061A1.51631,1.51631,0,0,0,87.72943,116.49432Z" transform="translate(-0.44338 -0.55207)"/><path class="cls-14" d="M78.28572,111.80247a1.51627,1.51627,0,0,0-1.51628,1.51628v15.25268H79.8022V113.31874A1.51643,1.51643,0,0,0,78.28572,111.80247Z" transform="translate(-0.44338 -0.55207)"/><path class="cls-14" d="M68.8422,116.49432a1.51627,1.51627,0,0,0-1.51627,1.51629v10.56082h3.03276V118.01061A1.51646,1.51646,0,0,0,68.8422,116.49432Z" transform="translate(-0.44338 -0.55207)"/></svg>