<svg id="Layer_1" data-name="Layer 1" xmlns="http://www.w3.org/2000/svg" viewBox="0 0 154.28571 154.28571"><defs><style>.cls-1{fill:#7f3f98;}.cls-2{fill:#58bfff;}.cls-3{fill:#ffcdac;}.cls-4{fill:#ffbc53;}.cls-5{fill:#95e540;}.cls-6{fill:#a5ddff;}.cls-7{fill:#fff;}.cls-8{fill:#fe6663;}</style></defs><title>proex</title><circle class="cls-1" cx="77.14286" cy="77.14286" r="77.14286"/><path class="cls-2" d="M64.94027,98.2857,40.81513,122.41083a5.65367,5.65367,0,0,1-7.99562,0h0a5.65367,5.65367,0,0,1,0-7.99561L56.94465,90.29008Z" transform="translate(-0.78571 -0.64286)"/><path class="cls-3" d="M122.08747,69.53554v1.65032a6.60146,6.60146,0,0,1-6.60149,6.6015h0a6.60145,6.60145,0,0,1-6.60148-6.60149V69.53555a6.60145,6.60145,0,0,1,6.60148-6.6015h0A6.60145,6.60145,0,0,1,122.08747,69.53554Z" transform="translate(-0.78571 -0.64286)"/><path class="cls-4" d="M119.93773,77.78735h-8.90309A11.18308,11.18308,0,0,0,99.85155,88.97043v4.14309h31.26926V88.97043A11.18307,11.18307,0,0,0,119.93773,77.78735Z" transform="translate(-0.78571 -0.64286)"/><path class="cls-3" d="M38.91253,69.53554v1.65032a6.60146,6.60146,0,0,0,6.60149,6.6015h0a6.60145,6.60145,0,0,0,6.60149-6.60149V69.53555a6.60146,6.60146,0,0,0-6.60149-6.6015h0A6.60145,6.60145,0,0,0,38.91253,69.53554Z" transform="translate(-0.78571 -0.64286)"/><path class="cls-5" d="M41.06227,77.78735h8.90309A11.18308,11.18308,0,0,1,61.14845,88.97043v4.14309H29.87919V88.97043A11.18307,11.18307,0,0,1,41.06227,77.78735Z" transform="translate(-0.78571 -0.64286)"/><circle class="cls-6" cx="79.71429" cy="72.44746" r="28.39704"/><circle class="cls-7" cx="79.71429" cy="72.44746" r="20.15984"/><path class="cls-3" d="M86.89407,70.50721v1.59847A6.39411,6.39411,0,0,1,80.5,78.49975h0a6.39411,6.39411,0,0,1-6.39407-6.39407V70.50722A6.39411,6.39411,0,0,1,80.5,64.11315h0A6.39383,6.39383,0,0,1,86.89407,70.50721Z" transform="translate(-0.78571 -0.64286)"/><path class="cls-8" d="M80.5,78.49975h0a14.757,14.757,0,0,0-13.73059,9.35332,20.15031,20.15031,0,0,0,27.46118,0A14.757,14.757,0,0,0,80.5,78.49975Z" transform="translate(-0.78571 -0.64286)"/><path d="M122.67043,76.01459a8.60849,8.60849,0,0,0,1.475-4.82873V69.53533a8.65481,8.65481,0,0,0-14.76934-6.12964,30.45735,30.45735,0,0,0-57.75218,0,8.65481,8.65481,0,0,0-14.76934,6.12964v1.65053a8.60849,8.60849,0,0,0,1.475,4.82873A13.263,13.263,0,0,0,27.82143,88.97043v4.14309a2.058,2.058,0,0,0,2.05776,2.05776H40.57952a2.05776,2.05776,0,1,0,0-4.11551H31.93694V88.97043a9.13587,9.13587,0,0,1,9.12554-9.12553h9.73915a30.28338,30.28338,0,0,0,4.04164,9.63668l-23.4788,23.4788a7.71157,7.71157,0,0,0,10.90591,10.9057L55.21428,110.922a2.05788,2.05788,0,0,0-2.91028-2.91028L39.3603,120.9558a3.59609,3.59609,0,1,1-5.08575-5.08554L57.32287,92.82215a30.44072,30.44072,0,0,0,52.8755-12.97724h9.73916a9.13587,9.13587,0,0,1,9.12553,9.12553v2.08533H109.72015a2.05776,2.05776,0,0,0,0,4.11552h21.40066a2.058,2.058,0,0,0,2.05776-2.05776V88.97044A13.263,13.263,0,0,0,122.67043,76.01459Zm-11.72818-6.47905a4.54373,4.54373,0,0,1,9.08746,0v1.65053a4.54373,4.54373,0,0,1-9.08746,0Zm-69.97217,0a4.54374,4.54374,0,0,1,9.08747,0v1.65053a4.54374,4.54374,0,0,1-9.08747,0ZM80.5,99.42857a26.33929,26.33929,0,1,1,26.33929-26.33928A26.36923,26.36923,0,0,1,80.5,99.42857Z" transform="translate(-0.78571 -0.64286)"/><path d="M80.5,50.86551A22.21293,22.21293,0,0,0,65.25984,89.24885a2.05618,2.05618,0,0,0,.2387.22223,22.18194,22.18194,0,0,0,30.00292,0,2.03825,2.03825,0,0,0,.2387-.22224A22.21293,22.21293,0,0,0,80.5,50.86551ZM69.28584,87.29728a12.69939,12.69939,0,0,1,22.42832,0,18.07176,18.07176,0,0,1-22.42832,0Zm6.87785-15.1916V70.507a4.33631,4.33631,0,1,1,8.67262,0v1.59867a4.33631,4.33631,0,0,1-8.67262,0Zm18.56055,12.1776a16.66727,16.66727,0,0,0-7.8738-6.60951,8.41476,8.41476,0,0,0,2.10138-5.56788V70.50722a8.45182,8.45182,0,1,0-16.90364,0v1.59867a8.4137,8.4137,0,0,0,2.10138,5.56788,16.66939,16.66939,0,0,0-7.8738,6.60951,18.10826,18.10826,0,1,1,28.44848,0Z" transform="translate(-0.78571 -0.64286)"/><path d="M59.264,101.90488a2.0585,2.0585,0,1,0,1.45484.60292A2.07332,2.07332,0,0,0,59.264,101.90488Z" transform="translate(-0.78571 -0.64286)"/><path d="M80.54177,31.88436a2.058,2.058,0,0,0,2.05776-2.05776V22.82529a2.05776,2.05776,0,1,0-4.11551,0V29.8266A2.05785,2.05785,0,0,0,80.54177,31.88436Z" transform="translate(-0.78571 -0.64286)"/><path d="M80.54116,38.67a2.05884,2.05884,0,1,0-1.45484-.60312A2.06819,2.06819,0,0,0,80.54116,38.67Z" transform="translate(-0.78571 -0.64286)"/><path d="M92.91486,35.969a2.05172,2.05172,0,0,0,1.455-.60271l3.61671-3.61672a2.05788,2.05788,0,0,0-2.91028-2.91028L91.45961,32.456a2.05786,2.05786,0,0,0,1.45525,3.513Z" transform="translate(-0.78571 -0.64286)"/><path d="M66.66488,35.39118A2.05781,2.05781,0,1,0,69.575,32.4809l-3.65149-3.65149a2.05788,2.05788,0,1,0-2.91029,2.91028Z" transform="translate(-0.78571 -0.64286)"/></svg>