<svg id="Layer_1" data-name="Layer 1" xmlns="http://www.w3.org/2000/svg" viewBox="0 0 269 75"><defs><style>.cls-1{fill:#26326b;}.cls-2{fill:none;stroke:#26326b;stroke-miterlimit:10;}.cls-3{fill:#ff8c78;}</style></defs><title>brochurebutton</title><path class="cls-1" d="M78.38037,46.92676v-20.792h8.728a11.96393,11.96393,0,0,1,4.27637.63086A5.37451,5.37451,0,0,1,93.9082,28.709a4.73532,4.73532,0,0,1,.9126,2.74415,4.35126,4.35126,0,0,1-.80957,2.51025,5.62821,5.62821,0,0,1-2.44385,1.90088A6.16951,6.16951,0,0,1,94.8125,37.75a4.70623,4.70623,0,0,1,1.13477,3.14941,5.54353,5.54353,0,0,1-.69043,2.71582,5.40486,5.40486,0,0,1-1.70557,1.93555,7.53807,7.53807,0,0,1-2.54736,1.02832,17.21219,17.21219,0,0,1-3.75293.34766ZM81.459,34.87109h5.03028a12.52527,12.52527,0,0,0,2.936-.24072,3.30812,3.30812,0,0,0,1.769-1.03564,2.76013,2.76013,0,0,0,.59521-1.81543,3.08121,3.08121,0,0,0-.55517-1.82227,2.79731,2.79731,0,0,0-1.58692-1.07812,14.80382,14.80382,0,0,0-3.53906-.29053H81.459Zm0,9.60157h5.792A14.88685,14.88685,0,0,0,89.3457,44.374a5.40972,5.40972,0,0,0,1.77735-.56738,3.16673,3.16673,0,0,0,1.17431-1.15625,3.31167,3.31167,0,0,0,.46045-1.751,3.2,3.2,0,0,0-.6665-2.02148,3.51629,3.51629,0,0,0-1.84912-1.20508,12.72132,12.72132,0,0,0-3.40381-.34765H81.459Z" transform="translate(-1.5 -1.5)"/><path class="cls-1" d="M100.708,46.92676v-20.792h3.07861v20.792Z" transform="translate(-1.5 -1.5)"/><path class="cls-1" d="M115.13281,46.92676V28.58838h-7.66455V26.13477H125.9082v2.45361h-7.69677V46.92676Z" transform="translate(-1.5 -1.5)"/><path class="cls-1" d="M137.38086,46.92676v-20.792h8.72852a11.962,11.962,0,0,1,4.27636.63086,5.37214,5.37214,0,0,1,2.52344,1.94335,4.7347,4.7347,0,0,1,.91211,2.74415,4.35367,4.35367,0,0,1-.80859,2.51025,5.63275,5.63275,0,0,1-2.44434,1.90088A6.16567,6.16567,0,0,1,153.81348,37.75a4.7038,4.7038,0,0,1,1.13476,3.14941,5.54884,5.54884,0,0,1-.69043,2.71582,5.40592,5.40592,0,0,1-1.70605,1.93555,7.52688,7.52688,0,0,1-2.54688,1.02832,17.20584,17.20584,0,0,1-3.75293.34766ZM140.46,34.87109h5.03027a12.512,12.512,0,0,0,2.93555-.24072,3.30772,3.30772,0,0,0,1.76953-1.03564,2.763,2.763,0,0,0,.59571-1.81543,3.08152,3.08152,0,0,0-.55567-1.82227,2.79566,2.79566,0,0,0-1.58691-1.07812,14.79828,14.79828,0,0,0-3.53906-.29053H140.46Zm0,9.60157h5.792a14.89658,14.89658,0,0,0,2.09473-.09864,5.40583,5.40583,0,0,0,1.77734-.56738,3.1715,3.1715,0,0,0,1.17481-1.15625,3.3114,3.3114,0,0,0,.46-1.751,3.20042,3.20042,0,0,0-.667-2.02148,3.51492,3.51492,0,0,0-1.84864-1.20508,12.71966,12.71966,0,0,0-3.40332-.34765H140.46Z" transform="translate(-1.5 -1.5)"/><path class="cls-1" d="M158.78809,46.92676v-15.062h2.57129V34.148a6.39835,6.39835,0,0,1,1.8164-2.11328,3.4433,3.4433,0,0,1,1.833-.51074,6.04931,6.04931,0,0,1,2.93555.82275l-.9834,2.36865a4.4521,4.4521,0,0,0-2.09473-.55322,2.943,2.943,0,0,0-1.68262.50342,2.7387,2.7387,0,0,0-1.0625,1.397,8.97024,8.97024,0,0,0-.47656,2.97852v7.88574Z" transform="translate(-1.5 -1.5)"/><path class="cls-1" d="M168.58008,39.39551q0-4.18359,2.60254-6.19776a8.42893,8.42893,0,0,1,5.2998-1.67382,8.04844,8.04844,0,0,1,5.68164,2.03564,7.27137,7.27137,0,0,1,2.20606,5.623,9.06684,9.06684,0,0,1-.97657,4.57422,6.5699,6.5699,0,0,1-2.84082,2.58886,9.06053,9.06053,0,0,1-4.07031.92188,8.07116,8.07116,0,0,1-5.7207-2.02832A7.58867,7.58867,0,0,1,168.58008,39.39551Zm2.93555,0a5.95881,5.95881,0,0,0,1.4121,4.333,5.08089,5.08089,0,0,0,7.09375-.00684,6.094,6.094,0,0,0,1.41211-4.41113,5.78964,5.78964,0,0,0-1.41992-4.2334,5.08795,5.08795,0,0,0-7.08594-.00733A5.9328,5.9328,0,0,0,171.51563,39.39551Z" transform="translate(-1.5 -1.5)"/><path class="cls-1" d="M198.71484,41.40918l2.8086.32617a6.32484,6.32484,0,0,1-2.35645,4.06348,7.37512,7.37512,0,0,1-4.65722,1.46875,7.13639,7.13639,0,0,1-7.665-7.81543,9.52725,9.52725,0,0,1,.90429-4.269,5.91165,5.91165,0,0,1,2.75391-2.74415,8.94116,8.94116,0,0,1,4.02246-.915,7.57542,7.57542,0,0,1,4.49121,1.24121,5.59248,5.59248,0,0,1,2.23731,3.52392l-2.77735.38282a4.03029,4.03029,0,0,0-1.40429-2.28272,3.90657,3.90657,0,0,0-2.43555-.76611,4.68248,4.68248,0,0,0-3.50781,1.38281,6.08448,6.08448,0,0,0-1.34864,4.376A6.26428,6.26428,0,0,0,191.082,43.792a4.45633,4.45633,0,0,0,3.39551,1.376,4.2859,4.2859,0,0,0,2.80859-.92188A4.38245,4.38245,0,0,0,198.71484,41.40918Z" transform="translate(-1.5 -1.5)"/><path class="cls-1" d="M203.96777,46.92676v-20.792h2.85645v7.46a6.71793,6.71793,0,0,1,5.0459-2.0708,7.478,7.478,0,0,1,3.25293.65966,4.10533,4.10533,0,0,1,1.97558,1.82276,7.59305,7.59305,0,0,1,.59571,3.37549v9.54492h-2.85645V37.38184a3.18553,3.18553,0,0,0-3.55469-3.65918,5.05978,5.05978,0,0,0-2.38867.58838,3.48516,3.48516,0,0,0-1.59473,1.5957,6.62838,6.62838,0,0,0-.47558,2.77978v8.24024Z" transform="translate(-1.5 -1.5)"/><path class="cls-1" d="M233.08789,46.92676V44.71387a6.39369,6.39369,0,0,1-5.34863,2.55371,7.52044,7.52044,0,0,1-2.78418-.51074,4.07925,4.07925,0,0,1-2.80176-3.17676,11.64759,11.64759,0,0,1-.17383-2.38281V31.86475h2.85645v8.353a13.36074,13.36074,0,0,0,.17383,2.69532,2.664,2.664,0,0,0,1.14257,1.58105,3.8455,3.8455,0,0,0,2.15821.57422,5.12915,5.12915,0,0,0,2.41211-.58789,3.43089,3.43089,0,0,0,1.5957-1.60254,7.27765,7.27765,0,0,0,.46777-2.94336V31.86475h2.85645v15.062Z" transform="translate(-1.5 -1.5)"/><path class="cls-1" d="M240.085,46.92676v-15.062h2.57129V34.148a6.39835,6.39835,0,0,1,1.81641-2.11328,3.44327,3.44327,0,0,1,1.833-.51074,6.04931,6.04931,0,0,1,2.93555.82275l-.9834,2.36865a4.45206,4.45206,0,0,0-2.09472-.55322,2.943,2.943,0,0,0-1.68262.50342,2.7387,2.7387,0,0,0-1.0625,1.397,8.97024,8.97024,0,0,0-.47656,2.97852v7.88574Z" transform="translate(-1.5 -1.5)"/><path class="cls-1" d="M262.47559,42.07617l2.95214.32617a6.4236,6.4236,0,0,1-2.58691,3.58789,8.43616,8.43616,0,0,1-4.82422,1.27735,8.21536,8.21536,0,0,1-5.86328-2.03613,7.44867,7.44867,0,0,1-2.166-5.708,7.78711,7.78711,0,0,1,2.18946-5.90039,7.87189,7.87189,0,0,1,5.68164-2.09912,7.2361,7.2361,0,0,1,7.66406,7.84326q0,.227-.01562.68066H252.93848a5.44837,5.44837,0,0,0,1.57129,3.80078,4.96032,4.96032,0,0,0,3.52246,1.31934,4.74452,4.74452,0,0,0,2.68261-.73731A4.91311,4.91311,0,0,0,262.47559,42.07617Zm-9.37793-4.127h9.41015a4.774,4.774,0,0,0-1.0791-2.85108,4.60142,4.60142,0,0,0-3.53906-1.47509,4.83633,4.83633,0,0,0-3.3086,1.17724A4.42979,4.42979,0,0,0,253.09766,37.94922Z" transform="translate(-1.5 -1.5)"/><rect class="cls-2" x="0.5" y="0.5" width="268" height="74" rx="10"/><rect class="cls-3" x="32.5" y="20.5" width="6" height="10"/><path class="cls-1" d="M63.45089,13.91085a1.57062,1.57062,0,0,0-1.27348-.34167L45.81886,16.51993,29.46031,13.56918h-.0207c-.02071,0-.04142-.01035-.07248-.01035s-.06212-.01035-.09318-.01035h-.21742c-.04142,0-.07248.01035-.11389.01035h-.03106L12.29419,16.56135h-.01035c-.04142.01035-.09319.0207-.1346.03106-.01035,0-.02071.01035-.03106.01035a.37077.37077,0,0,0-.11389.04142.03618.03618,0,0,0-.02071.01035.4833.4833,0,0,0-.10353.05177c-.01036.01035-.03106.01035-.04142.0207a.91218.91218,0,0,0-.10353.06212c-.01035,0-.01035.01036-.02071.01036l-.09318.06212c-.01035.01035-.02071.01035-.03106.02071A1.53573,1.53573,0,0,0,11,18.104V55.39737a1.54572,1.54572,0,0,0,.88005,1.39773L24.08684,62.707a1.55955,1.55955,0,0,0,.673.15531,1.598,1.598,0,0,0,.82828-.23813,1.53247,1.53247,0,0,0,.72475-1.3149V54.49662l2.87827-.51768L45.54967,56.9297c.03106,0,.06212.01035.08283.01035a1.12563,1.12563,0,0,0,.18636.01035,1.28506,1.28506,0,0,0,.27955-.03106l16.62774-3.00251a1.5554,1.5554,0,0,0,1.27348-1.53232v-37.283A1.49794,1.49794,0,0,0,63.45089,13.91085ZM23.20679,58.82439l-9.10074-4.4106V20.57851l9.10074,4.40024Zm4.4313-7.73408-1.32525.23813V23.99517a1.5457,1.5457,0,0,0-.88005-1.39773L17.53306,18.777l10.105-1.82222V51.09031Zm16.6381,2.44343-13.532-2.44343V16.95478l13.532,2.44343Zm16.62774-2.44343-13.532,2.44343V19.39821l13.532-2.44343Z" transform="translate(-1.5 -1.5)"/><path class="cls-1" d="M41.6464,21.5l-7.75478-1.31489a1.58518,1.58518,0,0,0-1.26313.34166,1.54563,1.54563,0,0,0-.54874,1.19066V32.0295a1.55267,1.55267,0,0,0,1.25278,1.522l7.75478,1.51161a1.47811,1.47811,0,0,0,.30025.03107,1.55465,1.55465,0,0,0,1.553-1.553V23.03229A1.56391,1.56391,0,0,0,41.6464,21.5ZM39.83453,31.64642l-4.64873-.91111V23.55l4.64873.79722Z" transform="translate(-1.5 -1.5)"/><path class="cls-1" d="M40.88024,37.51686l-7.01969-1.26313a1.5516,1.5516,0,1,0-.54873,3.05429l7.01968,1.26312a1.272,1.272,0,0,0,.27955.02071,1.54952,1.54952,0,0,0,.26919-3.075Z" transform="translate(-1.5 -1.5)"/><path class="cls-1" d="M41.13907,42.19664l-7.01968-1.26313a1.5516,1.5516,0,1,0-.54873,3.05429l7.01968,1.26313a1.272,1.272,0,0,0,.27955.02071,1.54953,1.54953,0,0,0,.26918-3.075Z" transform="translate(-1.5 -1.5)"/><path class="cls-1" d="M41.39791,46.88678l-7.01968-1.26313a1.5516,1.5516,0,0,0-.54873,3.05429l7.01968,1.26313a1.272,1.272,0,0,0,.27954.02071,1.54953,1.54953,0,0,0,.26919-3.075Z" transform="translate(-1.5 -1.5)"/><path class="cls-1" d="M21.55023,41.69968l-4.44166-2.15353a1.5513,1.5513,0,0,0-1.346,2.79545l4.44166,2.15353a1.55971,1.55971,0,0,0,.673.1553,1.55248,1.55248,0,0,0,.673-2.95075Z" transform="translate(-1.5 -1.5)"/><path class="cls-1" d="M21.55023,46.88678l-4.44166-2.15352a1.5513,1.5513,0,0,0-1.346,2.79544l4.44166,2.15353a1.55958,1.55958,0,0,0,.673.15531,1.55248,1.55248,0,0,0,.673-2.95076Z" transform="translate(-1.5 -1.5)"/><path class="cls-1" d="M21.56058,52.0739l-4.452-2.15353a1.5513,1.5513,0,1,0-1.346,2.79544l4.44166,2.15353a1.55958,1.55958,0,0,0,.673.15531,1.55527,1.55527,0,0,0,.68333-2.95075Z" transform="translate(-1.5 -1.5)"/><rect class="cls-3" x="49.5" y="37.5" width="6" height="10"/><path class="cls-1" d="M59.30949,22.93911A1.54905,1.54905,0,0,0,57.508,21.68634l-7.27852,1.32525a1.54952,1.54952,0,0,0,.26919,3.075,2.53726,2.53726,0,0,0,.27955-.02071l7.27852-1.32525A1.54906,1.54906,0,0,0,59.30949,22.93911Z" transform="translate(-1.5 -1.5)"/><path class="cls-1" d="M59.30949,27.34971A1.54907,1.54907,0,0,0,57.508,26.09693l-7.27852,1.32525a1.54953,1.54953,0,0,0,.26919,3.075,2.5397,2.5397,0,0,0,.27955-.02071l7.27852-1.32525A1.54907,1.54907,0,0,0,59.30949,27.34971Z" transform="translate(-1.5 -1.5)"/><path class="cls-1" d="M59.30949,31.77066A1.54907,1.54907,0,0,0,57.508,30.51788l-7.27852,1.32525a1.54952,1.54952,0,0,0,.26919,3.075,2.53968,2.53968,0,0,0,.27955-.0207l7.27852-1.32525A1.54907,1.54907,0,0,0,59.30949,31.77066Z" transform="translate(-1.5 -1.5)"/><path class="cls-1" d="M58.77111,36.554a1.56473,1.56473,0,0,0-1.27349-.33131L50.2191,37.54792a1.55538,1.55538,0,0,0-1.27348,1.53232V49.62011a1.55033,1.55033,0,0,0,.55909,1.1803,1.52717,1.52717,0,0,0,.99394.36237,2.53968,2.53968,0,0,0,.27955-.0207l7.27851-1.32525a1.5554,1.5554,0,0,0,1.27348-1.53232V37.74463A1.55542,1.55542,0,0,0,58.77111,36.554Zm-2.547,10.43634-4.17246.7558v-7.382l4.17246-.75581Z" transform="translate(-1.5 -1.5)"/></svg>