<svg id="Layer_1" data-name="Layer 1" xmlns="http://www.w3.org/2000/svg" viewBox="0 0 213.97999 42.28"><defs><style>.cls-1,.cls-7{fill:#fff;}.cls-2{fill:#cf152b;}.cls-3,.cls-5,.cls-6{fill:none;}.cls-3,.cls-5{stroke:#26326b;}.cls-3,.cls-5,.cls-7{stroke-miterlimit:10;}.cls-3{stroke-width:2.28px;}.cls-4{fill:#26326b;}.cls-5{stroke-width:2px;}.cls-7{stroke:#fff;}</style></defs><title>enquirebutton</title><path class="cls-1" d="M185.2,50.5H36.6V10.1l152.9-.5c15.3,0,23.4,9.6,23.4,20.7h0C212.9,41.4,200.5,50.5,185.2,50.5Z" transform="translate(-0.06 -8.66)"/><rect class="cls-2" x="19.64" y="0.94" width="17.3" height="40"/><path class="cls-2" d="M21.2,49.5a20.0588,20.0588,0,0,1-20-20h0a20.0588,20.0588,0,0,1,20-20Z" transform="translate(-0.06 -8.66)"/><path class="cls-3" d="M21.2,9.8H192.9a20.0588,20.0588,0,0,1,20,20h0a20.0588,20.0588,0,0,1-20,20H21.2a20.0588,20.0588,0,0,1-20-20h0A19.99445,19.99445,0,0,1,21.2,9.8Z" transform="translate(-0.06 -8.66)"/><path class="cls-4" d="M196.76807,37.1347a1.81516,1.81516,0,0,1-.85863-.1431,3.12841,3.12841,0,0,1-.71552-.42931,2.298,2.298,0,0,1-.71552-1.57414,3.00084,3.00084,0,0,1,.57241-1.57413,2.298,2.298,0,0,1,1.57415-.71552,1.81518,1.81518,0,0,1,.85863.1431,3.12831,3.12831,0,0,1,.71551.42931,1.21668,1.21668,0,0,1,.42932.71552,1.815,1.815,0,0,1,.14311.85862,3.00083,3.00083,0,0,1-.5724,1.57413A1.45336,1.45336,0,0,1,196.76807,37.1347Zm-1.431-5.86724-.42931-11.44829h3.7207l-.42932,11.44829Z" transform="translate(-0.06 -8.66)"/><line class="cls-5" x1="36.94" y1="1.34" x2="36.94" y2="41.34"/><rect class="cls-6" x="11.14" y="15.04" width="17.6" height="12.2"/><path class="cls-7" d="M23.2,35.6a.64031.64031,0,0,1-1-.8l.1-.1,4.4-4.4H12.3a.6.6,0,1,1,0-1.2H26.7l-4.4-4.4a.74626.74626,0,0,1,0-.9.60833.60833,0,0,1,.8,0h0l5.4,5.4a.74626.74626,0,0,1,0,.9Z" transform="translate(-0.06 -8.66)"/><path class="cls-4" d="M56.27051,18.64893v2.895H50.52734a4.03993,4.03993,0,0,0-2.90673.98437,3.83565,3.83565,0,0,0-1.03077,2.90625h9.68067v2.895H46.58984a4.37022,4.37022,0,0,0,.76465,2.9292,2.97177,2.97177,0,0,0,1.42432.99609,8.13959,8.13959,0,0,0,1.74853.15039h5.74317V35.2998H50.38818a12.00329,12.00329,0,0,1-2.83691-.28906,6.17234,6.17234,0,0,1-4.354-4.064,11.026,11.026,0,0,1-.59034-3.65967l.0459-.99561a8.27464,8.27464,0,0,1,.18555-1.76025,12.488,12.488,0,0,1,.46289-1.62109,6.792,6.792,0,0,1,.64893-1.34327A8.0368,8.0368,0,0,1,45.03857,20.27a4.33569,4.33569,0,0,1,1.73682-1.05371,10.4791,10.4791,0,0,1,1.91065-.45166,13.92459,13.92459,0,0,1,1.79492-.11572Z" transform="translate(-0.06 -8.66)"/><path class="cls-4" d="M62.24512,35.2998h-3.1958V23.0957h6.04443a8.50555,8.50555,0,0,1,2.80225.39356,3.2011,3.2011,0,0,1,1.71386,1.37793,5.15826,5.15826,0,0,1,.60205,2.69824V35.2998H66.94678V27.98193a6.92736,6.92736,0,0,0-.03467-.706,3.89327,3.89327,0,0,0-.15088-.71826.90036.90036,0,0,0-.55566-.56739,3.759,3.759,0,0,0-1.36621-.18505H62.24512Z" transform="translate(-0.06 -8.66)"/><path class="cls-4" d="M84.22266,23.0957V39.67676H81.00391v-4.377h-2.749a11.56263,11.56263,0,0,1-1.894-.13867,6.33437,6.33437,0,0,1-1.60547-.5791,4.584,4.584,0,0,1-1.374-1.13476,6.56852,6.56852,0,0,1-1.29395-4.07569v-.48633a6.14709,6.14709,0,0,1,.2085-1.62109,6.51525,6.51525,0,0,1,.5791-1.436,5.38036,5.38036,0,0,1,.85693-1.16944,6.15588,6.15588,0,0,1,1.48194-1.03027,6.02794,6.02794,0,0,1,2.80224-.53272Zm-5.21045,9.58692h1.9917V25.75879l-1.0044-.04639h-1.0039a4.94528,4.94528,0,0,0-2.51075.53272,2.50169,2.50169,0,0,0-1.03906,2.08447v.81055a4.24137,4.24137,0,0,0,.42822,2.11865,2.77448,2.77448,0,0,0,.89161,1.00684,2.5466,2.5466,0,0,0,.99609.34765Z" transform="translate(-0.06 -8.66)"/><path class="cls-4" d="M94.853,23.0957h3.21924V35.2998H92.00439a7.6987,7.6987,0,0,1-2.75585-.42871A3.307,3.307,0,0,1,87.54639,33.459a5.081,5.081,0,0,1-.59082-2.62841V23.0957h3.19629v7.50342a3.28573,3.28573,0,0,0,.18505,1.20361,1.11479,1.11479,0,0,0,.64844.64844,3.4327,3.4327,0,0,0,1.25049.18555H94.853Z" transform="translate(-0.06 -8.66)"/><path class="cls-4" d="M100.98975,18.64893h3.335v3.03369h-3.335Zm0,4.44677h3.335V35.2998h-3.335Z" transform="translate(-0.06 -8.66)"/><path class="cls-4" d="M110.3457,35.2998h-3.19531V23.0957h5.41895a4.65821,4.65821,0,0,1,2.22265.41651,1.89809,1.89809,0,0,1,.9502,1.13476,7.483,7.483,0,0,1,.208,1.9917v1.55225h-3.05665v-.97315a4.37252,4.37252,0,0,0-.11621-1.2622.69329.69329,0,0,0-.43945-.42823q-.30175-.04614-.5332-.06982-.23145-.02271-.76367-.02295h-.69532Z" transform="translate(-0.06 -8.66)"/><path class="cls-4" d="M128.17773,32.77539V35.2998h-4.70117a5.97545,5.97545,0,0,1-4.64355-1.667,6.35431,6.35431,0,0,1-1.5166-4.44677,5.972,5.972,0,0,1,1.18066-4.08741,5.31978,5.31978,0,0,1,2.374-1.65576,9.28988,9.28988,0,0,1,2.60547-.34717h4.70117v2.52393H123.916a6.61918,6.61918,0,0,0-1.64356.16211,1.62843,1.62843,0,0,0-.95019.67187,2.35425,2.35425,0,0,0-.416,1.48194h7.27148v2.5708h-7.27148a2.59065,2.59065,0,0,0,.335,1.44678,1.70053,1.70053,0,0,0,.96192.68359,7.91414,7.91414,0,0,0,1.69042.13867Z" transform="translate(-0.06 -8.66)"/><path class="cls-4" d="M141.00781,35.2998H137.418V18.64893h4.44629L148.65039,30.645l-.13965-11.99609h3.52051V35.2998H148.002l-7.13379-12.5747Z" transform="translate(-0.06 -8.66)"/><path class="cls-4" d="M165.417,33.84082a5.4095,5.4095,0,0,1-1.80664,1.14648,10.19621,10.19621,0,0,1-1.55176.45118,7.11823,7.11823,0,0,1-1.29687.11621,7.56613,7.56613,0,0,1-2.54785-.45215,5.81335,5.81335,0,0,1-2.11914-1.26172,4.89637,4.89637,0,0,1-1.21582-1.77148,9.49774,9.49774,0,0,1-.48633-1.57471,7.05522,7.05522,0,0,1-.11524-1.30859,6.13577,6.13577,0,0,1,.3584-2.23438,8.32093,8.32093,0,0,1,.67188-1.40137,7.4066,7.4066,0,0,1,.97265-1.14648,5.16062,5.16062,0,0,1,1.876-1.11133,7.417,7.417,0,0,1,2.60547-.45166,7.588,7.588,0,0,1,2.53613.42822,5.16531,5.16531,0,0,1,1.89844,1.08887,7.08868,7.08868,0,0,1,1.00781,1.15772,7.84574,7.84574,0,0,1,.67188,1.38964,6.35864,6.35864,0,0,1,.34668,2.28077,7.22766,7.22766,0,0,1-.45118,2.53564A5.8378,5.8378,0,0,1,165.417,33.84082Zm-5.74414-1.11133a1.68371,1.68371,0,0,0,.47559.13867,3.5352,3.5352,0,0,0,.56738.0459,3.03524,3.03524,0,0,0,1.80566-.57812,2.75608,2.75608,0,0,0,1.07715-1.4126,5.51739,5.51739,0,0,0,.2666-1.69043,4.77877,4.77877,0,0,0-.45214-2.14258,2.72066,2.72066,0,0,0-1.44727-1.33154,3.548,3.548,0,0,0-1.18066-.23145,3.42032,3.42032,0,0,0-1.251.2544,3.323,3.323,0,0,0-1.042.76465,3.11786,3.11786,0,0,0-.63672,1.13476,4.96027,4.96027,0,0,0-.21973,1.55176,4.50977,4.50977,0,0,0,.49707,2.12939A2.8863,2.8863,0,0,0,159.67285,32.72949Z" transform="translate(-0.06 -8.66)"/><path class="cls-4" d="M184.17188,35.2998h-3.66211l-2.665-8.33935-2.59864,8.33545-3.51464.0039-4.25391-12.2041h3.3584l2.66308,8.54493,2.66309-8.54493h3.45117l2.709,8.54493,2.66308-8.54493h3.3584Z" transform="translate(-0.06 -8.66)"/></svg>