<svg id="Layer_1" data-name="Layer 1" xmlns="http://www.w3.org/2000/svg" viewBox="0 0 269 75"><defs><style>.cls-1{fill:#ecedef;}.cls-2{fill:#c6cacf;}.cls-3{fill:#68727e;}.cls-4{fill:#d9dcdf;}.cls-5{fill:#db6b5e;}.cls-6{fill:#ff8c78;}.cls-7{fill:#26326b;}.cls-8{fill:none;stroke:#26326b;stroke-miterlimit:10;}</style></defs><title>profilebutton</title><path class="cls-1" d="M20.22245,12.45018a1.95276,1.95276,0,0,0-1.95288,1.95288V67.13155a1.95276,1.95276,0,0,0,1.95288,1.95287h42.964a1.95275,1.95275,0,0,0,1.95287-1.95287V21.23823l-8.788-8.78805Z" transform="translate(-1.5 -1.5)"/><path class="cls-2" d="M53.42186,33.93213H18.26957V16.35593H53.42186a.97652.97652,0,0,1,.97644.97644V32.95558A.97654.97654,0,0,1,53.42186,33.93213Z" transform="translate(-1.5 -1.5)"/><polygon class="cls-3" points="50.945 30.479 7.981 30.479 15.793 22.668 7.981 14.856 50.945 14.856 50.945 30.479"/><path class="cls-4" d="M55.37474,64.20224H28.03406a.97653.97653,0,0,1-.97644-.97644V37.838a.97652.97652,0,0,1,.97644-.97643H55.37474a.97652.97652,0,0,1,.97643.97643V63.2258A.97645.97645,0,0,1,55.37474,64.20224Z" transform="translate(-1.5 -1.5)"/><path class="cls-2" d="M29.01049,62.24925V36.86144h-.97643a.97652.97652,0,0,0-.97644.97644V63.22569a.97652.97652,0,0,0,.97644.97643H55.37474a.97652.97652,0,0,0,.97643-.97643v-.97644Z" transform="translate(-1.5 -1.5)"/><rect class="cls-5" x="41.18072" y="47.07891" width="9.76448" height="11.71747"/><rect class="cls-6" x="43.13359" y="49.03178" width="5.85873" height="7.81161"/><path class="cls-7" d="M65.13933,60.2354a.9154.9154,0,0,0,.91546-.91546V21.23823a.92566.92566,0,0,0-.268-.64723l-8.788-8.788a.9264.9264,0,0,0-.64758-.26823H20.22245a2.87153,2.87153,0,0,0-2.86833,2.86833v1.03753H9.48142a.923.923,0,0,0-.64723,1.56268l7.16426,7.16438L8.83419,31.332a.923.923,0,0,0,.64723,1.56269h7.8727v34.237A2.87153,2.87153,0,0,0,20.22245,70h42.964a2.87153,2.87153,0,0,0,2.86833-2.86833V63.22581a.91546.91546,0,0,0-1.83092,0v3.90586a1.0387,1.0387,0,0,1-1.03752,1.03753H20.22245a1.03871,1.03871,0,0,1-1.03753-1.03753V32.8946h5.91971a.91546.91546,0,1,0,0-1.83091H11.69145l6.24892-6.24892a.91534.91534,0,0,0,0-1.29457l-6.24892-6.24881H51.53V31.0638H29.01049a.91546.91546,0,0,0,0,1.83092H52.44543a.91541.91541,0,0,0,.91546-.91546V16.35593a.91541.91541,0,0,0-.91546-.91546H19.18492V14.40294a1.0387,1.0387,0,0,1,1.03753-1.03752H55.43583v5.91971a2.87153,2.87153,0,0,0,2.86833,2.86833h5.91971V59.31971A.91539.91539,0,0,0,65.13933,60.2354ZM58.30416,20.32277a1.03871,1.03871,0,0,1-1.03753-1.03753V14.6601l5.66256,5.66267Z" transform="translate(-1.5 -1.5)"/><path class="cls-7" d="M28.94951,27.097v-2.016q.03033.00206.061.00206H31.9398a.91549.91549,0,0,0,.91546-.91546V21.23823a.91549.91549,0,0,0-.91546-.91546H28.03394a.91549.91549,0,0,0-.91546.91546V27.097a.91552.91552,0,0,0,1.831,0Zm0-4.94327h2.075v1.0985h-2.014c-.02055,0-.04076.00057-.061.00206V22.15369Z" transform="translate(-1.5 -1.5)"/><path class="cls-7" d="M38.77509,28.01242a.91541.91541,0,0,0,.91545-.91546V23.1911a2.87153,2.87153,0,0,0-2.86833-2.86833H34.86934a.91548.91548,0,0,0-.91546.91546V27.097a.91549.91549,0,0,0,.91546.91546Zm-2.9904-5.85873h1.03752a1.03871,1.03871,0,0,1,1.03753,1.03753v2.9904H35.7848V22.15369Z" transform="translate(-1.5 -1.5)"/><path class="cls-7" d="M45.61026,22.15369a.91546.91546,0,1,0,0-1.83092H41.70439a.91541.91541,0,0,0-.91546.91546V27.097a.91546.91546,0,0,0,1.83092,0V25.083h2.014a.91546.91546,0,1,0,0-1.83092h-2.014V22.15357h2.99041Z" transform="translate(-1.5 -1.5)"/><path class="cls-7" d="M26.14216,37.838V63.2258a1.894,1.894,0,0,0,1.8919,1.8919H55.37474a1.894,1.894,0,0,0,1.89189-1.8919V37.838a1.894,1.894,0,0,0-1.89189-1.89189H28.03406A1.894,1.894,0,0,0,26.14216,37.838Zm1.83092,0a.061.061,0,0,1,.061-.061H55.37474a.061.061,0,0,1,.061.061V63.2258a.06111.06111,0,0,1-.061.061H28.03406a.061.061,0,0,1-.061-.061V37.838Z" transform="translate(-1.5 -1.5)"/><path class="cls-7" d="M42.68083,61.21184h9.76448a.91541.91541,0,0,0,.91546-.91546V48.57891a.91541.91541,0,0,0-.91546-.91546H42.68083a.91541.91541,0,0,0-.91546.91546V60.29638A.91556.91556,0,0,0,42.68083,61.21184Zm.91546-11.71747H51.53v9.88655H43.59629Z" transform="translate(-1.5 -1.5)"/><path class="cls-7" d="M42.68083,41.68276h10.741a.91546.91546,0,0,0,0-1.83092h-10.741a.91546.91546,0,0,0,0,1.83092Z" transform="translate(-1.5 -1.5)"/><path class="cls-7" d="M42.68083,45.58851h10.741a.91546.91546,0,1,0,0-1.83092h-10.741a.91546.91546,0,1,0,0,1.83092Z" transform="translate(-1.5 -1.5)"/><path class="cls-7" d="M29.98693,41.68276h9.76459a.91546.91546,0,0,0,0-1.83092H29.987a.91546.91546,0,0,0-.00011,1.83092Z" transform="translate(-1.5 -1.5)"/><path class="cls-7" d="M29.98693,45.58851h9.76459a.91546.91546,0,0,0,0-1.83092H29.987a.91546.91546,0,0,0-.00011,1.83092Z" transform="translate(-1.5 -1.5)"/><path class="cls-7" d="M29.98693,49.49437h9.76459a.91546.91546,0,0,0,0-1.83092H29.987a.91546.91546,0,0,0-.00011,1.83092Z" transform="translate(-1.5 -1.5)"/><path class="cls-7" d="M29.98693,53.40012h9.76459a.91546.91546,0,0,0,0-1.83092H29.987a.91546.91546,0,0,0-.00011,1.83092Z" transform="translate(-1.5 -1.5)"/><path class="cls-7" d="M29.98693,57.306h9.76459a.91546.91546,0,1,0,0-1.83092H29.987a.91546.91546,0,0,0-.00011,1.83092Z" transform="translate(-1.5 -1.5)"/><path class="cls-7" d="M29.98693,61.21184h9.76459a.91546.91546,0,0,0,0-1.83092H29.987a.91546.91546,0,0,0-.00011,1.83092Z" transform="translate(-1.5 -1.5)"/><path class="cls-7" d="M78.70947,50.166V27.69678h9.4834a25.56854,25.56854,0,0,1,3.82422.21484,8.1457,8.1457,0,0,1,3.104,1.04981,5.71154,5.71154,0,0,1,2.01465,2.16894,6.28012,6.28012,0,0,1,.76319,3.06494,6.50793,6.50793,0,0,1-2.04053,4.85108q-2.04126,1.98412-7.374,1.98486H82.03662V50.166Zm3.32715-11.78614h6.499q3.22413,0,4.57911-1.07324a3.63051,3.63051,0,0,0,1.35449-3.019,3.72172,3.72172,0,0,0-2.89795-3.73975,15.8725,15.8725,0,0,0-3.104-.19922H82.03662Z" transform="translate(-1.5 -1.5)"/><path class="cls-7" d="M101.70605,50.166V33.88916h2.77833v2.46729a6.9177,6.9177,0,0,1,1.96337-2.2837,3.71838,3.71838,0,0,1,1.98047-.55175,6.54339,6.54339,0,0,1,3.17285.88916l-1.06347,2.55957a4.80876,4.80876,0,0,0-2.26367-.59766,3.17266,3.17266,0,0,0-1.81739.544,2.96515,2.96515,0,0,0-1.14941,1.50976,9.69723,9.69723,0,0,0-.51416,3.21875V50.166Z" transform="translate(-1.5 -1.5)"/><path class="cls-7" d="M112.28662,42.02734q0-4.52124,2.8125-6.69775a9.11014,9.11014,0,0,1,5.72754-1.80859,8.69789,8.69789,0,0,1,6.13965,2.1997,7.85879,7.85879,0,0,1,2.3833,6.07618,9.79226,9.79226,0,0,1-1.05469,4.94335,7.0923,7.0923,0,0,1-3.06933,2.79786,9.7901,9.7901,0,0,1-4.39893.99609,8.71426,8.71426,0,0,1-6.18213-2.19238A8.19714,8.19714,0,0,1,112.28662,42.02734Zm3.17285,0A6.43863,6.43863,0,0,0,116.98535,46.71a5.48941,5.48941,0,0,0,7.66553-.00781,6.583,6.583,0,0,0,1.52637-4.7666,6.25543,6.25543,0,0,0-1.53467-4.5752,5.49833,5.49833,0,0,0-7.65723-.00732A6.40775,6.40775,0,0,0,115.45947,42.02734Z" transform="translate(-1.5 -1.5)"/><path class="cls-7" d="M133.70557,50.166V36.03467H130.979V33.88916h2.72657V32.15723a6.82737,6.82737,0,0,1,.32617-2.437,3.63234,3.63234,0,0,1,1.56885-1.73974,6.19611,6.19611,0,0,1,3.14746-.66651,16.83948,16.83948,0,0,1,2.88086.27588l-.46289,2.40625a11.585,11.585,0,0,0-1.81836-.15332,2.9197,2.9197,0,0,0-1.98926.53662,2.68961,2.68961,0,0,0-.583,2.00782v1.50195h3.54981v2.14551h-3.54981V50.166Z" transform="translate(-1.5 -1.5)"/><path class="cls-7" d="M142.74316,30.86963V27.69678h3.08692v3.17285Zm0,19.29639V33.88916h3.08692V50.166Z" transform="translate(-1.5 -1.5)"/><path class="cls-7" d="M150.46,50.166V27.69678h3.08692V50.166Z" transform="translate(-1.5 -1.5)"/><path class="cls-7" d="M170.79883,44.92383l3.18945.35254a6.94009,6.94009,0,0,1-2.79492,3.87793,9.11906,9.11906,0,0,1-5.21289,1.37988,8.87906,8.87906,0,0,1-6.33692-2.2002,8.04994,8.04994,0,0,1-2.34082-6.168,8.41741,8.41741,0,0,1,2.36622-6.37647,8.50551,8.50551,0,0,1,6.13964-2.26855,7.82147,7.82147,0,0,1,8.28321,8.47607c0,.16309-.00586.40918-.01758.73535h-13.582a5.89046,5.89046,0,0,0,1.69824,4.10742,5.36247,5.36247,0,0,0,3.80664,1.42579,5.12293,5.12293,0,0,0,2.89844-.79688A5.316,5.316,0,0,0,170.79883,44.92383Zm-10.13477-4.459H170.833a5.15163,5.15163,0,0,0-1.166-3.08154,4.97171,4.97171,0,0,0-3.82422-1.59375,5.22614,5.22614,0,0,0-3.57519,1.272A4.78726,4.78726,0,0,0,160.66406,40.46484Z" transform="translate(-1.5 -1.5)"/><path class="cls-7" d="M187.87891,50.166V27.69678h9.43164a12.92907,12.92907,0,0,1,4.62207.68213,5.8064,5.8064,0,0,1,2.72656,2.10009,5.11784,5.11784,0,0,1,.98633,2.96534,4.7025,4.7025,0,0,1-.875,2.71289,6.08592,6.08592,0,0,1-2.64063,2.05371A6.67038,6.67038,0,0,1,205.63672,40.25a5.07962,5.07962,0,0,1,1.22558,3.40234,5.99233,5.99233,0,0,1-.74511,2.93457,5.85971,5.85971,0,0,1-1.84375,2.09278A8.15755,8.15755,0,0,1,201.52051,49.79a18.61055,18.61055,0,0,1-4.05567.376Zm3.32714-13.02784h5.43555a13.51749,13.51749,0,0,0,3.17285-.26025,3.57847,3.57847,0,0,0,1.91211-1.11914,2.98527,2.98527,0,0,0,.64356-1.96191,3.32754,3.32754,0,0,0-.60059-1.96924,3.02087,3.02087,0,0,0-1.71484-1.165,15.98879,15.98879,0,0,0-3.82422-.314h-5.02442Zm0,10.37647h6.25879a16.12658,16.12658,0,0,0,2.26368-.10742,5.86453,5.86453,0,0,0,1.92089-.61328,3.42506,3.42506,0,0,0,1.26954-1.249,3.58233,3.58233,0,0,0,.49707-1.89258,3.45171,3.45171,0,0,0-.72071-2.18359,3.7927,3.7927,0,0,0-1.998-1.30273,13.74657,13.74657,0,0,0-3.67774-.376h-5.81348Z" transform="translate(-1.5 -1.5)"/><path class="cls-7" d="M209.89746,42.02734q0-4.52124,2.8125-6.69775A9.11111,9.11111,0,0,1,218.4375,33.521a8.69871,8.69871,0,0,1,6.13965,2.1997,7.85909,7.85909,0,0,1,2.38379,6.07618,9.79226,9.79226,0,0,1-1.05469,4.94335,7.09486,7.09486,0,0,1-3.07031,2.79786,9.78656,9.78656,0,0,1-4.39844.99609,8.71141,8.71141,0,0,1-6.18164-2.19238A8.19562,8.19562,0,0,1,209.89746,42.02734Zm3.17285,0A6.43874,6.43874,0,0,0,214.59668,46.71a5.48881,5.48881,0,0,0,7.665-.00781,6.583,6.583,0,0,0,1.52637-4.7666,6.25351,6.25351,0,0,0-1.53516-4.5752,5.49713,5.49713,0,0,0-7.65625-.00732A6.40786,6.40786,0,0,0,213.07031,42.02734Z" transform="translate(-1.5 -1.5)"/><path class="cls-7" d="M229.43066,42.02734q0-4.52124,2.8125-6.69775A9.11111,9.11111,0,0,1,237.9707,33.521a8.6987,8.6987,0,0,1,6.13965,2.1997,7.85909,7.85909,0,0,1,2.38379,6.07618,9.79226,9.79226,0,0,1-1.05469,4.94335,7.09486,7.09486,0,0,1-3.07031,2.79786,9.78653,9.78653,0,0,1-4.39844.99609,8.71141,8.71141,0,0,1-6.18164-2.19238A8.19566,8.19566,0,0,1,229.43066,42.02734Zm3.17286,0A6.43874,6.43874,0,0,0,234.12988,46.71a5.48881,5.48881,0,0,0,7.665-.00781,6.583,6.583,0,0,0,1.52637-4.7666,6.25351,6.25351,0,0,0-1.53516-4.5752,5.49713,5.49713,0,0,0-7.65625-.00732A6.40786,6.40786,0,0,0,232.60352,42.02734Z" transform="translate(-1.5 -1.5)"/><path class="cls-7" d="M250.12891,50.166V27.69678h3.08691v12.813l7.30566-6.62061h3.99512l-6.96191,6.03857,7.665,10.23829h-3.80664l-6.01954-8.32227-2.17773,1.86914V50.166Z" transform="translate(-1.5 -1.5)"/><rect class="cls-8" x="0.5" y="0.5" width="268" height="74" rx="10"/></svg>