<svg id="Layer_2" data-name="Layer 2" xmlns="http://www.w3.org/2000/svg" viewBox="0 0 482.40653 364.05414"><defs><style>.cls-1{fill:#09a6b7;}.cls-1,.cls-2{stroke:#03797f;stroke-miterlimit:10;}.cls-2{fill:#fca60d;}</style></defs><title>17</title><path class="cls-1" d="M396.36693,406.06443c-7.57317.03121-14.91171-1.06793-21.78147-4.76011a19.43542,19.43542,0,0,1-10.3937-18.83364,11.16157,11.16157,0,0,1,1.11452-4.07936c3.551-6.97655,5.82609-7.90881,12.84293-5.35243a33.772,33.772,0,0,1,6.08122,2.62942c9.277,5.64666,18.50138,4.3735,27.44882-.52261,8.31877-4.55212,16.09173-10.04412,21.46837-18.609,2.20355-3.51028,1.98184-3.97083-1.67352-5.52264-7.53918-3.20056-14.89446-6.65789-19.42358-14.6309-.51762-.91122-3.03383-1.09283-4.43908-.748-7.15405,1.75526-14.15364,4.5705-21.38116,5.57658-15.80987,2.20079-30.3364-1.93262-43.43022-11.97073-8.7021-6.67132-14.71682-15.64068-20.34695-25.131-13.05511-22.00614-14.87623-46.31171-13.09036-71.41446.59137-8.3116,1.645-16.46376,5.482-23.9555,3.77177-7.36436,12.24009-10.61753,19.18894-6.889,3.802,2.04,5.353,6.03131,5.15056,10.20745-.35542,7.33312-1.33048,14.63549-2.145,21.938-.90177,8.08467-2.83252,16.18451-2.60873,24.223a64.74741,64.74741,0,0,0,4.40937,21.81479c3.58571,8.94137,8.23584,17.568,15.13275,24.35423,12.04741,11.854,30.87562,17.39017,47.39313,8.35974,8.59559-4.69935,14.37937-12.019,19.62774-20.21065a56.61059,56.61059,0,0,0,9.3202-32.93218c-.28-10.71665-8.75035-20.81849-17.11121-23.17136-6.94489-1.95441-15.3975,1.36764-19.85346,7.95791a19.34658,19.34658,0,0,0-.60505,21.73582c1.67518,2.75325,3.475,5.41884,5.19048,8.14431,5.13737,8.16173,1.007,18.78163-8.06,20.65144-8.76256,1.8071-15.82567-1.60544-20.9597-9.00869-6.6109-9.53289-11.39987-19.98229-10.21494-32.3993,1.61413-16.915,9.15692-30.52584,21.74752-40.36615,9.05954-7.08054,19.84631-8.3623,30.92906-6.57361,14.28321,2.30524,25.13147,10.10063,33.49732,22.6533,9.09506,13.6468,11.2423,28.71734,9.29089,44.8663-.98468,8.14881-2.656,16.14714-6.836,23.1453a190.62221,190.62221,0,0,1-11.1158,16.591c-2.27019,3.02726-2.09664,5.21058.21559,7.86887,3.77124,4.33567,8.66528,6.27559,13.7754,7.78822,2.17894.645,2.81775-.8159,2.95645-2.82034.43632-6.304,3.51611-11.23969,7.60887-15.3373,7.29928-7.30788,15.88964-7.44214,24.71022-3.93247,6.21952,2.47473,10.779,6.98756,11.50283,14.4643.8707,8.99446-2.18362,15.80408-9.62142,20.87859-6.93085,4.72863-14.12843,7.18091-22.2135,6.818-2.70426-.12136-3.92741,1.14733-4.72581,3.81159-2.71992,9.07592-6.30743,17.75772-12.13646,25.06381-11.16545,13.99483-24.8604,23.64158-41.99813,26.91111C403.04311,405.9649,399.67672,405.84407,396.36693,406.06443Z" transform="translate(-15.21994 -97.34899)"/><path class="cls-1" d="M105.67926,264.26222c0,3.29087-1.09181,7.35339.31673,9.64873,1.325,2.15921,5.29875,2.42392,8.08854,3.5741,12.90346,5.32,22.40558,14.48679,27.09582,28.6303,2.63013,7.93118,1.90339,16.22055.17255,24.21808-3.24362,14.98756-6.83251,29.89156-10.44008,44.785-2.23811,9.2397-5.48947,18.263-7.00449,27.62224-2.09293,12.92932-2.9784,26.08369-4.38045,39.14176-.43371,4.03946-.69574,8.111-1.34747,12.10949a7.31217,7.31217,0,0,1-6.49293,6.51085c-5.9781.92255-11.93653.67644-15.45087-5.41751a20.84807,20.84807,0,0,1-2.94125-11.05857c.81942-11.38792,2.24991-22.749,3.95669-34.03114,1.096-7.24483,2.99127-14.36134,4.71612-21.483,2.17279-8.971,4.71838-17.84094,6.77119-26.84168,2.35683-10.33372,4.67055-20.70205,6.39732-31.17042,1.31494-7.97137-.87588-15.58232-5.21646-22.05411-1.807-2.69419-5.0885-4.33726-7.893-6.1046-.61911-.39014-2.69334.40523-3.02445,1.1817-5.826,13.66239-17.0087,21.3934-28.47241,28.06184-13.07259,7.60443-27.21741,9.85481-42.03729,5.1085-12.04048-3.85613-14.14034-15.77261-12.077-25.39814,3.58447-16.72146,14.7639-25.6499,28.35229-32.092,11.22531-5.32187,22.9004-8.57358,35.28815-8.7061,1.16577-.01244,3.14325-2.2857,3.32751-3.719,1.16328-9.0491.25021-17.86193-3.98516-26.00257a17.07884,17.07884,0,0,0-2.26114-3.1056c-2.24455-2.62873-4.612-2.95593-6.86539-.06035-3.75464,4.82468-7.56212,9.612-11.11175,14.60779-3.99095,5.61693-8.85892,9.34044-15.60267,9.8723-4.37187.34481-6.94188-1.51717-8.34627-5.90454-2.5303-7.90479-.29035-15.13667,3.79381-21.28916a75.16936,75.16936,0,0,1,13.81366-15.58164c9.83012-8.33617,20.587-8.27227,31.70448-2.28923,11.79691,6.34876,16.591,17.71407,19.46559,30.3875,1.23564,5.44771,1.38834,11.17831,2.03305,16.7804Zm-60.36151,53.258.12276.4805c2.681-.78273,5.61013-1.06781,7.998-2.43868,8.14326-4.675,15.73079-10.18088,20.07059-19.4228a16.35944,16.35944,0,0,0,.77974-3.54826,15.15551,15.15551,0,0,0-3.48161-.22453c-8.03625,1.318-15.10157,5.285-21.8492,9.83756a45.66691,45.66691,0,0,0-9.27367,8.06816c-2.70945,3.18651-1.30936,6.18882,2.70831,6.929C43.3563,317.37872,44.34213,317.41761,45.31775,317.52026Z" transform="translate(-15.21994 -97.34899)"/><path class="cls-1" d="M252.16768,213.4106c24.64476-.13523,40.58059,17.15534,45.1311,42.936,1.42181,8.05524,3.02915,16.02492,1.67054,24.21479-2.63808,15.90276-9.12644,29.82225-20.26147,40.71295-12.80489,12.524-27.9099,19.58963-45.49674,20.462a80.95468,80.95468,0,0,1-41.12514-8.356,30.4458,30.4458,0,0,1-4.96708-3.36478c-17.72492-13.88354-28.02513-32.61292-31.69-55.7407-1.863-11.75663-2.86142-23.548-1.21257-35.38917,1.18184-8.48741,3.73227-16.49579,12.50844-19.08243a24.856,24.856,0,0,1,11.24685-.38965c4.75129.88172,7.03239,5.73691,6.19647,11.35618-.658,4.423-.92207,8.99448-2.18677,13.21509-2.43926,8.14037-1.01818,16.08493.90066,23.77616,2.01693,8.08437,4.35233,16.38239,8.223,23.54485a79.1336,79.1336,0,0,0,15.39023,20.23882c10.57763,9.78642,23.23727,9.86676,35.67337,4.3548,12.21416-5.41362,22.18231-14.01365,27.57956-27.4357a50.08452,50.08452,0,0,0,.78224-35.48526c-3.666-10.91834-15.18015-14.88521-24.57967-9.0029A26.11757,26.11757,0,0,0,234.394,259.64607c-.721,2.71247,1.97239,6.612,3.43,9.80487,1.175,2.5737,3.18662,4.73745,4.19517,7.36269a12.622,12.622,0,0,1-5.15888,15.802c-6.14974,3.96861-13.488,3.03277-18.60972-2.37334-12.33555-13.02051-15.54532-34.46831-6.61977-49.74234,7.41507-12.68918,16.73664-23.42213,31.37751-26.5954a12.1107,12.1107,0,0,1,2.15737-.47118C247.49855,213.37236,249.83352,213.4106,252.16768,213.4106Z" transform="translate(-15.21994 -97.34899)"/><path class="cls-1" d="M174.73312,166.99238c-.19423-16.94256,4.5476-32.16933,15.49753-44.3419,11.96834-13.30467,26.509-21.95837,44.11605-23.58427,3.37417-.31159,6.81173-1.55475,10.08016-1.12955,8.56821,1.11468,17.33311,1.95134,25.52438,4.638,17.56815,5.76225,31.35363,17.64076,41.757,33.79556A28.60735,28.60735,0,0,1,314.197,163.809a12.885,12.885,0,0,1-13.1753,8.2025c-5.53055-.33264-9.84759-2.35787-11.76483-8.72844a86.35887,86.35887,0,0,0-6.15577-16.01613c-5.91316-10.99-14.98671-17.71044-26.80317-19.20079-16.32065-2.05844-31.3214,1.51683-43.66852,13.94739-4.13055,4.15846-6.39216,9.60457-7.71822,15.49318-2.25194,10-1.45252,19.68421,2.99982,28.81091a21.88974,21.88974,0,0,0,4.86086,5.8032c3.10852,2.96414,6.57777,5.50462,9.59463,8.56466a11.608,11.608,0,0,1-.53752,16.75441c-6.20529,5.78115-13.27569,6.31912-21.5225,1.577-11.41375-6.56327-18.95057-16.6367-22.39772-29.92489-1.85667-7.15714-2.74686-14.603-4.07313-21.91861Z" transform="translate(-15.21994 -97.34899)"/><path class="cls-2" d="M257.57245,374.8077q34.07905,0,68.15808.01739a11.03611,11.03611,0,0,1,10.61763,8.65728c1.2177,4.8521-.87817,10.44184-5.18818,12.77124a13.03681,13.03681,0,0,1-5.99384,1.46874q-68.15779.10138-136.31582-.00377c-6.868-.01-11.39136-4.89394-11.25826-11.70163a11.07519,11.07519,0,0,1,11.45387-11.18456q34.26321-.03929,68.52652-.0101Z" transform="translate(-15.21994 -97.34899)"/><path class="cls-2" d="M354.53887,159.41759c11.30047.0031,18.52515,7.64183,18.50751,19.56813-.01657,11.20974-7.95408,19.89456-18.375,19.70177-10.2044-.18876-19.43974-7.35409-19.45266-19.99117C335.20807,168.32983,344.895,158.425,354.53887,159.41759Z" transform="translate(-15.21994 -97.34899)"/></svg>