<svg height="512" viewBox="0 0 46 60" width="512" xmlns="http://www.w3.org/2000/svg"><g id="036---Flare-Trousers" fill="none"><g id="Blues" transform="translate(1 1)"><path id="Shape" d="m42 58h-40c-.6378927-.0015-1.23680687-.3071971-1.61223327-.8229145-.37542641-.5157173-.48232631-1.1795858-.28776673-1.7870855l6.71-21.8c.12783345-.3905293.19198694-.7990857.19-1.21v-30.38c0-1.1045695.8954305-2 2-2h26c1.1045695 0 2 .8954305 2 2v30.38c-.0019869.4109143.0621666.8194707.19 1.21l1.43 4.66c.1.33.2.65.3 1l2 6.66 2.93 9.53c.1732723.592683.0630571 1.2321716-.2986213 1.7326564-.3616785.5004849-.9342612.8058407-1.5513787.8273436z" fill="#e8edfc"/><g fill="#cad9fc"><path id="Shape" d="m42 58h-3c.6378927-.0015 1.2368069-.3071971 1.6122333-.8229145.3754264-.5157173.4823263-1.1795858.2877667-1.7870855l-.74-2.39-1.63-5.3-4.34-14.11c-.1278334-.3905293-.1919869-.7990857-.19-1.21v-30.38c0-1.1045695-.8954305-2-2-2h3c1.1045695 0 2 .8954305 2 2v30.38c-.0019869.4109143.0621666.8194707.19 1.21l3.59 11.66 1.62 5.25 1.5 4.89c.1945596.6074997.0876597 1.2713682-.2877667 1.7870855-.3754264.5157174-.9743406.8214145-1.6122333.8229145z"/><path id="Shape" d="m10.89 35c-.63 4.17-3.57 5.48-5.16 2.13 1.36-4.45 1.27-3.88 1.27-5.26.39537914.0980658.80341848.1351603 1.21.11.66507344 1.1881694 1.57931648 2.2183985 2.68 3.02z"/><path id="Shape" d="m36 42c-.0049864.0765856-.0049864.1534144 0 .23-.7357004.4168313-1.4089875.9352623-2 1.54-.3201541.3116638-.6175813.6458517-.89 1-1.84-.47-3.11-1.54-3.11-2.77s1.27-2.3 3.1-2.8c.2724187.3541483.5698459.6883362.89 1 .5910125.6047377 1.2642996 1.1231687 2 1.54-.0030499.0867946.0002925.173696.01.26z"/><path id="Shape" d="m42.4 50.5-.13.6c-.58 1.23-1.35 1.83-2.11 1.89-1.32.12-2.66-1.39-3-4 .5116597-.3784228.9870377-.8035848 1.42-1.27.4599072-.5246992.8560035-1.1020598 1.18-1.72.3874456.0306114.7772206-.0100608 1.15-.12h.06z"/><path id="Shape" d="m37 6v6h-4c-2.7614237 0-5-2.23857625-5-5v-1z"/></g><path id="Shape" d="m34 6v6h-1c-2.7614237 0-5-2.23857625-5-5v-1z" fill="#e8edfc"/><path id="Shape" d="m16 6v1c0 1.32608245-.5267842 2.59785201-1.4644661 3.5355339-.9376819.9376819-2.2094515 1.4644661-3.5355339 1.4644661h-4v-6z" fill="#cad9fc"/><path id="Shape" d="m13 6v1c0 2.76142375-2.2385763 5-5 5h-1v-6z" fill="#e8edfc"/><path id="Shape" d="m20 6h-13v-4c0-1.1045695.8954305-2 2-2h11c-1.6568542.00000002-3 1.34314577-3 3s1.3431458 2.99999998 3 3z" fill="#cad9fc"/><path id="Shape" d="m37 2v4h-13c1.6568542-.00000002 3-1.34314577 3-3s-1.3431458-2.99999998-3-3h11c1.1045695 0 2 .8954305 2 2z" fill="#cad9fc"/><path id="Shape" d="m27 3c0 1.65685425-1.3431458 3-3 3h-4c-1.6568542 0-3-1.34314575-3-3s1.3431458-3 3-3h4c.7956495 0 1.5587112.31607052 2.1213203.87867966.5626092.56260913.8786797 1.32567087.8786797 2.12132034z" fill="#cad9fc"/><path id="Shape" d="m24 3c0 1.65685425-1.3431458 3-3 3h-1c-1.6568542 0-3-1.34314575-3-3s1.3431458-3 3-3h1c.7956495 0 1.5587112.31607052 2.1213203.87867966.5626092.56260913.8786797 1.32567087.8786797 2.12132034z" fill="#e8edfc"/><path id="Shape" d="m18 28c0 1.23-1.27 2.3-3.1 2.8-.2724187-.3541483-.5698459-.6883362-.89-1-.5910125-.6047377-1.2642996-1.1231687-2-1.54.0133333-.1530435.0133333-.3069565 0-.46.7357004-.4168313 1.4089875-.9352623 2-1.54.3201541-.3116638.6175813-.6458517.89-1 1.83.44 3.1 1.51 3.1 2.74z" fill="#cad9fc"/><path id="Shape" d="m15 25.11-.07.09c-.2724187.3541483-.5698459.6883362-.89 1-.5910125.6047377-1.2642996 1.1231687-2 1.54-.0790853-1.3848695-.8700037-2.6299037-2.09-3.29-.53328348-.2746123-1.12055815-.4282597-1.72-.45.41683128-.7357004.93526233-1.4089875 1.54-2 .34732-.3613715.7217431-.6956778 1.12-1 1.89-1.4 3.92-1.78 4.89-.81s.59 3.03-.78 4.92z" fill="#e8edfc"/><path id="Shape" d="m10.89 21c-1.09125207.7979951-1.99837642 1.8210677-2.66 3h-.23c-.33762094-.0011655-.673899.0425506-1 .13v-6.82c.29628265-.1979862.64368092-.3056797 1-.31 1.38 0 2.54 1.71 2.89 4z" fill="#cad9fc"/><path id="Shape" d="m15.78 35.78c-1 1-3 .59-4.89-.81-.3982569-.3043222-.77268-.6386285-1.12-1-.60473767-.5910125-1.12316872-1.2642996-1.54-2 2.0223155-.1123801 3.6414668-1.7186468 3.77-3.74.7357004.4168313 1.4089875.9352623 2 1.54.3201541.3116638.6175813.6458517.89 1l.07.09c1.41 1.92 1.79 3.95.82 4.92z" fill="#e8edfc"/><path id="Shape" d="m38.62 38.25c-1.4964083.5468556-2.5256084 1.9295978-2.62 3.52-1.1760756-.665631-2.1983683-1.5720639-3-2.66-1.4-1.89-1.78-3.92-.81-4.89 1.35-1.35 4.11 0 5.59 1.38z" fill="#e8edfc"/><path id="Shape" d="m39.76 46c-.2399659.4531459-.5283147.8789633-.86 1.27-.5246022.6468478-1.125649 1.2277478-1.79 1.73-1.89 1.4-3.92 1.78-4.89.81s-.59-3 .81-4.89c.8009599-1.0885496 1.8233958-1.9951094 3-2.66.1263957 2.0070595 1.7232862 3.6082311 3.73 3.74z" fill="#e8edfc"/><path id="Shape" d="m38.07 45.5h-.07" fill="#fb7b76"/><path id="Shape" d="m12 28c-.023325.7739771-.2473061 1.528621-.65 2.19-.3778645.5757634-.8979831 1.0442146-1.51 1.36-.56845803.2951553-1.19948388.4494822-1.84.45-.33739898-.0022225-.67324734-.0458828-1-.13v-7.74c.32519603-.0919363.66210673-.1357347 1-.13 2.209139 0 4 1.790861 4 4z" fill="#e8edfc"/><path id="Shape" d="m41 45.86h-.06c-2.0412129.4424301-4.0792232-.7600846-4.6789006-2.7607549-.5996773-2.0006703.4408671-4.1259456 2.3889006-4.8792451.1.33.2.65.3 1z" fill="#e8edfc"/><path id="Shape" d="m40.97 45.88-2.35-7.63" fill="#fb7b76"/></g><path id="Shape" d="m4.1 55.39c7.39-24 6.78-22 6.84-22.36s.06 1.34.06-31.03c0-1.1045695.8954305-2 2-2h-3c-1.1045695 0-2 .8954305-2 2 0 32.37 0 30.59-.06 31s.55-1.65-6.84 22.36c-.2064672.6112762-.10535987 1.2846123.27153092 1.8082921.3768908.5236799.98326797.8333748 1.62846908.8317079h3c-.6378927-.0015-1.23680687-.3071971-1.61223327-.8229145-.37542641-.5157173-.48232631-1.1795858-.28776673-1.7870855z" fill="#fff" transform="translate(0 1)"/><path id="Rectangle-path" d="m-1.716 51.567h8v2h-8z" fill="#fff" transform="matrix(.294 -.956 .956 .294 -48.629 39.284)"/><g fill="#428dff"><path id="Shape" d="m2.29 53.57c-.55228475 0-1-.4477153-1-1s.44771525-1 1-1 1 .4477153 1 1-.44771525 1-1 1z"/><path id="Shape" d="m39.14 34.27c-.2-.59-.14 2-.14-31.27 0-1.65685425-1.3431458-3-3-3h-26c-1.65685425 0-3 1.34314575-3 3 0 29.88.07 31.36-.15 31.3l-4.35 14.15c-.11829999.3448934-.03950503.7268382.20562992.9967552.24513494.269917.61775034.3850181.97240833.3003774.35465798-.0846406.63513709-.3556055.73196175-.7071326l2.7-8.78c1.73 1.45 4.3.85 5.43-2.72 4.4 2.3 7.35-.87 4.88-5.24 3.45-1.61 3.44-5 0-6.6 2.47-4.37-.49-7.54-4.88-5.24-.67-2.11-1.99-3.46-3.54-3.46v-3h3c3.3137085 0 6-2.6862915 6-6h10c0 3.3137085 2.6862915 6 6 6h3c0 21.23 0 19.59.09 20.27-4.19-1.92-6.9 1.18-4.51 5.43-3.44 1.61-3.45 5 0 6.6-2.45 4.34.45 7.56 4.88 5.24 1.18 3.72 3.92 4.24 5.67 2.5l.87 2.66c.0983996.3116604.038293.6517384-.1609758.9107878-.1992688.2590495-.5125511.4043769-.8390242.3892122h-19v-43c0-.5522847-.4477153-1-1-1s-1 .4477153-1 1v43h-19c-.31774227-.0012509-.61597969-.1534314-.80345436-.4099757-.18747466-.2565442-.24187152-.5869159-.14654564-.8900243.14756759-.5170805-.14019308-1.0582834-.65139004-1.225095-.51119696-.1668117-1.06278789.1004975-1.24860996.605095-.29380338.9118871-.13440653 1.9092574.42897343 2.684152.56337996.7748945 1.46297881 1.2341078 2.42102657 1.235848h40c.9549901-.0005785 1.852651-.4557995 2.4173976-1.2259085.5647465-.7701089.7290997-1.7630889.4426024-2.6740915zm-2.14-31.27v3h-8.56c.7492691-1.22807006.7492691-2.77192994 0-4h7.56c.5522847 0 1 .44771525 1 1zm-27-1h7.56c-.7492691 1.22807006-.7492691 2.77192994 0 4h-8.56v-3c0-.55228475.44771525-1 1-1zm-1 37c-.39 0-.83-.39-1.19-1l1-3.11c.05721066-.1804868.10395508-.3641256.14-.55.53619459.7494499 1.1720481 1.4223108 1.89 2-.42 1.66-1.21 2.66-1.84 2.66zm7.07-2.93c-.48.49-2 .28-3.59-.9-.5984586-.4410667-1.1363926-.9588282-1.6-1.54 1.2502137-.5079994 2.2420006-1.4997863 2.75-2.75.5859151.4622102 1.1042739 1.0041308 1.54 1.61 1.18 1.59 1.39 3.1.9 3.58zm1.93-7.07c0 .59-.7 1.22-1.76 1.63-.5248167-.6101117-1.1188066-1.1571194-1.77-1.63.6511934-.4728806 1.2451833-1.0198883 1.77-1.63 1.06.41 1.76 1.04 1.76 1.63zm-1.93-7.07c.83.83-.52 4.31-3.56 6-.3548431.2003283-.5526432.5959286-.5 1 0 0-.01.07-.01.07 0 1.6568542-1.3431458 3-3 3v-6c.52462662-.0066799 1.0418315.1243453 1.5.38.3099891.1970594.703062.2083077 1.0238128.0292979.3207509-.1790099.5175425-.5194594.5125711-.886748s-.2109055-.702287-.5363839-.8725499c-.2013459-.1117012-.4121652-.2053987-.63-.28.4623257-.5950597 1.0079237-1.1204504 1.62-1.56 1.59-1.16 3.1-1.37 3.58-.88zm-5.28-.3c-.679217.5501469-1.28128939 1.1892182-1.79 1.9v-4.53c.63 0 1.42 1 1.79 2.63zm1.21-9.63h-3v-4h7c0 2.209139-1.790861 4-4 4zm9-6c-1.1045695 0-2-.8954305-2-2s.8954305-2 2-2h4c1.1045695 0 2 .8954305 2 2s-.8954305 2-2 2zm13 6c-2.209139 0-4-1.790861-4-4h7v4zm-.07 23.93c.48-.49 2-.28 3.59.9l.42.35.48 1.55c-.92126.5525152-1.6400786 1.3870461-2.05 2.38-.5835892-.4571258-1.1017477-.9921076-1.54-1.59-1.18-1.6-1.38-3.11-.9-3.59zm-1.93 7.07c0-.59.7-1.22 1.76-1.63.528515.6101336 1.1258159 1.1571002 1.78 1.63-.6597508.4621819-1.2579036 1.0065682-1.78 1.62-1.06-.4-1.76-1.03-1.76-1.62zm1.93 7.07c-.83-.83.52-4.31 3.56-6 .3587021-.197481.5607682-.5936891.51-1-.0051687-.0932618-.0051687-.1867382 0-.28.0400103-.802469.4002419-1.5553529 1-2.09l1.65 5.3c-.4054322-.039433-.7976374-.1656208-1.15-.37-.2305237-.133545-.5048063-.1695837-.7620037-.1001217-.2571973.0694621-.4760451.238682-.6079963.4701217-.2713883.4779792-.1061364 1.0853915.37 1.36.1940395.1178826.3981766.218278.61.3-.4530613.590689-.992434 1.1098353-1.6 1.54-1.59 1.15-3.1 1.36-3.58.87zm8.44 1.6c-.37.82-.91 1.33-1.37 1.33-.63 0-1.42-1-1.79-2.63.8076074-.6588663 1.5091332-1.4379647 2.08-2.31 1.22 3.94 1.12 3.51 1.08 3.61z"/></g></g></svg>