<?xml version="1.0" encoding="iso-8859-1"?>
<!-- Generator: Adobe Illustrator 19.0.0, SVG Export Plug-In . SVG Version: 6.00 Build 0)  -->
<svg version="1.1" id="Capa_1" xmlns="http://www.w3.org/2000/svg" xmlns:xlink="http://www.w3.org/1999/xlink" x="0px" y="0px"
	 viewBox="0 0 480.059 480.059" style="enable-background:new 0 0 480.059 480.059;" xml:space="preserve">
<g>
	
		<linearGradient id="SVGID_1_" gradientUnits="userSpaceOnUse" x1="-34.8247" y1="561.8394" x2="-34.8247" y2="622.2264" gradientTransform="matrix(8 0 0 -8 454.6374 4941.3726)">
		<stop  offset="0" style="stop-color:#006DF0"/>
		<stop  offset="1" style="stop-color:#00E7F0"/>
	</linearGradient>
	<path style="fill:url(#SVGID_1_);" d="M106.22,301.897c11.27,6.317,23.361,11.041,35.928,14.04h0.048
		c11.075,2.746,22.445,4.124,33.856,4.104c15.426,0.03,30.753-2.458,45.376-7.368c12.295-4.059,23.97-9.796,34.696-17.048
		c66.096-44.229,83.822-133.665,39.593-199.761S162.052,12.042,95.956,56.271S12.134,189.936,56.363,256.032
		c12.736,19.033,29.828,34.753,49.857,45.857L106.22,301.897z M114.028,287.929c-61.847-34.24-84.227-112.134-49.987-173.981
		s112.134-84.227,173.981-49.987s84.227,112.134,49.987,173.981c-9.873,17.834-23.863,33.052-40.805,44.387
		c-9.505,6.432-19.853,11.517-30.752,15.112h-0.08c-22.699,7.533-47.056,8.55-70.304,2.936h-0.088
		c-11.173-2.661-21.924-6.858-31.944-12.472L114.028,287.929z"/>
	
		<linearGradient id="SVGID_2_" gradientUnits="userSpaceOnUse" x1="-34.8232" y1="561.8394" x2="-34.8232" y2="622.2264" gradientTransform="matrix(8 0 0 -8 454.6374 4941.3726)">
		<stop  offset="0" style="stop-color:#006DF0"/>
		<stop  offset="1" style="stop-color:#00E7F0"/>
	</linearGradient>
	<path style="fill:url(#SVGID_2_);" d="M176.052,248.041c-17.673,0-32-14.327-32-32h-16c0.043,23.397,16.934,43.361,40,47.28v16.72
		h16v-16.72c26.112-4.572,43.575-29.446,39.003-55.559c-4.003-22.863-23.792-39.587-47.003-39.721c-17.673,0-32-14.327-32-32
		s14.327-32,32-32s32,14.327,32,32h16c-0.043-23.397-16.934-43.361-40-47.28v-16.72h-16v16.72
		c-26.112,4.572-43.575,29.446-39.003,55.559c4.003,22.863,23.792,39.587,47.003,39.721c17.673,0,32,14.327,32,32
		S193.725,248.041,176.052,248.041z"/>
</g>
<g>
	
		<linearGradient id="SVGID_3_" gradientUnits="userSpaceOnUse" x1="-26.826" y1="561.8394" x2="-26.826" y2="622.2264" gradientTransform="matrix(8 0 0 -8 454.6374 4941.3726)">
		<stop  offset="0" style="stop-color:#006DF0"/>
		<stop  offset="1" style="stop-color:#00E7F0"/>
	</linearGradient>
	<path style="fill:url(#SVGID_3_);" d="M345.564,129.249C319.754,35.582,222.899-19.427,129.232,6.382
		S-19.444,129.046,6.365,222.714c11.548,41.911,38.205,78.061,74.831,101.48c-24.433,56.59,1.634,122.272,58.224,146.706
		c14.09,6.084,29.284,9.196,44.632,9.142c39.915,0.142,76.85-21.1,96.8-55.672c15.223,5.06,31.158,7.651,47.2,7.672
		c83.89,0.062,151.946-67.895,152.007-151.785C480.116,203.057,422.256,138.093,345.564,129.249L345.564,129.249z M16.052,176.041
		C16.06,87.676,87.701,16.048,176.067,16.056c73.852,0.007,138.105,50.56,155.489,122.337c3.015,12.322,4.524,24.963,4.496,37.648
		c-0.028,52.146-25.466,101.007-68.168,130.936c-2.576,1.848-5.352,3.48-8.08,5.176c-5.899,3.732-12.046,7.054-18.4,9.944
		c-10.542,4.739-21.574,8.305-32.896,10.632c-3.704,0.76-7.432,1.376-11.16,1.856l-0.312,0.04
		c-6.953,0.959-13.965,1.432-20.984,1.416C87.686,336.041,16.052,264.407,16.052,176.041L16.052,176.041z M184.052,464.041
		c-52.856,0.163-95.835-42.553-95.998-95.409c-0.039-12.513,2.377-24.912,7.11-36.495c7.28,3.867,14.824,7.214,22.576,10.016
		c18.744,6.549,38.457,9.892,58.312,9.888c5.933-0.023,11.862-0.356,17.76-1c11.865,22.449,29.147,41.58,50.28,55.656
		c3.088,2.056,6.24,3.944,9.432,5.752l2.568,1.416c2.789,1.509,5.611,2.923,8.464,4.24c0.368,0.168,0.72,0.384,1.088,0.552
		C248.214,446.971,217.3,464.166,184.052,464.041L184.052,464.041z M328.052,416.041c-16.488,0.042-32.842-2.96-48.24-8.856
		c-9.454-3.554-18.465-8.187-26.856-13.808c-3.897-2.621-7.657-5.441-11.264-8.448c-0.616-0.504-1.24-1-1.848-1.512
		c-3.4-2.912-6.648-5.992-9.744-9.208c-0.608-0.64-1.208-1.296-1.808-1.944c-3.107-3.316-6.044-6.787-8.8-10.4
		c-0.272-0.36-0.52-0.744-0.8-1.104c-2.624-3.552-5.069-7.232-7.336-11.04c-0.216-0.368-0.448-0.72-0.656-1.08
		c0.176,0,0.352-0.088,0.536-0.12c0.8-0.168,1.6-0.376,2.4-0.552c2.928-0.635,5.845-1.347,8.752-2.136
		c1.216-0.328,2.4-0.688,3.64-1.048c2.608-0.773,5.205-1.613,7.792-2.52c1.12-0.392,2.248-0.76,3.36-1.176
		c3.608-1.344,7.2-2.768,10.736-4.352c5.184-2.32,10.24-4.888,15.112-7.672c3.888-2.224,7.584-4.696,11.2-7.2
		c0.912-0.624,1.92-1.16,2.816-1.8l0.064-0.04c55.82-39.122,83.976-106.998,72.24-174.144
		c74.126,11.932,124.544,81.695,112.612,155.82C451.372,367.479,394.675,415.89,328.052,416.041L328.052,416.041z"/>
	
		<linearGradient id="SVGID_4_" gradientUnits="userSpaceOnUse" x1="-36.5992" y1="561.8394" x2="-36.5992" y2="622.2264" gradientTransform="matrix(8 0 0 -8 454.6374 4941.3726)">
		<stop  offset="0" style="stop-color:#006DF0"/>
		<stop  offset="1" style="stop-color:#00E7F0"/>
	</linearGradient>
	<path style="fill:url(#SVGID_4_);" d="M184.052,432.041c-35.33-0.04-63.96-28.67-64-64h-16c0.049,44.163,35.837,79.952,80,80
		c12.351,0.033,24.538-2.828,35.584-8.352l-7.128-14.32C203.672,429.781,193.928,432.066,184.052,432.041z"/>
	
		<linearGradient id="SVGID_5_" gradientUnits="userSpaceOnUse" x1="-15.8232" y1="561.8394" x2="-15.8232" y2="622.2264" gradientTransform="matrix(8 0 0 -8 454.6374 4941.3726)">
		<stop  offset="0" style="stop-color:#006DF0"/>
		<stop  offset="1" style="stop-color:#00E7F0"/>
	</linearGradient>
	<path style="fill:url(#SVGID_5_);" d="M320.052,368.041h16v32h-16V368.041z"/>
</g>
<linearGradient id="SVGID_6_" gradientUnits="userSpaceOnUse" x1="-48.7229" y1="570.0084" x2="3.5771" y2="600.1954" gradientTransform="matrix(3.9994 -6.9286 -6.9286 -3.9994 4420.2461 2388.7617)">
	<stop  offset="0" style="stop-color:#006DF0"/>
	<stop  offset="1" style="stop-color:#00E7F0"/>
</linearGradient>
<path style="fill:url(#SVGID_6_);" d="M261.124,379.968l15.997-27.714l13.857,7.999l-15.997,27.714L261.124,379.968z"/>
<linearGradient id="SVGID_7_" gradientUnits="userSpaceOnUse" x1="-23.6186" y1="562.3828" x2="6.5764" y2="614.6829" gradientTransform="matrix(6.9281 -4.0002 -4.0002 -6.9281 2793.3523 4248.4668)">
	<stop  offset="0" style="stop-color:#006DF0"/>
	<stop  offset="1" style="stop-color:#00E7F0"/>
</linearGradient>
<path style="fill:url(#SVGID_7_);" d="M365.123,360.269l13.856-8l16.001,27.712l-13.856,8L365.123,360.269z"/>
<linearGradient id="SVGID_8_" gradientUnits="userSpaceOnUse" x1="-35.0817" y1="572.3857" x2="17.2173" y2="602.5807" gradientTransform="matrix(4.0002 -6.9281 -6.9281 -4.0002 4523.9819 2493.3135)">
	<stop  offset="0" style="stop-color:#006DF0"/>
	<stop  offset="1" style="stop-color:#00E7F0"/>
</linearGradient>
<path style="fill:url(#SVGID_8_);" d="M400.26,330.996l8-13.856l27.712,16.001l-8,13.856L400.26,330.996z"/>
<linearGradient id="SVGID_9_" gradientUnits="userSpaceOnUse" x1="-2.8232" y1="561.8394" x2="-2.8232" y2="622.2264" gradientTransform="matrix(8 0 0 -8 454.6374 4941.3726)">
	<stop  offset="0" style="stop-color:#006DF0"/>
	<stop  offset="1" style="stop-color:#00E7F0"/>
</linearGradient>
<path style="fill:url(#SVGID_9_);" d="M416.052,272.041h32v16h-32V272.041z"/>
<linearGradient id="SVGID_10_" gradientUnits="userSpaceOnUse" x1="-27.734" y1="564.7615" x2="2.455" y2="617.0635" gradientTransform="matrix(6.9286 -3.9994 -3.9994 -6.9286 2868.959 4248.7495)">
	<stop  offset="0" style="stop-color:#006DF0"/>
	<stop  offset="1" style="stop-color:#00E7F0"/>
</linearGradient>
<path style="fill:url(#SVGID_10_);" d="M400.258,229.115l27.714-15.997l7.999,13.857l-27.714,15.997L400.258,229.115z"/>
<linearGradient id="SVGID_11_" gradientUnits="userSpaceOnUse" x1="-55.2219" y1="581.2681" x2="-2.9239" y2="611.4571" gradientTransform="matrix(3.9994 -6.9286 -6.9286 -3.9994 4628.2622 2388.7458)">
	<stop  offset="0" style="stop-color:#006DF0"/>
	<stop  offset="1" style="stop-color:#00E7F0"/>
</linearGradient>
<path style="fill:url(#SVGID_11_);" d="M365.128,199.831l15.997-27.714l13.857,7.999l-15.997,27.714L365.128,199.831z"/>
<g>
</g>
<g>
</g>
<g>
</g>
<g>
</g>
<g>
</g>
<g>
</g>
<g>
</g>
<g>
</g>
<g>
</g>
<g>
</g>
<g>
</g>
<g>
</g>
<g>
</g>
<g>
</g>
<g>
</g>
</svg>
