<svg id="Capa_1" enable-background="new 0 0 266.557 266.557" height="512" viewBox="0 0 266.557 266.557" width="512" xmlns="http://www.w3.org/2000/svg" xmlns:xlink="http://www.w3.org/1999/xlink"><linearGradient id="lg1"><stop offset="0" stop-color="#20d6de"/><stop offset="1" stop-color="#5e309d"/></linearGradient><linearGradient id="SVGID_1_" gradientTransform="matrix(1 0 0 -1 0 306.609)" gradientUnits="userSpaceOnUse" x1="-4.443" x2="260.071" xlink:href="#lg1" y1="173.33" y2="173.33"/><linearGradient id="SVGID_2_" gradientTransform="matrix(1 0 0 -1 0 306.609)" gradientUnits="userSpaceOnUse" x1="-4.443" x2="260.071" xlink:href="#lg1" y1="234.943" y2="234.943"/><linearGradient id="SVGID_3_" gradientTransform="matrix(1 0 0 -1 0 306.609)" gradientUnits="userSpaceOnUse" x1="-4.443" x2="260.071" xlink:href="#lg1" y1="235.527" y2="235.527"/><linearGradient id="SVGID_4_" gradientTransform="matrix(1 0 0 -1 0 306.609)" gradientUnits="userSpaceOnUse" x1="-4.454" x2="260.059" xlink:href="#lg1" y1="235.527" y2="235.527"/><linearGradient id="SVGID_6_" gradientTransform="matrix(1 0 0 -1 0 306.609)" gradientUnits="userSpaceOnUse" x1="-4.443" x2="260.071" xlink:href="#lg1" y1="168.888" y2="168.888"/><linearGradient id="SVGID_7_" gradientTransform="matrix(1 0 0 -1 0 306.609)" gradientUnits="userSpaceOnUse" x1="-4.443" x2="260.071" xlink:href="#lg1" y1="137.789" y2="137.789"/><linearGradient id="SVGID_10_" gradientTransform="matrix(1 0 0 -1 0 306.609)" gradientUnits="userSpaceOnUse" x1="-4.443" x2="260.071" xlink:href="#lg1" y1="120.019" y2="120.019"/><linearGradient id="SVGID_11_" gradientTransform="matrix(1 0 0 -1 0 306.609)" gradientUnits="userSpaceOnUse" x1="-4.443" x2="260.071" xlink:href="#lg1" y1="102.248" y2="102.248"/><path d="m239.902 4.443c0-2.454-1.989-4.443-4.443-4.443h-204.361c-17.167.02-31.078 13.931-31.098 31.098v213.246c.015 12.262 9.951 22.198 22.213 22.213h213.246c2.454 0 4.443-1.989 4.443-4.443v-106.622h17.77v-26.656h-17.77v-8.885h26.656v-26.656h-26.656v-8.885h17.77v-26.656h-17.77v-8.885h26.656v-26.656h-26.656zm-231.017 179.868v-6.606c-.299-4.608 3.194-8.586 7.802-8.885.361-.023.723-.023 1.084 0v-8.885c-3.098-.05-6.157.695-8.885 2.164v-99.902c-.299-4.608 3.194-8.586 7.802-8.885.361-.023.723-.023 1.084 0v-8.885c-3.098-.05-6.157.695-8.885 2.164v-15.493c.012-10.551 7.433-19.643 17.769-21.768v212.802h-4.443c-4.822.016-9.505 1.618-13.328 4.558v-26.771c-.299-4.608 3.194-8.586 7.802-8.885.361-.023.723-.023 1.084 0v-8.885c-3.098-.052-6.158.693-8.886 2.162zm71.082 73.361h-57.754c-7.361 0-13.328-5.967-13.328-13.328s5.967-13.328 13.328-13.328h17.77v8.885h-22.213v8.885h22.213v4.443c-.013 2.454 1.965 4.453 4.418 4.467.698.004 1.386-.157 2.01-.469l15.785-7.917 15.785 7.917c2.195 1.097 4.863.207 5.96-1.988.312-.624.472-1.313.469-2.01v-4.443h146.607v8.885h-151.05zm151.049-26.656v8.885h-146.606v-8.885zm-182.147 0h26.656v15.025l-11.342-5.673c-1.25-.625-2.722-.625-3.972 0l-11.342 5.673zm199.918-93.295v8.885h-8.885v-8.885zm8.885-35.541v8.885h-17.77v-8.885zm-8.885-35.541v8.885h-8.885v-8.885zm-17.771 155.492h-195.475v-213.246h195.475zm26.656-191.033v8.885h-17.77v-8.885z" fill="url(#SVGID_1_)"/><path d="m106.623 44.426h-17.77c-2.004 0-3.76 1.341-4.287 3.274l-13.329 48.869 8.574 2.337 5.162-18.939h25.527l5.162 18.939 8.574-2.337-13.326-48.869c-.527-1.933-2.283-3.274-4.287-3.274zm-19.223 26.656 4.847-17.77h10.982l4.847 17.77z" fill="url(#SVGID_2_)"/><path d="m128.836 66.639h22.213v8.885h-22.213z" fill="url(#SVGID_3_)"/><path d="m194.671 51.414c1.406-2.011.916-4.781-1.095-6.187-.746-.521-1.633-.801-2.543-.802h-35.541v8.885h27.011l-26.211 37.438c-1.406 2.011-.916 4.781 1.095 6.187.747.522 1.636.802 2.548.802h35.541v-8.885h-27.011z" fill="url(#SVGID_4_)"/><path d="m53.311 115.508h159.934v-88.852h-159.934zm8.886-79.967h142.164v71.082h-142.164z" fill="url(#SVGID_3_)"/><path d="m75.525 151.049h115.508v-26.656h-115.508zm8.885-17.77h97.738v8.885h-97.738z" fill="url(#SVGID_6_)"/><g fill="url(#SVGID_7_)"><path d="m66.639 164.377h17.77v8.885h-17.77z"/><path d="m93.295 164.377h79.967v8.885h-79.967z"/><path d="m182.148 164.377h17.77v8.885h-17.77z"/></g><path d="m57.754 182.148h151.049v8.885h-151.049z" fill="url(#SVGID_10_)"/><path d="m57.754 199.918h151.049v8.885h-151.049z" fill="url(#SVGID_11_)"/></svg>