<svg xmlns="http://www.w3.org/2000/svg" viewBox="0 0 154.28571 154.28571"><defs><style>.cls-1{fill:#c4bf1e;}.cls-2{fill:#e58f48;}.cls-3{fill:#d3752f;}.cls-4{fill:#fcf05a;}.cls-5{fill:#66342e;}.cls-6{fill:#ffd782;}.cls-7{fill:#ad6327;}.cls-8{fill:#32b1cc;}.cls-9{fill:#f9bb4b;}</style></defs><title>conpre</title><g id="Layer_1" data-name="Layer 1"><circle class="cls-1" cx="77.14286" cy="77.14286" r="77.14286"/></g><g id="Layer_5" data-name="Layer 5"><g id="Filled_outline" data-name="Filled outline"><path class="cls-2" d="M55.4588,57.1501H99.71368v56.89914H55.4588Z" transform="translate(-0.44338 -0.55207)"/><path class="cls-3" d="M55.4588,57.1501h6.32212v56.89914H55.4588Z" transform="translate(-0.44338 -0.55207)"/><path class="cls-3" d="M93.39156,57.1501h6.32212v56.89914H93.39156Z" transform="translate(-0.44338 -0.55207)"/><circle class="cls-4" cx="77.14286" cy="73.98388" r="7.90266"/><path class="cls-5" d="M66.52252,84.01914h3.16106v31.61063H66.52252Z" transform="translate(-0.44338 -0.55207)"/><path class="cls-5" d="M72.84465,87.1802h3.16106v26.869H72.84465Z" transform="translate(-0.44338 -0.55207)"/><path class="cls-5" d="M85.4889,84.01914H88.65v31.61063H85.4889Z" transform="translate(-0.44338 -0.55207)"/><path class="cls-5" d="M79.16677,87.1802h3.16106v26.869H79.16677Z" transform="translate(-0.44338 -0.55207)"/><path class="cls-6" d="M66.52252,61.8917h3.16106v3.16106H66.52252Z" transform="translate(-0.44338 -0.55207)"/><path class="cls-6" d="M85.4889,61.8917H88.65v3.16106H85.4889Z" transform="translate(-0.44338 -0.55207)"/><path class="cls-7" d="M102.87474,57.1501h-50.577l-3.16107-9.48318h56.89914Z" transform="translate(-0.44338 -0.55207)"/><path class="cls-8" d="M57.03933,47.66692H53.87827V41.34479a1.58054,1.58054,0,0,1,1.02418-1.481L67.5467,35.12224l1.10638,2.96191-11.61375,4.356Z" transform="translate(-0.44338 -0.55207)"/><circle class="cls-9" cx="70.82073" cy="34.47059" r="3.16106"/><path class="cls-8" d="M101.29421,47.66692H98.13315V42.4401L86.51308,38.08415l1.10637-2.96191,12.64426,4.74159a1.58053,1.58053,0,0,1,1.0305,1.481Z" transform="translate(-0.44338 -0.55207)"/><circle class="cls-9" cx="83.46498" cy="34.47059" r="3.16106"/><path class="cls-7" d="M49.13667,114.04924h56.89914v9.48319H49.13667Z" transform="translate(-0.44338 -0.55207)"/><path d="M49.13667,112.46871a1.58053,1.58053,0,0,0-1.58053,1.58053v9.48319a1.58053,1.58053,0,0,0,1.58053,1.58053h56.89914a1.58053,1.58053,0,0,0,1.58053-1.58053v-9.48319a1.58053,1.58053,0,0,0-1.58053-1.58053h-4.7416V58.73064h1.58053a1.58055,1.58055,0,0,0,1.49835-1.08109l3.16106-9.48319a1.58053,1.58053,0,0,0-1.49834-2.08h-4.7416V41.34479a1.58054,1.58054,0,0,0-1.02418-1.481l-11.66748-4.367a4.52113,4.52113,0,0,0,.04741-.47416,4.74158,4.74158,0,1,0-1.383,3.34283L98.13315,42.4401v3.64628H57.03933V42.4401l10.86615-4.07461a4.74161,4.74161,0,1,0-1.383-3.34283,4.51886,4.51886,0,0,0,.04742.46626L54.90245,39.86383a1.58054,1.58054,0,0,0-1.02418,1.481v4.74159h-4.7416a1.58053,1.58053,0,0,0-1.49834,2.08l3.16106,9.48319a1.58055,1.58055,0,0,0,1.49835,1.08109h1.58053v53.73807Zm34.7717-75.86552a1.58053,1.58053,0,1,1,1.58053-1.58053A1.58053,1.58053,0,0,1,83.90837,36.60319ZM71.26411,33.44213a1.58053,1.58053,0,1,1-1.58053,1.58053A1.58054,1.58054,0,0,1,71.26411,33.44213ZM53.4373,55.56957l-2.10685-6.32212H103.842l-2.10685,6.32212Zm44.69585,3.16107v53.73807H94.97209V58.73064ZM85.4889,84.01914v28.44957H82.32783V87.1802H79.16677v25.28851H76.00571V87.1802H72.84465v25.28851H69.68358V84.01914H66.52252v28.44957H63.36146V58.73064H91.811v53.73807H88.65V84.01914ZM60.20039,58.73064v53.73807H57.03933V58.73064Zm44.25489,56.89913v6.32213H50.7172v-6.32213Z" transform="translate(-0.44338 -0.55207)"/><path d="M77.58624,65.05276A9.48319,9.48319,0,1,0,87.06943,74.536,9.48319,9.48319,0,0,0,77.58624,65.05276Zm0,15.80532A6.32213,6.32213,0,1,1,83.90837,74.536,6.32213,6.32213,0,0,1,77.58624,80.85808Z" transform="translate(-0.44338 -0.55207)"/><path d="M66.52252,61.8917h3.16106v3.16106H66.52252Z" transform="translate(-0.44338 -0.55207)"/><path d="M85.4889,61.8917H88.65v3.16106H85.4889Z" transform="translate(-0.44338 -0.55207)"/></g></g></svg>