<svg xmlns="http://www.w3.org/2000/svg" viewBox="0 0 154.28571 154.28571"><defs><style>.cls-1{fill:#770505;}.cls-2{fill:#f44336;}.cls-3{fill:#fdcc15;}.cls-4{fill:#d56826;}.cls-5{fill:#d32f2f;}.cls-6{fill:#ffe0b2;}.cls-7{fill:#ffcc80;}.cls-8{fill:#d15a18;}.cls-9{fill:#fff;}</style></defs><title>expert</title><g id="Layer_7" data-name="Layer 7"><circle class="cls-1" cx="77.14286" cy="77.14286" r="77.14286"/></g><g id="Layer_1" data-name="Layer 1"><path class="cls-2" d="M85.047,93.91137a15.40107,15.40107,0,0,1-9.58644,3.32838h0a15.40119,15.40119,0,0,1-9.3145-3.11612,28.45649,28.45649,0,0,0-18.86136,26.73883v2.727h57.23287v-2.727A28.46277,28.46277,0,0,0,85.047,93.91137Z" transform="translate(-0.44338 -0.55207)"/><polygon class="cls-3" points="39.783 42.073 42.73 48.007 49.321 48.959 44.552 53.579 45.678 60.101 39.783 57.022 33.887 60.101 35.013 53.579 30.244 48.959 36.835 48.007 39.783 42.073"/><path class="cls-4" d="M90.86947,68.58609H59.40856a4.37379,4.37379,0,0,1-4.38778-4.35994h0a6.81708,6.81708,0,0,1,6.83864-6.79526H85.14681a5.70439,5.70439,0,0,1,5.72247,5.68618v5.469Z" transform="translate(-0.44338 -0.55207)"/><polygon class="cls-3" points="111.514 41.834 114.462 47.768 121.053 48.72 116.284 53.339 117.41 59.862 111.514 56.783 105.619 59.862 106.745 53.339 101.976 48.72 108.567 47.768 111.514 41.834"/><polygon class="cls-3" points="75.017 29.94 77.965 35.875 84.556 36.827 79.787 41.446 80.912 47.969 75.017 44.889 69.122 47.969 70.248 41.446 65.478 36.827 72.07 35.875 75.017 29.94"/><path class="cls-5" d="M88.93238,95.54188a28.5429,28.5429,0,0,0-3.88518-1.63069,15.40107,15.40107,0,0,1-9.58644,3.32838h0a15.4012,15.4012,0,0,1-9.3145-3.11613A28.5375,28.5375,0,0,0,62.301,95.84013a19.27655,19.27655,0,0,0,26.63134-.29825Z" transform="translate(-0.44338 -0.55207)"/><path class="cls-6" d="M75.46057,97.23975h0a15.36,15.36,0,0,1-15.40871-15.311V68.58609H90.86947V81.92878A15.36029,15.36029,0,0,1,75.46057,97.23975Z" transform="translate(-0.44338 -0.55207)"/><rect class="cls-7" x="59.60867" y="68.0342" width="30.81799" height="3.79128"/><path class="cls-8" d="M90.86947,68.58609H59.40856a4.37379,4.37379,0,0,1-4.38778-4.35994H86.4817a4.3739,4.3739,0,0,1,4.38777,4.35994Z" transform="translate(-0.44338 -0.55207)"/><rect x="55.9763" y="114.31674" width="2.86162" height="8.72007"/><rect x="92.07686" y="114.31674" width="2.86161" height="8.72007"/><path d="M87.70884,93.39935a16.61572,16.61572,0,0,0,4.59134-11.47057h0V63.11744h0a7.13911,7.13911,0,0,0-7.15356-7.10819H61.85923a8.25261,8.25261,0,0,0-8.26935,8.2169,5.80191,5.80191,0,0,0,5.03088,5.72738V81.92878a16.62421,16.62421,0,0,0,4.85572,11.74286A29.95137,29.95137,0,0,0,45.854,120.86283v2.727h2.86161v-2.727A27.10138,27.10138,0,0,1,65.94269,95.72477a16.89088,16.89088,0,0,0,19.349-.21922,27.00186,27.00186,0,0,1,17.795,25.35709v2.727h2.86161v-2.727A29.83211,29.83211,0,0,0,87.70884,93.39935ZM56.4515,64.226a5.39673,5.39673,0,0,1,5.40773-5.37343H85.14662a4.28324,4.28324,0,0,1,4.292,4.26472v4.0472h-30.03A2.95126,2.95126,0,0,1,56.4515,64.226Zm19.00907,31.592h0A13.94984,13.94984,0,0,1,61.48238,81.9286V70.00773H89.43857V81.9286A13.94955,13.94955,0,0,1,75.46057,95.81792Z" transform="translate(-0.44338 -0.55207)"/><rect x="67.09287" y="77.33045" width="3.30191" height="2.84346"/><rect x="80.5215" y="77.33045" width="3.30191" height="2.84346"/><path d="M40.226,59.18l7.79573,4.07241L46.5329,54.62694l6.30688-6.10861-8.7159-1.2585L40.226,39.41213l-3.89767,7.8477-8.7159,1.25849,6.30688,6.10862-1.48885,8.62542Zm-6.46406-8.676,4.46655-.64486L40.226,45.83744l1.99751,4.02161,4.46655.64486-3.232,3.13024.76317,4.42034-3.995-2.087-3.995,2.087.76317-4.42034Z" transform="translate(-0.44338 -0.55207)"/><path d="M124.57143,48.27953,115.85554,47.021l-3.89768-7.8477-3.89767,7.8477L99.3443,48.27953l6.30688,6.10862-1.48885,8.62542,7.79573-4.07241,7.79573,4.07241-1.48885-8.62542Zm-12.61357,7.44916-3.995,2.087.76317-4.42034-3.232-3.13024,4.46656-.64486,1.9975-4.02161,1.99751,4.02161,4.46655.64467-3.232,3.13024.76317,4.42034Z" transform="translate(-0.44338 -0.55207)"/><path d="M67.665,51.12018l7.79573-4.07242,7.79554,4.07242-1.48885-8.62542,6.30688-6.10862-8.7159-1.25849-3.89786-7.84771-3.89786,7.84771-8.71589,1.25849,6.30688,6.10862Zm1.33148-12.74845,4.46637-.64487,1.99769-4.0216,1.99751,4.0216,4.46655.64487L78.6926,41.502l.763,4.42035-3.99482-2.087-3.995,2.087.76318-4.42035Z" transform="translate(-0.44338 -0.55207)"/><rect x="38.3523" y="88.5357" width="2.86162" height="2.84346"/><rect x="38.3523" y="94.22263" width="2.86162" height="8.72007"/><rect x="38.3523" y="82.84878" width="2.86162" height="2.84346"/><rect x="38.3523" y="70.52691" width="2.86162" height="9.4784"/><rect x="38.3523" y="64.83999" width="2.86162" height="2.84346"/><rect x="110.08414" y="98.96192" width="2.86161" height="2.84346"/><rect x="110.08414" y="104.64885" width="2.86161" height="2.84346"/><rect x="110.08414" y="64.46082" width="2.86161" height="2.84346"/><rect x="110.08414" y="75.83486" width="2.86161" height="20.2836"/><rect x="110.08414" y="70.14775" width="2.86161" height="2.84346"/><path class="cls-9" d="M93.26353,108.31215a21.24287,21.24287,0,0,0-6.63033-5.92929l1.429-2.46355a24.07451,24.07451,0,0,1,7.51621,6.72131Z" transform="translate(-0.44338 -0.55207)"/><path class="cls-9" d="M57.18683,110.447l-2.49536-1.39171a24.49149,24.49149,0,0,1,7.395-8.08236l1.62956,2.33728A21.62833,21.62833,0,0,0,57.18683,110.447Z" transform="translate(-0.44338 -0.55207)"/></g></svg>