<svg xmlns="http://www.w3.org/2000/svg" viewBox="0 0 154.28571 154.28571"><defs><style>.cls-1{fill:#399e62;}.cls-2{fill:#ff826e;}.cls-3{fill:#e6e9ed;}.cls-4{fill:#fcd770;}.cls-5{fill:#f0d0b4;}.cls-6{fill:#69d6f4;}.cls-7{fill:#b4dd7f;}</style></defs><title>joupub</title><g id="Layer_1" data-name="Layer 1"><circle class="cls-1" cx="77.14286" cy="77.14286" r="77.14286"/></g><g id="Layer_4" data-name="Layer 4"><path class="cls-2" d="M116.46544,62.7235V46.73272h-6.39632v73.5576a6.37556,6.37556,0,0,0,6.15661,6.3807,1.237,1.237,0,0,0,.23971.01562,6.38733,6.38733,0,0,0,6.39631-6.39632V62.7235Z" transform="translate(-1.17248 -0.82898)"/><path class="cls-3" d="M39.70968,120.29032V30.74194h70.35944v89.54838a6.37556,6.37556,0,0,0,6.15661,6.3807,1.237,1.237,0,0,0,.23971.01562H46.106A6.39463,6.39463,0,0,1,39.70968,120.29032Z" transform="translate(-1.17248 -0.82898)"/><path class="cls-4" d="M103.67281,78.71429v41.576h-41.576v-41.576Z" transform="translate(-1.17248 -0.82898)"/><path class="cls-5" d="M97.2765,110.72787V113.894H68.49309v-3.16614a6.391,6.391,0,0,1,4.63717-6.15661l6.55638-1.8708V100.2222a6.39234,6.39234,0,0,1-3.19816-5.51713V91.50691a6.39358,6.39358,0,0,1,7.02017-6.3643,6.58156,6.58156,0,0,1,5.77246,6.636v2.92644A6.39234,6.39234,0,0,1,86.083,100.2222v2.47826l6.55638,1.8708A6.391,6.391,0,0,1,97.2765,110.72787Z" transform="translate(-1.17248 -0.82898)"/><path class="cls-6" d="M54.34109,39.825a17.5714,17.5714,0,0,1,9.35476-2.68673c.17568,0,.35214,0,.52782.01561v.0164a7.36848,7.36848,0,0,0-.52782,2.73436,7.57534,7.57534,0,0,0,2.8304,5.90051l2.73436,2.17453a6.50932,6.50932,0,0,1,2.43063,5.06973,6.46963,6.46963,0,0,0,6.476,6.476,9.35052,9.35052,0,0,0,2.52667-.35215h.01639a17.58677,17.58677,0,0,1-34.02882.0164h.0164a5.34262,5.34262,0,0,0,1.82238.33575,9.58272,9.58272,0,0,1,6.79609,2.814l.32013.32013a5.6536,5.6536,0,0,0,9.65849-3.9977v-1.535a3.99939,3.99939,0,0,0-3.99769-3.9977,3.99939,3.99939,0,0,1-3.9977-3.99769V46.73272a9.58072,9.58072,0,0,0-1.91921-5.75684,8.67483,8.67483,0,0,0-1.02285-1.13528Z" transform="translate(-1.17248 -0.82898)"/><path class="cls-7" d="M81.28571,54.72811a17.04106,17.04106,0,0,1-.57545,4.44509h-.01639a9.35052,9.35052,0,0,1-2.52667.35215,6.46963,6.46963,0,0,1-6.476-6.476,6.50932,6.50932,0,0,0-2.43063-5.06973l-2.73436-2.17453a7.57534,7.57534,0,0,1-2.8304-5.90051,7.36848,7.36848,0,0,1,.52782-2.73436v-.0164A17.56505,17.56505,0,0,1,81.28571,54.72811Z" transform="translate(-1.17248 -0.82898)"/><path class="cls-7" d="M55.38033,40.97588a9.58072,9.58072,0,0,1,1.91921,5.75684v2.39862a3.99939,3.99939,0,0,0,3.9977,3.99769,3.99939,3.99939,0,0,1,3.99769,3.9977v1.535a5.6536,5.6536,0,0,1-9.65849,3.9977l-.32013-.32013a9.58272,9.58272,0,0,0-6.79609-2.814,5.34262,5.34262,0,0,1-1.82238-.33575h-.0164a17.17052,17.17052,0,0,1-.57545-4.46149A17.596,17.596,0,0,1,54.34109,39.825l.01639.01562A8.67483,8.67483,0,0,1,55.38033,40.97588Z" transform="translate(-1.17248 -0.82898)"/><path d="M118.06452,61.12442V45.13364H111.6682V29.14286H38.1106v91.14746a8.0048,8.0048,0,0,0,7.99539,7.99539h70.35945a8.0048,8.0048,0,0,0,7.99539-7.99539V61.12442ZM46.106,125.08756a4.80348,4.80348,0,0,1-4.79723-4.79724V32.341h67.16129v87.94931a7.95352,7.95352,0,0,0,1.6022,4.79724Zm75.15668-4.79724a4.79724,4.79724,0,1,1-9.59447,0V48.3318h3.19816v67.16129h3.19816V64.32258h3.19815Z" transform="translate(-1.17248 -0.82898)"/><path d="M114.86636,118.69124h3.19816v3.19816h-3.19816Z" transform="translate(-1.17248 -0.82898)"/><path d="M93.07579,103.03464,87.682,101.49491v-.4271a8.00334,8.00334,0,0,0,3.19815-6.36274V91.78175a8.206,8.206,0,0,0-7.21693-8.232,7.99267,7.99267,0,0,0-8.77385,7.95713v3.19816a8.00335,8.00335,0,0,0,3.19816,6.36274v.4271l-5.39533,1.53973a8.03258,8.03258,0,0,0-5.79822,7.6901v4.76835H98.87558v-4.76835A8.03213,8.03213,0,0,0,93.07579,103.03464Zm2.60163,9.26029H70.09217v-1.57019a4.8202,4.8202,0,0,1,3.47924-4.61374l7.7143-2.205V99.29461l-.79485-.46223a4.74619,4.74619,0,0,1-2.4033-4.12731V91.50691a4.79754,4.79754,0,0,1,5.272-4.77615,4.98843,4.98843,0,0,1,4.32251,5.051v2.92332a4.74619,4.74619,0,0,1-2.4033,4.12731l-.79486.46223V103.906l7.71274,2.205a4.81975,4.81975,0,0,1,3.48081,4.61374Z" transform="translate(-1.17248 -0.82898)"/><path d="M60.4977,121.8894h44.77419V77.11521H60.4977Zm3.19815-41.576h38.37788v38.37788H63.69585Z" transform="translate(-1.17248 -0.82898)"/><path d="M63.69585,73.91705A19.18894,19.18894,0,1,0,44.50691,54.72811,19.20992,19.20992,0,0,0,63.69585,73.91705Zm0-3.19816a16.0089,16.0089,0,0,1-14.62048-9.54137,7.91428,7.91428,0,0,1,5.10409,2.28462l.33418.33574A7.2525,7.2525,0,0,0,66.894,58.66959V57.12673A5.60256,5.60256,0,0,0,61.29724,51.53a2.40124,2.40124,0,0,1-2.39862-2.39861V46.73272a11.22228,11.22228,0,0,0-2.05975-6.42833,15.8264,15.8264,0,0,1,5.36175-1.49054,8.95908,8.95908,0,0,0-.10385,1.08765,9.1167,9.1167,0,0,0,3.4363,7.15291l2.72656,2.17921a4.85855,4.85855,0,0,1,1.83254,3.81031,8.0901,8.0901,0,0,0,8.08049,8.08049c.057,0,.11791-.01093.17568-.01249A16.009,16.009,0,0,1,63.69585,70.71889ZM79.68664,54.72811a16.01122,16.01122,0,0,1-.3053,3.09119,7.79965,7.79965,0,0,1-1.20868.107,4.88679,4.88679,0,0,1-4.88234-4.88234,8.03786,8.03786,0,0,0-3.03184-6.30809l-2.72812-2.18077a5.928,5.928,0,0,1-2.23543-4.65357,5.54423,5.54423,0,0,1,.10541-1.0697A16.01056,16.01056,0,0,1,79.68664,54.72811ZM54.11388,41.95657a8.03938,8.03938,0,0,1,1.58658,4.77615v2.39862a5.60256,5.60256,0,0,0,5.59678,5.59677,2.40124,2.40124,0,0,1,2.39861,2.39862v1.54286A4.0547,4.0547,0,0,1,56.778,61.53981l-.33418-.33574a11.12651,11.12651,0,0,0-7.915-3.2778,3.62384,3.62384,0,0,1-.50908-.04763,15.93,15.93,0,0,1,6.09415-15.92207Z" transform="translate(-1.17248 -0.82898)"/><path d="M86.083,35.53917h19.18894v3.19816H86.083Z" transform="translate(-1.17248 -0.82898)"/><path d="M86.083,41.93548h3.19816v3.19816H86.083Z" transform="translate(-1.17248 -0.82898)"/><path d="M92.47926,41.93548h12.79263v3.19816H92.47926Z" transform="translate(-1.17248 -0.82898)"/><path d="M86.083,48.3318h19.18894V51.53H86.083Z" transform="translate(-1.17248 -0.82898)"/><path d="M86.083,54.72811h19.18894v3.19816H86.083Z" transform="translate(-1.17248 -0.82898)"/><path d="M86.083,61.12442H98.87558v3.19816H86.083Z" transform="translate(-1.17248 -0.82898)"/><path d="M102.07373,61.12442h3.19816v3.19816h-3.19816Z" transform="translate(-1.17248 -0.82898)"/><path d="M44.50691,117.09217H57.29954v3.19815H44.50691Z" transform="translate(-1.17248 -0.82898)"/><path d="M44.50691,110.69585H57.29954V113.894H44.50691Z" transform="translate(-1.17248 -0.82898)"/><path d="M44.50691,104.29954H57.29954v3.19816H44.50691Z" transform="translate(-1.17248 -0.82898)"/><path d="M44.50691,97.90323H57.29954v3.19815H44.50691Z" transform="translate(-1.17248 -0.82898)"/><path d="M44.50691,91.50691H57.29954v3.19816H44.50691Z" transform="translate(-1.17248 -0.82898)"/></g></svg>