<svg id="Layer_3" enable-background="new 0 0 64 64" height="512" viewBox="0 0 64 64" width="512" xmlns="http://www.w3.org/2000/svg"><g><path d="m6 2h52c2.209 0 4 1.791 4 4v36c0 2.209-1.791 4-4 4h-52c-2.209 0-4-1.791-4-4v-36c0-2.209 1.791-4 4-4z" fill="#58616c"/><path d="m59 42v-36c0-2.209-1.791-4-4-4h-49c-2.209 0-4 1.791-4 4v36c0 2.209 1.791 4 4 4h49c2.209 0 4-1.791 4-4z" fill="#758190"/><path d="m58 2h-52c-2.209 0-4 1.791-4 4v32h60v-32c0-2.209-1.791-4-4-4z" fill="#a2dbf7"/><path d="m55 2h-49c-2.209 0-4 1.791-4 4v32h57v-32c0-2.209-1.791-4-4-4z" fill="#b5e2f9"/><g><path d="m9.757 13h8.485v2h-8.485z" fill="#8b9097" transform="matrix(.707 -.707 .707 .707 -5.799 14)"/></g><g><path d="m14.5 18.979h2v12.042h-2z" fill="#8b9097" transform="matrix(.664 -.747 .747 .664 -13.483 19.976)"/></g><path d="m32 30h6v8h-6z" fill="#8b9097"/><path d="m32 30h3v8h-3z" fill="#b9c0c9"/><path d="m30 26h10v4h-10z" fill="#b9c0c9"/><path d="m30 26h7v4h-7z" fill="#c7cdd4"/><path d="m46 30h6v8h-6z" fill="#8b9097"/><path d="m46 30h3v8h-3z" fill="#b9c0c9"/><path d="m44 26h10v4h-10z" fill="#b9c0c9"/><path d="m44 26h7v4h-7z" fill="#c7cdd4"/><path d="m26 8h32v12h-32z" fill="#ccc"/><path d="m26 8h29v12h-29z" fill="#f2f2f2"/><circle cx="21" cy="30" fill="#f7d881" r="2"/><circle cx="18" cy="10" fill="#f7d881" r="2"/><circle cx="9" cy="19" fill="#a8575d" r="3"/><ellipse cx="7.5" cy="19" fill="#e0747c" rx="1.5" ry="2.584"/><path d="m49 46h4v4h-4z" fill="#acb3bc"/><path d="m24 46h16v10h-16z" fill="#919aa6"/><path d="m24 46h13v10h-13z" fill="#acb3bc"/><path d="m44 62h-24v-4c0-1.105.895-2 2-2h20c1.105 0 2 .895 2 2z" fill="#58616c"/><path d="m39 56h-17c-1.105 0-2 .895-2 2v4h21v-4c0-1.105-.895-2-2-2z" fill="#758190"/><g><path d="m56 41h2v2h-2z" fill="#f2f2f2"/></g><g><path d="m52 41h2v2h-2z" fill="#f2f2f2"/></g><g><path d="m48 41h2v2h-2z" fill="#f2f2f2"/></g><g><path d="m63 63h-8c-2.757 0-5-2.243-5-5v-8h2v8c0 1.654 1.346 3 3 3h8z" fill="#8b9097"/></g><g><path d="m29 11h26v2h-26z" fill="#8b9097"/></g><g><path d="m29 15h26v2h-26z" fill="#8b9097"/></g></g></svg>