<svg id="Layer_1" data-name="Layer 1" xmlns="http://www.w3.org/2000/svg" xmlns:xlink="http://www.w3.org/1999/xlink" viewBox="0 0 804.69 163.64"><image width="827" height="819" transform="scale(0.2)" xlink:href="../kasc.png"/><path d="M198.59,112a12.51,12.51,0,0,1,3.16-8.26Q204.9,100,210.8,100h.45a13.51,13.51,0,0,1,8,3q3.69,2.88,3.68,9.43v19.75H212.9V123h-2.85V114.5h2.85v-3.17a1.83,1.83,0,0,0-.65-1.52,2.28,2.28,0,0,0-1.45-.52,2.4,2.4,0,0,0-1.47.52,1.86,1.86,0,0,0-.68,1.57v20.84H198.59Z" transform="translate(-15.41 -8.36)"/><path d="M229.06,111.28q0-6.57,3.5-8.92a14.71,14.71,0,0,1,8.36-2.35c3.44,0,6.06.86,7.88,2.57a10.79,10.79,0,0,1,3.38,5.63,8.46,8.46,0,0,1,.15,1c0,.33,0,.66,0,1a8.38,8.38,0,0,1-.78,3.6,5.54,5.54,0,0,1-2.17,2.51,4.68,4.68,0,0,1,2.65,2.07,7.28,7.28,0,0,1,1,4v9.85H243v-7.76a4,4,0,0,0-.57-2.61,3.27,3.27,0,0,0-1.63-.82,1.67,1.67,0,0,0-.32-.08l-.33-.07v-7.46a.16.16,0,0,0,.1,0h.1a.34.34,0,0,1,.13,0l.12,0a.68.68,0,0,1,.2,0l.15,0a2.53,2.53,0,0,0,1.93-.63,2,2,0,0,0,.57-1.41,2.46,2.46,0,0,0,0-.28,1.12,1.12,0,0,1,0-.27,3.29,3.29,0,0,0-.87-1.49,2.21,2.21,0,0,0-1.63-.69,1.66,1.66,0,0,0-1.75,1.09,9.85,9.85,0,0,0-.4,3.23v19.1h-9.71Z" transform="translate(-15.41 -8.36)"/><path d="M260.22,109.49h-5.35v-8.83h20.71v8.83h-5.3v22.73H260.22Z" transform="translate(-15.41 -8.36)"/><path d="M278,123h7.1a1.23,1.23,0,0,0,.43,0A4.11,4.11,0,0,0,286,123a3.76,3.76,0,0,0,1.36-.45,1,1,0,0,0,.6-.84,1.11,1.11,0,0,0-.2-.52,3.26,3.26,0,0,0-.6-.67.83.83,0,0,0-.13-.18.57.57,0,0,0-.18-.12c-.4-.27-.79-.54-1.17-.82s-.74-.57-1.08-.87a25.83,25.83,0,0,1-4.75-4.51A8.63,8.63,0,0,1,278,108.5a.19.19,0,0,0,0-.1.49.49,0,0,1,0-.15.22.22,0,0,0,0-.1.3.3,0,0,1,0-.1,5.58,5.58,0,0,1,1.85-4.54,11,11,0,0,1,4-2.2,11.8,11.8,0,0,1,2.45-.52,18.87,18.87,0,0,1,2.06-.13l9.65,0v8.53h-6.75a4.46,4.46,0,0,0-1.78.4c-.45.23-.67.5-.67.79a1,1,0,0,0,.17.5,2.38,2.38,0,0,0,.53.6l.15.12.2.17c.16.14.34.27.52.4l.58.4a2.69,2.69,0,0,0,.32.27l.33.22a46.06,46.06,0,0,1,5,4.27,8.33,8.33,0,0,1,2.5,5.46v1a6.86,6.86,0,0,1-3.22,6.28,14.67,14.67,0,0,1-7.08,2.21h-.8l-10-.05Z" transform="translate(-15.41 -8.36)"/><path d="M324.86,112a12.51,12.51,0,0,1,3.16-8.26q3.15-3.75,9.05-3.75h.45a13.51,13.51,0,0,1,8,3q3.69,2.88,3.68,9.43v19.75H339.17V123h-2.85V114.5h2.85v-3.17a1.83,1.83,0,0,0-.65-1.52,2.28,2.28,0,0,0-1.45-.52,2.4,2.4,0,0,0-1.47.52,1.86,1.86,0,0,0-.68,1.57v20.84H324.86Z" transform="translate(-15.41 -8.36)"/><path d="M355.5,105.62a4.76,4.76,0,0,1,1.68-3.87,5.86,5.86,0,0,1,3.83-1.39l.62,0a3.48,3.48,0,0,1,.68.12,7.15,7.15,0,0,1,2.62,1.22,6.32,6.32,0,0,1,2,2.5l5,10.27V100.66H382V127.3a5.37,5.37,0,0,1-1.62,4.32,5.45,5.45,0,0,1-3.63,1.39l-.5,0-.5-.08a7.13,7.13,0,0,1-2.73-1.12,6.38,6.38,0,0,1-2.13-2.35l-5.35-10v12.76h-10Z" transform="translate(-15.41 -8.36)"/><path d="M388.17,100.66h11.46a14.64,14.64,0,0,1,10.93,4.39A16.69,16.69,0,0,1,415,116.34v.74q0,6.9-4.43,11a15.46,15.46,0,0,1-11,4.15V123a4.51,4.51,0,0,0,3.45-1.57,6.61,6.61,0,0,0,1.55-4.78q0-3.72-1.87-5.21a7,7,0,0,0-4.53-1.49v22.23H388.17Z" transform="translate(-15.41 -8.36)"/><path d="M440,123h7.11a1.17,1.17,0,0,0,.42,0A4.64,4.64,0,0,0,448,123a3.71,3.71,0,0,0,1.35-.45,1,1,0,0,0,.6-.84,1.11,1.11,0,0,0-.2-.52,2.76,2.76,0,0,0-.6-.67.83.83,0,0,0-.13-.18.66.66,0,0,0-.17-.12l-1.18-.82a13.48,13.48,0,0,1-1.07-.87,25.91,25.91,0,0,1-4.76-4.51A8.63,8.63,0,0,1,440,108.5a.36.36,0,0,0,0-.1.28.28,0,0,1,0-.15.44.44,0,0,0,0-.1.17.17,0,0,1,0-.1,5.58,5.58,0,0,1,1.85-4.54,11.12,11.12,0,0,1,4.06-2.2,11.67,11.67,0,0,1,2.45-.52,18.56,18.56,0,0,1,2.05-.13l9.66,0v8.53h-6.76a4.45,4.45,0,0,0-1.77.4c-.45.23-.68.5-.68.79a1,1,0,0,0,.18.5,2.32,2.32,0,0,0,.52.6l.15.12.2.17c.17.14.34.27.53.4s.37.27.57.4a2.16,2.16,0,0,0,.33.27l.32.22a46.19,46.19,0,0,1,5,4.27,8.38,8.38,0,0,1,2.5,5.46v1a6.87,6.87,0,0,1-3.23,6.28,14.67,14.67,0,0,1-7.08,2.21H450l-10-.05Z" transform="translate(-15.41 -8.36)"/><path d="M479.32,132.22q-7.67,0-11.56-4.8a16.62,16.62,0,0,1-3.91-10.66v-.55a17.32,17.32,0,0,1,4.26-10.7q4-4.85,11.91-4.85l4.65,0v9.33h-3.9a6.11,6.11,0,0,0-4.88,2.06,7,7,0,0,0-1.73,4.44V117a7.36,7.36,0,0,0,1.93,4.47,6.3,6.3,0,0,0,5,2l3.55,0v8.79Z" transform="translate(-15.41 -8.36)"/><path d="M489.39,100.66h10.06v31.56H489.39Z" transform="translate(-15.41 -8.36)"/><path d="M519.36,132.22q-7.61,0-11.41-4.75a16.65,16.65,0,0,1-3.8-10.56v-.7a17.73,17.73,0,0,1,4.25-10.68q4-4.87,11.66-4.87l5,0v8.19h-3.21c-.26,0-.53.06-.8.07a4.59,4.59,0,0,0-.8.13,8.85,8.85,0,0,0-3.38,1.29,3.46,3.46,0,0,0-1.77,2.53h10v7.34h-10a2.48,2.48,0,0,0,.17.59,4.69,4.69,0,0,0,.28.55,6.16,6.16,0,0,0,1.75,1.74,4.81,4.81,0,0,0,2.8.79l5,0v8.44Z" transform="translate(-15.41 -8.36)"/><path d="M530.85,105.62a4.76,4.76,0,0,1,1.68-3.87,5.84,5.84,0,0,1,3.82-1.39l.63,0a3.48,3.48,0,0,1,.68.12,7.15,7.15,0,0,1,2.62,1.22,6.32,6.32,0,0,1,2,2.5l5,10.27V100.66h10.06V127.3a5.34,5.34,0,0,1-1.63,4.32,5.41,5.41,0,0,1-3.62,1.39l-.5,0-.5-.08a7.13,7.13,0,0,1-2.73-1.12,6.29,6.29,0,0,1-2.13-2.35l-5.35-10v12.76h-10Z" transform="translate(-15.41 -8.36)"/><path d="M577.55,132.22q-7.66,0-11.56-4.8a16.57,16.57,0,0,1-3.91-10.66v-.55a17.32,17.32,0,0,1,4.26-10.7q4-4.85,11.91-4.85l4.65,0v9.33H579a6.11,6.11,0,0,0-4.88,2.06,7,7,0,0,0-1.73,4.44V117a7.36,7.36,0,0,0,1.93,4.47,6.3,6.3,0,0,0,5,2l3.55,0v8.79Z" transform="translate(-15.41 -8.36)"/><path d="M601,132.22q-7.6,0-11.41-4.75a16.65,16.65,0,0,1-3.8-10.56v-.7a17.79,17.79,0,0,1,4.25-10.68q4-4.87,11.66-4.87l5,0v8.19h-3.2c-.27,0-.54.06-.8.07a4.55,4.55,0,0,0-.81.13,8.74,8.74,0,0,0-3.37,1.29,3.48,3.48,0,0,0-1.78,2.53h10v7.34h-10a2.11,2.11,0,0,0,.18.59,3.52,3.52,0,0,0,.27.55,6.16,6.16,0,0,0,1.75,1.74,4.81,4.81,0,0,0,2.8.79l5,0v8.44Z" transform="translate(-15.41 -8.36)"/><path d="M649.05,132.22q-7.65,0-11.56-4.8a16.61,16.61,0,0,1-3.9-10.66v-.55a17.25,17.25,0,0,1,4.25-10.7q4-4.85,11.91-4.85l4.65,0v9.33h-3.9a6.13,6.13,0,0,0-4.88,2.06,7,7,0,0,0-1.72,4.44V117a7.4,7.4,0,0,0,1.92,4.47,6.31,6.31,0,0,0,5,2l3.55,0v8.79Z" transform="translate(-15.41 -8.36)"/><path d="M657.27,116.26c0-.46,0-.94.08-1.44s.12-1,.22-1.49a16.86,16.86,0,0,1,5.11-8.72q4.1-3.94,11.05-4,7.56,0,11.81,4.42T689.8,117a15.9,15.9,0,0,1-15.72,16.3,16.56,16.56,0,0,1-11.75-4.77,16.08,16.08,0,0,1-5.06-12.23Zm10.41.72a5.66,5.66,0,0,0,1.83,4.52,6.21,6.21,0,0,0,4.22,1.59,3.64,3.64,0,0,0,.48,0l.48,0a6.89,6.89,0,0,0,3.55-1.71,5.45,5.45,0,0,0,1.6-4.3,5.81,5.81,0,0,0-1.7-4.49,6.4,6.4,0,0,0-3.76-1.76h-.7a6.49,6.49,0,0,0-4.12,1.64,5.72,5.72,0,0,0-1.88,4.61Z" transform="translate(-15.41 -8.36)"/><path d="M703.66,132.22a8,8,0,0,1-6.45-2.73,9.83,9.83,0,0,1-2.45-6.75V100.66h9.7v18.06a8.07,8.07,0,0,0,.5,3.42c.34.63,1.12,1,2.36,1l5.65,0v9.18Z" transform="translate(-15.41 -8.36)"/><path d="M724.71,132.22a8,8,0,0,1-6.45-2.73,9.83,9.83,0,0,1-2.45-6.75V100.66h9.7v18.06a8.07,8.07,0,0,0,.5,3.42c.34.63,1.12,1,2.36,1l5.65,0v9.18Z" transform="translate(-15.41 -8.36)"/><path d="M751.26,132.22q-7.6,0-11.41-4.75a16.59,16.59,0,0,1-3.8-10.56v-.7a17.67,17.67,0,0,1,4.25-10.68q4-4.87,11.66-4.87l4.95,0v8.19h-3.2c-.27,0-.53.06-.8.07a4.45,4.45,0,0,0-.8.13,8.79,8.79,0,0,0-3.38,1.29,3.46,3.46,0,0,0-1.77,2.53h9.95v7.34H747a2.48,2.48,0,0,0,.17.59,3.53,3.53,0,0,0,.28.55,6.16,6.16,0,0,0,1.75,1.74,4.79,4.79,0,0,0,2.8.79l4.95,0v8.44Z" transform="translate(-15.41 -8.36)"/><path d="M776.21,120.16v-7.74h18.32q0,11.2-4.91,15.68A16.65,16.65,0,0,1,778,132.56h-.52a2.9,2.9,0,0,1-.58-.05A17.86,17.86,0,0,1,766.05,128q-4.95-4.19-4.95-11.53a1.53,1.53,0,0,1,0-.3c0-.1,0-.2,0-.3v-.15a.57.57,0,0,0,.05-.24v-.25q.56-7.2,5.28-10.87a19,19,0,0,1,10.28-4.12l.8,0,.8,0h.9a20.47,20.47,0,0,1,6.53,1.47,12.45,12.45,0,0,1,5.08,3.64l-6.75,6.35a9.08,9.08,0,0,0-1.63-1.19,9.89,9.89,0,0,0-1.77-.79,8.55,8.55,0,0,0-1.21-.3,7.78,7.78,0,0,0-1.15-.1,6.61,6.61,0,0,0-4.7,2,7.08,7.08,0,0,0-2,5.4,6.23,6.23,0,0,0,2,4.7,7.07,7.07,0,0,0,4.38,2.08h.68a.71.71,0,0,0,.27-.05,5.4,5.4,0,0,0,2.56-.91,5.55,5.55,0,0,0,1.95-2.31Z" transform="translate(-15.41 -8.36)"/><path d="M813.16,132.22q-7.62,0-11.41-4.75a16.6,16.6,0,0,1-3.81-10.56v-.7a17.74,17.74,0,0,1,4.26-10.68q4-4.87,11.66-4.87l4.95,0v8.19h-3.2c-.27,0-.54.06-.8.07a4.31,4.31,0,0,0-.8.13,8.79,8.79,0,0,0-3.38,1.29,3.5,3.5,0,0,0-1.78,2.53h10v7.34h-10a2.51,2.51,0,0,0,.18.59,3.52,3.52,0,0,0,.27.55,6.29,6.29,0,0,0,1.75,1.74,4.84,4.84,0,0,0,2.81.79l4.95,0v8.44Z" transform="translate(-15.41 -8.36)"/><path d="M200,21.46h20.58V45.88l.41.1c.62.07,1.19-.43,1.74-1.49A17.86,17.86,0,0,0,224.05,41c.21-.61.39-1.2.57-1.75a9.06,9.06,0,0,0,.35-1.54l5-16.28h20.59l-5.12,16.17q-.11.52-.21.93c-.07.28-.14.59-.2.93A45.88,45.88,0,0,1,242.23,47q-1.69,3.51-4.15,4a10.88,10.88,0,0,1,1.69.36c.58.17,1.18.36,1.79.57A14.07,14.07,0,0,1,246.79,56q2.36,2.84,2.35,8.4V87H228.56V66.49q0-3.3-1.79-4.33a17.62,17.62,0,0,0-6.2-1.55V87H200Z" transform="translate(-15.41 -8.36)"/><path d="M260.11,45.05a26.24,26.24,0,0,1,6.45-17.15q6.45-7.78,18.54-7.78H286a27.41,27.41,0,0,1,16.43,6.28Q310,32.39,310,46V87H289.4V67.93h-5.84V50.21h5.84v-6.6a3.83,3.83,0,0,0-1.33-3.14,4.61,4.61,0,0,0-3-1.08,4.83,4.83,0,0,0-3,1.08,3.86,3.86,0,0,0-1.38,3.24V87H260.11Z" transform="translate(-15.41 -8.36)"/><path d="M321.84,45.05a26.24,26.24,0,0,1,6.45-17.15q6.45-7.78,18.53-7.78h.93a27.43,27.43,0,0,1,16.43,6.28q7.53,6,7.53,19.58V87H351.13V67.93h-5.84V50.21h5.84v-6.6a3.81,3.81,0,0,0-1.34-3.14,4.57,4.57,0,0,0-3-1.08,4.82,4.82,0,0,0-3,1.08,3.86,3.86,0,0,0-1.38,3.24V87H321.84Z" transform="translate(-15.41 -8.36)"/><path d="M386,31.76a10.55,10.55,0,0,1,4.36-8,15.91,15.91,0,0,1,8.75-3.4h1.74A14.76,14.76,0,0,1,408.47,23a11.61,11.61,0,0,1,4.71,7.47l5.12,21.23,5.84-22.88A10,10,0,0,1,429,22.9a16.61,16.61,0,0,1,8.14-2.37h1.64a15.61,15.61,0,0,1,8.3,3.35q3.78,2.94,4.3,9.43L455.78,87H435.92l-2.15-38.23-8,33.91a5.57,5.57,0,0,1-2.1,3.65A9,9,0,0,1,420,88a4.72,4.72,0,0,0-.77.06,5.28,5.28,0,0,1-.66,0h-.46a1,1,0,0,1-.46-.11,7,7,0,0,1-3.33-1.34,4.58,4.58,0,0,1-1.9-3.19l-8.7-34.73L401.41,87H381.74Z" transform="translate(-15.41 -8.36)"/><path d="M465.3,45.05a26.24,26.24,0,0,1,6.45-17.15q6.45-7.78,18.53-7.78h.92a27.46,27.46,0,0,1,16.44,6.28q7.53,6,7.53,19.58V87H494.58V67.93h-5.83V50.21h5.83v-6.6a3.8,3.8,0,0,0-1.33-3.14,4.61,4.61,0,0,0-3-1.08,4.8,4.8,0,0,0-3,1.08,3.86,3.86,0,0,0-1.38,3.24V87H465.3Z" transform="translate(-15.41 -8.36)"/><path d="M527.65,21.46H551.1q13.83.09,22.38,9.12T582.64,54v1.54q0,14.32-9.06,22.93T551.1,87.1V67.93a9.19,9.19,0,0,0,7.07-3.25q3.17-3.35,3.17-9.94,0-7.73-3.84-10.82a14.32,14.32,0,0,0-9.27-3.09V87H527.65Z" transform="translate(-15.41 -8.36)"/><path d="M590.88,21.46h20.58V44.33h9.42V21.46h20.58V87H620.88V61.23h-9.42V87H590.88Z" transform="translate(-15.41 -8.36)"/><path d="M681.84,87q-15.57.11-23.35-9.85a34.8,34.8,0,0,1-7.78-21.93V53.76a37.07,37.07,0,0,1,8.7-22.19q8.19-10.11,23.86-10.11l10.14-.11v17h-6.55c-.55.06-1.1.12-1.64.15a9.32,9.32,0,0,0-1.64.26,18.2,18.2,0,0,0-6.91,2.68A7.23,7.23,0,0,0,673,46.7h20.38V62H673a5.64,5.64,0,0,0,.36,1.24,8,8,0,0,0,.57,1.13,12.62,12.62,0,0,0,3.58,3.61,9.73,9.73,0,0,0,5.73,1.65l10.14-.1V87Z" transform="translate(-15.41 -8.36)"/><path d="M704.84,31.76a9.94,9.94,0,0,1,3.43-8,11.85,11.85,0,0,1,7.83-2.88c.41,0,.84,0,1.28.05a6.51,6.51,0,0,1,1.39.26,14.42,14.42,0,0,1,5.37,2.52,13.14,13.14,0,0,1,4.15,5.21l10.14,21.33V21.46H759V76.79c0,4.06-1.11,7-3.33,9a11.06,11.06,0,0,1-7.42,2.88c-.34,0-.68,0-1,0s-.69-.09-1-.15a14.93,14.93,0,0,1-5.58-2.32,13.1,13.1,0,0,1-4.35-4.9l-11-20.71V87H704.84Z" transform="translate(-15.41 -8.36)"/><path d="M790.81,21.46V65a4.12,4.12,0,0,0,1.38,3.4,4.65,4.65,0,0,0,3,1.14,4.46,4.46,0,0,0,3-1.14,4.06,4.06,0,0,0,1.33-3.29V21.46H820.1V65q0,10.51-6.2,17t-18.69,6.44q-12.18,0-18.58-7.27a23.68,23.68,0,0,1-6.41-16V21.46Z" transform="translate(-15.41 -8.36)"/><path d="M203.39,149.91l.55-1.15.14-.56c0-.44-.26-.7-.78-.76a2.32,2.32,0,0,1-.93-.23.65.65,0,0,1-.15-.51c0-.51.32-.76,1-.76h.11l3.76.14h4.26l1.09-.14h.5a.89.89,0,0,1,.6.22.75.75,0,0,1,.23.55c0,.45-.3.68-.92.68-.85,0-1.28.27-1.28.81l0,.25.28,1,3.45,13c0,.19.07.33.1.42s.06.21.11.35a3.28,3.28,0,0,0,.15.36,3.22,3.22,0,0,0,.37.49,2.08,2.08,0,0,0,1,.56,2.47,2.47,0,0,1,.84.28c.12,0,.2.23.22.53a.66.66,0,0,1-.75.75h-.12l-2.06-.14h-1.5l-4.29.14c-.74,0-1.11-.24-1.11-.73s.34-.59,1-.69a1.11,1.11,0,0,0,1-1.25v-.23a19.75,19.75,0,0,0-.76-3.59c-.29-.79-.72-1.19-1.3-1.19h-4.54a3.66,3.66,0,0,0-1.22.12,1.66,1.66,0,0,0-.53.82l-.64,1.7a7.45,7.45,0,0,0-.64,2.59c0,.69.41,1,1.22,1s1,.24,1,.71-.32.71-.95.71h-.11l-2.76-.14H198l-1.41.14h-.31c-.54,0-.81-.26-.81-.77a.64.64,0,0,1,.47-.65l.45-.14a1.4,1.4,0,0,0,1-.59l.48-.89.83-2.12.72-1.84c.84-2.14,1.61-4.05,2.31-5.71S203,150.61,203.39,149.91Zm4.34,3.1-.83-3-.14-.5a.34.34,0,0,0-.34-.25.83.83,0,0,0-.18.13,2.72,2.72,0,0,0-.24.29l-.75,1.39a19.24,19.24,0,0,0-.92,2l-.89,2.15a3.21,3.21,0,0,0-.25.86c0,.09.09.19.25.28a3.72,3.72,0,0,0,.92.08h3c.74,0,1.11-.17,1.11-.53l-.08-.53Z" transform="translate(-15.41 -8.36)"/><path d="M220.87,157.22v-.72l-.08-.45c0-.11-.15-.18-.45-.2h-.64c-.39,0-.58,0-.58-.16l0-.19.19-.64.14-.54a.43.43,0,0,1,.36-.25h.28a.91.91,0,0,0,.56-.12.63.63,0,0,0,.19-.38v-3.24a5.28,5.28,0,0,1,1.85-4.23,7.66,7.66,0,0,1,5.11-1.58,7,7,0,0,1,2.59.39c.65.23,1,.56,1,1a1.41,1.41,0,0,1-.25.7,3.63,3.63,0,0,1-.68.68,1.33,1.33,0,0,1-.77.35,2.92,2.92,0,0,1-1.26-.5l-1.06-.61-.56-.11a1,1,0,0,0-.57.18,2.26,2.26,0,0,0-.52.51,4.23,4.23,0,0,0-.42,1.55l-.08,2.91.08,2a.78.78,0,0,0,.08.42c.06.07.21.11.48.11h2.78c.28,0,.43.08.44.25l-.22,1.24c0,.2-.21.29-.53.29h-2.11a1.16,1.16,0,0,0-.74.17q-.18.16-.18.87v5.64l.08.78a1.74,1.74,0,0,0,1.92,1.48h.39a.56.56,0,0,1,.64.63c0,.51-.27.76-.8.76h-.31l-3.68-.17c-.79,0-1.49,0-2.1,0a11.34,11.34,0,0,0-1.51.13h-.31c-.45,0-.67-.21-.67-.62a.55.55,0,0,1,.14-.44l.74-.23a1,1,0,0,0,.8-.53,3.89,3.89,0,0,0,.24-1.65v-5.49Z" transform="translate(-15.41 -8.36)"/><path d="M231.56,157.22v-.72l-.08-.45c0-.11-.15-.18-.44-.2h-.64c-.39,0-.59,0-.59-.16l0-.19.19-.64.14-.54a.43.43,0,0,1,.36-.25h.28a1,1,0,0,0,.57-.12.62.62,0,0,0,.18-.38v-3.24a5.26,5.26,0,0,1,1.86-4.23,7.61,7.61,0,0,1,5.1-1.58,7,7,0,0,1,2.59.39c.65.23,1,.56,1,1a1.52,1.52,0,0,1-.25.7,4.05,4.05,0,0,1-.69.68,1.33,1.33,0,0,1-.77.35,2.92,2.92,0,0,1-1.26-.5l-1.06-.61-.56-.11a1,1,0,0,0-.57.18,2.26,2.26,0,0,0-.52.51,4.23,4.23,0,0,0-.42,1.55l-.08,2.91.08,2a.78.78,0,0,0,.08.42c.06.07.22.11.48.11h2.78c.28,0,.43.08.45.25l-.23,1.24c0,.2-.21.29-.53.29h-2.11a1.16,1.16,0,0,0-.74.17q-.18.16-.18.87v5.64l.08.78a1.75,1.75,0,0,0,1.93,1.48h.38a.56.56,0,0,1,.64.63c0,.51-.26.76-.8.76h-.31l-3.67-.17c-.8,0-1.5,0-2.1,0a11.51,11.51,0,0,0-1.52.13h-.31c-.44,0-.67-.21-.67-.62a.55.55,0,0,1,.14-.44l.74-.23a1,1,0,0,0,.8-.53,3.89,3.89,0,0,0,.24-1.65v-5.49Z" transform="translate(-15.41 -8.36)"/><path d="M245.34,153.82a4,4,0,0,1,.78-.28c.42,0,.64.39.64,1.17V158l-.14,4.32a2.21,2.21,0,0,0,.14.89l.19.7a1.71,1.71,0,0,0,.43.55,2.38,2.38,0,0,0,.52.22l.4.14a.6.6,0,0,1,.6.64c0,.47-.25.7-.76.7h-.44l-1-.13-1.32,0-.56,0a17.78,17.78,0,0,0-2.81.14h-.39c-.52,0-.78-.22-.78-.67a.75.75,0,0,1,.45-.67l.33-.11c.59-.28.89-1.08.89-2.38v-2.29a3.11,3.11,0,0,0-1.05-2.69l-.45-.22a.75.75,0,0,1-.28-.56c0-.22.16-.43.47-.62l2.46-1.31.53-.25Zm-2.82-6.6.37-.3.61-.36a1.59,1.59,0,0,1,.71-.24,1.19,1.19,0,0,1,.62.23,8.14,8.14,0,0,1,1.1,1,2.28,2.28,0,0,1,.69,1.51,2.07,2.07,0,0,1-.28.88,6.27,6.27,0,0,1-.94,1.28,2,2,0,0,1-1.49.74,2.35,2.35,0,0,1-1.64-1.09,3.48,3.48,0,0,1-.8-1.81A3.12,3.12,0,0,1,242.52,147.22Z" transform="translate(-15.41 -8.36)"/><path d="M251.69,151.71v-.33a5.32,5.32,0,0,0-.14-1.53,2.39,2.39,0,0,0-.86-1l-.17-.08c-.33-.28-.5-.49-.5-.64s.17-.41.5-.61l.73-.39,1.33-.73,2-.92.61-.25.42-.08c.35,0,.53.27.53.81l-.06.78c-.05.65-.08,1.49-.08,2.51v12.67a4.42,4.42,0,0,0,.32,2,1.83,1.83,0,0,0,1.1.85c.52.18.78.43.78.74,0,.47-.27.7-.81.7h-.25l-2.78-.14a7.21,7.21,0,0,0-.84.07,7.68,7.68,0,0,1-.95.07h-2.17c-.44,0-.67-.21-.67-.64a.49.49,0,0,1,.2-.47l.75-.14a1.27,1.27,0,0,0,.86-.62,2.93,2.93,0,0,0,.14-.43,2.17,2.17,0,0,0,0-.4V151.71Z" transform="translate(-15.41 -8.36)"/><path d="M263.84,153.82a3.58,3.58,0,0,1,.78-.28c.42,0,.64.39.64,1.17V158l-.14,4.32a2.21,2.21,0,0,0,.14.89l.19.7a1.58,1.58,0,0,0,.43.55,2.38,2.38,0,0,0,.52.22l.4.14a.6.6,0,0,1,.6.64c0,.47-.25.7-.76.7h-.45l-1-.13-1.32,0-.56,0a17.69,17.69,0,0,0-2.81.14h-.39c-.52,0-.78-.22-.78-.67a.76.76,0,0,1,.44-.67l.34-.11c.59-.28.89-1.08.89-2.38v-2.29a3.11,3.11,0,0,0-1.05-2.69l-.45-.22a.75.75,0,0,1-.28-.56c0-.22.15-.43.47-.62l2.46-1.31.53-.25Zm-2.82-6.6.37-.3.61-.36a1.56,1.56,0,0,1,.71-.24,1.19,1.19,0,0,1,.62.23,7.64,7.64,0,0,1,1.09,1,2.25,2.25,0,0,1,.7,1.51,2.22,2.22,0,0,1-.28.88,6.27,6.27,0,0,1-.94,1.28,2,2,0,0,1-1.5.74c-.5,0-1-.36-1.63-1.09A3.39,3.39,0,0,1,260,149,3.12,3.12,0,0,1,261,147.22Z" transform="translate(-15.41 -8.36)"/><path d="M274.71,159.19l.36-.25c.06-.05.09-.2.09-.44q0-2.76-1.8-2.76c-.45,0-.78.4-1,1.18a1.49,1.49,0,0,1-1.54,1.19,1.24,1.24,0,0,1-.89-.34,1.15,1.15,0,0,1-.36-.89c0-.63.62-1.35,1.87-2.15a7.66,7.66,0,0,1,4.28-1.22c1.58,0,2.56.32,2.93,1a6.11,6.11,0,0,1,.69,1.55l.11,1.61v4.68c0,.82.22,1.23.64,1.23l.23-.06.22-.08.28-.09c.37,0,.56.21.56.62a1,1,0,0,1-.19.58,5.47,5.47,0,0,1-.82.82,7.32,7.32,0,0,1-1.4,1,2.79,2.79,0,0,1-1.19.25,2.66,2.66,0,0,1-.57,0,4.08,4.08,0,0,1-.51-.18,1.27,1.27,0,0,1-.78-.6l-.36-.54-.2-.17-.19.06-.59.44a5.16,5.16,0,0,1-1.33.67,4.79,4.79,0,0,1-1.67.36,3.17,3.17,0,0,1-2.18-.8,2.59,2.59,0,0,1-.89-2,3.15,3.15,0,0,1,1.07-2.27,6.93,6.93,0,0,1,3-1.6l1.47-.42Zm-2.53,3.87v.14a1.28,1.28,0,0,0,.3.89,1,1,0,0,0,.81.34,1.71,1.71,0,0,0,1.46-1,4.65,4.65,0,0,0,.6-2.5c0-.24-.09-.37-.28-.38l-.47.11-.64.19a1.9,1.9,0,0,0-.7.39A2.16,2.16,0,0,0,272.18,163.06Z" transform="translate(-15.41 -8.36)"/><path d="M288.19,156.13c-.21,0-.34.17-.39.5V160a23.9,23.9,0,0,0,.09,2.42,3.75,3.75,0,0,0,.62,1.6,2.42,2.42,0,0,0,2.14.79l.8-.08.39,0c.38,0,.58.12.58.36,0,.47-.46.85-1.37,1.16a10.64,10.64,0,0,1-3.39.46c-2.12,0-3.38-.44-3.79-1.31a7.07,7.07,0,0,1-.56-2.67l.2-2.92v-3c0-.35-.23-.53-.68-.53s-.6-.15-.6-.44c0-.13.17-.35.5-.64l.78-.62,1.17-1,1.31-1.09a6.9,6.9,0,0,1,.83-.68,2.09,2.09,0,0,1,.55-.18c.28,0,.43.18.43.54v1a1.71,1.71,0,0,0,.11.74,1.21,1.21,0,0,0,.5.14h2.42c.5,0,.75.09.75.28l-.19.81-.11.58c-.06.26-.3.39-.73.39h-2.36Z" transform="translate(-15.41 -8.36)"/><path d="M304.14,163.87l.48-.08c.44,0,.66.2.66.61s-.45.73-1.36,1.34a8.11,8.11,0,0,1-4.4.91,7,7,0,0,1-4.94-1.77,6.32,6.32,0,0,1,.31-9.37,8.14,8.14,0,0,1,5.52-1.94,6.62,6.62,0,0,1,3,.68c.88.46,1.32,1,1.32,1.55a1.32,1.32,0,0,1-.48,1,6.4,6.4,0,0,1-1.63.95l-2.59,1.06-1.78.75-.56.25a.63.63,0,0,0-.39.56,4.31,4.31,0,0,0,1.18,3,3.64,3.64,0,0,0,2.75,1.29,5.45,5.45,0,0,0,1-.1,3.69,3.69,0,0,0,1-.3l.62-.26Zm-7.09-6.29v.14c0,.44.06.68.19.69a2.62,2.62,0,0,0,.75-.25l1-.53,1-.58a1,1,0,0,0,.48-.59,1,1,0,0,0-.57-.83,2.17,2.17,0,0,0-1.08-.33,1.64,1.64,0,0,0-1.29.59A2.53,2.53,0,0,0,297.05,157.58Z" transform="translate(-15.41 -8.36)"/><path d="M318.11,166.49a2.46,2.46,0,0,1-1,.3.55.55,0,0,1-.41-.11l-.23-.56-.16-.55-.11-.17-.28.14a6.55,6.55,0,0,1-4.07,1.25,4.75,4.75,0,0,1-3.74-1.85,6.52,6.52,0,0,1-1.57-4.38,6.39,6.39,0,0,1,1.89-4.69A6.26,6.26,0,0,1,313,154h.72l.85.14a2,2,0,0,1,.71.19l.39.14.17,0c.09,0,.16-.14.19-.42V151.7a5.51,5.51,0,0,0-.18-1.44,2.69,2.69,0,0,0-.51-1.06l-.5-.42-.36-.44-.06-.25a3,3,0,0,1,.17-.42.91.91,0,0,1,.36-.34l.69-.3.67-.31,1.12-.53,1.64-.75.95-.3c.37,0,.55.31.55.94l0,.42-.1,1.72-.1,1.81-.1,3.54v8a7.91,7.91,0,0,0,.1,1.71c.06.21.29.32.68.32h.16l.42,0a.52.52,0,0,1,.59.59c0,.27-.21.51-.62.69l-2.11.95ZM316,156.08a4.25,4.25,0,0,0-1.89-.62,3.12,3.12,0,0,0-2.49,1.13,4.37,4.37,0,0,0-1,2.94,5.86,5.86,0,0,0,.42,2.17,5.5,5.5,0,0,0,1.38,2,3,3,0,0,0,2.06.91c.73,0,1.15-.16,1.29-.48l.19-.83v-7.18Z" transform="translate(-15.41 -8.36)"/><path d="M337.2,156.13c-.2,0-.33.17-.39.5V160a23.28,23.28,0,0,0,.1,2.42,3.63,3.63,0,0,0,.62,1.6,2.39,2.39,0,0,0,2.13.79l.81-.08.38,0c.39,0,.58.12.58.36,0,.47-.45.85-1.36,1.16a10.66,10.66,0,0,1-3.4.46c-2.11,0-3.37-.44-3.78-1.31a7.07,7.07,0,0,1-.56-2.67l.2-2.92v-3c0-.35-.23-.53-.68-.53s-.6-.15-.6-.44c0-.13.16-.35.5-.64l.78-.62,1.17-1,1.31-1.09a6.17,6.17,0,0,1,.83-.68,1.9,1.9,0,0,1,.54-.18c.29,0,.43.18.43.54v1a1.88,1.88,0,0,0,.11.74,1.33,1.33,0,0,0,.51.14h2.42c.5,0,.75.09.75.28l-.2.81-.11.58q-.07.39-.72.39H337.2Z" transform="translate(-15.41 -8.36)"/><path d="M341.83,160.49a6.21,6.21,0,0,1,2.33-5,8.76,8.76,0,0,1,5.83-2,7.1,7.1,0,0,1,5,1.76A6,6,0,0,1,356.9,160a6.11,6.11,0,0,1-2.44,4.78,8.76,8.76,0,0,1-5.83,2,7.23,7.23,0,0,1-4.92-1.63,5.5,5.5,0,0,1-1.88-4.37Zm4.49-1.34a8.25,8.25,0,0,0,1,4.19,2.87,2.87,0,0,0,2.44,1.67,2.27,2.27,0,0,0,2-1,4.61,4.61,0,0,0,.71-2.75,7.89,7.89,0,0,0-1-4.13,2.7,2.7,0,0,0-2.37-1.68,2.38,2.38,0,0,0-2,1A4.37,4.37,0,0,0,346.32,159.15Z" transform="translate(-15.41 -8.36)"/><path d="M368.81,150v-.25c0-1.39-.34-2.2-1-2.42l-.39-.11a.68.68,0,0,1-.56-.7c0-.46.24-.69.73-.69l.5,0c.39.06.85.11,1.38.14s1.12.06,1.79.06l1.81-.06,1.5-.08,3.18-.22a6.7,6.7,0,0,1,4.13,1.22,3.8,3.8,0,0,1,1.63,3.18,3.42,3.42,0,0,1-.5,1.92c-.15.22-.29.42-.42.59s-.3.39-.5.63a3.48,3.48,0,0,1-.72.7l-.48.39-.08.19a.36.36,0,0,0,.14.17l1.11.5a4,4,0,0,1,1.8,1.63,5.08,5.08,0,0,1,.85,2.88,5.43,5.43,0,0,1-1.79,4.45,9.7,9.7,0,0,1-3,1.87,9.93,9.93,0,0,1-3,.39l-1.91-.14c-1.16-.09-2-.14-2.49-.14h-.58c-.36,0-.71,0-1.06,0a9.52,9.52,0,0,1-1.06-.11l-1.72-.14h-.59l-.08.06c-.62,0-.92-.24-.92-.73q0-.49.72-.75a1.67,1.67,0,0,0,1-.93,6.43,6.43,0,0,0,.31-2.41V161Zm4.48,8.21-.08,3.8v.47c0,1.11.82,1.67,2.46,1.67a4.88,4.88,0,0,0,3.05-.93,2.9,2.9,0,0,0,1.22-2.43,3.69,3.69,0,0,0-1.68-2.93,6.08,6.08,0,0,0-3.8-1.29,1.16,1.16,0,0,0-.95.31A2.56,2.56,0,0,0,373.29,158.24Zm.17-4.81-.09.33a1,1,0,0,0,.17.62,1.35,1.35,0,0,0,.72.14,5,5,0,0,0,3.14-1,2.93,2.93,0,0,0,1.26-2.39,2.65,2.65,0,0,0-1.05-2.19,4.49,4.49,0,0,0-2.79-.82,1.34,1.34,0,0,0-1.07.34,2.08,2.08,0,0,0-.29,1.3Z" transform="translate(-15.41 -8.36)"/><path d="M391.91,158.78l-.06.78v2.57A6.33,6.33,0,0,0,392,164a1.18,1.18,0,0,0,.38.58,3.38,3.38,0,0,0,.81.34,1.24,1.24,0,0,1,.59.22.74.74,0,0,1,.08.42c0,.45-.3.67-.9.67h-2.53a1,1,0,0,0-.36-.14l-3.19.14c-.54,0-.81-.22-.81-.67a.45.45,0,0,1,.36-.5l.27-.09a1,1,0,0,0,.61-.39,2.28,2.28,0,0,0,.15-1l.09-.31V152.28l-.09-1.56a1.75,1.75,0,0,0-.15-.83,3.92,3.92,0,0,0-.71-.76l-.61-.59-.11-.36c0-.32.4-.67,1.22-1.06l1.67-.78,1.56-.76.64-.28a.93.93,0,0,1,.39-.08.6.6,0,0,1,.67.69l0,.53a8.48,8.48,0,0,0-.1,1.59v6.88c0,.39.06.58.19.58l.25-.11.41-.36,1.05-.7.5-.25.85-.31a6.21,6.21,0,0,1,1.35-.19q4.07,0,4.06,4.41v1.64l-.12,2.4V163a2.36,2.36,0,0,0,.26,1.24,1.58,1.58,0,0,0,.86.63c.41.15.62.37.64.67,0,.45-.24.67-.73.67h-.31l-2.68-.11-3.08.11h-.22c-.5,0-.75-.23-.75-.7a.58.58,0,0,1,.42-.56l.28,0a1.36,1.36,0,0,0,1-1.29l.06-2.27v-1.09a25.21,25.21,0,0,0-.15-2.6c-.1-1-.79-1.43-2.06-1.43a3.58,3.58,0,0,0-2,.75Z" transform="translate(-15.41 -8.36)"/><path d="M409.79,159.19l.36-.25c.06-.05.09-.2.09-.44q0-2.76-1.8-2.76c-.45,0-.78.4-1,1.18a1.48,1.48,0,0,1-1.53,1.19,1.24,1.24,0,0,1-.89-.34,1.15,1.15,0,0,1-.36-.89c0-.63.62-1.35,1.87-2.15a7.66,7.66,0,0,1,4.28-1.22c1.58,0,2.55.32,2.93,1a6.11,6.11,0,0,1,.69,1.55l.11,1.61v4.68c0,.82.22,1.23.64,1.23l.23-.06.22-.08.28-.09c.37,0,.55.21.55.62a1,1,0,0,1-.18.58,5.47,5.47,0,0,1-.82.82,7.32,7.32,0,0,1-1.4,1,2.79,2.79,0,0,1-1.19.25,2.66,2.66,0,0,1-.57,0,4.08,4.08,0,0,1-.51-.18,1.27,1.27,0,0,1-.78-.6l-.36-.54-.2-.17-.19.06-.59.44a5.16,5.16,0,0,1-1.33.67,4.84,4.84,0,0,1-1.67.36,3.17,3.17,0,0,1-2.18-.8,2.59,2.59,0,0,1-.89-2,3.15,3.15,0,0,1,1.07-2.27,6.93,6.93,0,0,1,3-1.6l1.47-.42Zm-2.53,3.87v.14a1.28,1.28,0,0,0,.3.89,1,1,0,0,0,.81.34,1.71,1.71,0,0,0,1.46-1,4.65,4.65,0,0,0,.6-2.5c0-.24-.09-.37-.28-.38l-.47.11-.64.19a1.9,1.9,0,0,0-.7.39A2.16,2.16,0,0,0,407.26,163.06Z" transform="translate(-15.41 -8.36)"/><path d="M423.33,160.78a21.92,21.92,0,0,0,.1,2.8,1.29,1.29,0,0,0,.58.89,2.84,2.84,0,0,0,1.27.4l.61.06c.45,0,.67.2.67.61s-.26.64-.78.64h-.42l-1.36-.1-1.62,0-3.67.14h-.14c-.65,0-1-.21-1-.64a.53.53,0,0,1,.46-.58l.33-.12c.2,0,.38-.19.55-.52a3.33,3.33,0,0,0,.16-.51,3.19,3.19,0,0,0,0-.69v-2.79c0-1.33-.21-2.18-.65-2.53l-.59-.5a1.48,1.48,0,0,1-.54-.75c0-.26.42-.61,1.25-1.06l1.69-.78.47-.19,1.13-.59.47-.18.54-.18c.27,0,.41.22.41.66V155c0,.61.11.91.33.91l.17-.08.58-.59a4.9,4.9,0,0,1,1-.92A3.59,3.59,0,0,1,426,154a2.09,2.09,0,0,1,.63-.11,2.2,2.2,0,0,1,1.46.52,1.53,1.53,0,0,1,.62,1.21,1.75,1.75,0,0,1-.3.92,2.1,2.1,0,0,1-.62.66l-.61.28-.56.09h-.47l-.5-.15-.47-.08a3.64,3.64,0,0,0-1.79.64v1.09a3.49,3.49,0,0,0-.08.58Z" transform="translate(-15.41 -8.36)"/><path d="M435.42,159.19l.36-.25c.06-.05.09-.2.09-.44q0-2.76-1.8-2.76c-.45,0-.79.4-1,1.18a1.48,1.48,0,0,1-1.53,1.19,1.24,1.24,0,0,1-.89-.34,1.15,1.15,0,0,1-.36-.89c0-.63.62-1.35,1.87-2.15a7.66,7.66,0,0,1,4.28-1.22c1.58,0,2.55.32,2.93,1A6.11,6.11,0,0,1,440,156l.11,1.61v4.68c0,.82.22,1.23.64,1.23l.23-.06.22-.08.28-.09c.37,0,.55.21.55.62a1,1,0,0,1-.18.58,5.47,5.47,0,0,1-.82.82,7.32,7.32,0,0,1-1.4,1,2.79,2.79,0,0,1-1.19.25,2.66,2.66,0,0,1-.57,0,4.08,4.08,0,0,1-.51-.18,1.27,1.27,0,0,1-.78-.6l-.37-.54-.19-.17-.19.06-.59.44a5.09,5.09,0,0,1-1.34.67,4.75,4.75,0,0,1-1.67.36,3.16,3.16,0,0,1-2.17-.8,2.59,2.59,0,0,1-.89-2,3.15,3.15,0,0,1,1.07-2.27,6.87,6.87,0,0,1,3-1.6l1.47-.42Zm-2.53,3.87v.14a1.28,1.28,0,0,0,.3.89,1,1,0,0,0,.81.34,1.71,1.71,0,0,0,1.46-1,4.65,4.65,0,0,0,.6-2.5c0-.24-.09-.37-.28-.38l-.47.11-.64.19a1.9,1.9,0,0,0-.7.39A2.16,2.16,0,0,0,432.89,163.06Z" transform="translate(-15.41 -8.36)"/><path d="M448.89,156.13c-.2,0-.33.17-.39.5V160a23.28,23.28,0,0,0,.1,2.42,3.63,3.63,0,0,0,.62,1.6,2.39,2.39,0,0,0,2.13.79l.81-.08.38,0c.39,0,.58.12.58.36,0,.47-.45.85-1.36,1.16a10.66,10.66,0,0,1-3.4.46c-2.11,0-3.37-.44-3.78-1.31a7.07,7.07,0,0,1-.56-2.67l.2-2.92v-3c0-.35-.23-.53-.68-.53s-.6-.15-.6-.44c0-.13.16-.35.5-.64l.78-.62,1.17-1,1.31-1.09a6.17,6.17,0,0,1,.83-.68,1.9,1.9,0,0,1,.54-.18c.29,0,.43.18.43.54v1a1.88,1.88,0,0,0,.11.74,1.33,1.33,0,0,0,.51.14h2.42c.5,0,.75.09.75.28l-.2.81-.11.58q-.08.39-.72.39h-2.37Z" transform="translate(-15.41 -8.36)"/><path d="M459.75,158.78l-.05.78v2.57a6.33,6.33,0,0,0,.17,1.82,1.18,1.18,0,0,0,.38.58,3.45,3.45,0,0,0,.8.34,1.3,1.3,0,0,1,.6.22.83.83,0,0,1,.08.42c0,.45-.3.67-.9.67H458.3a1,1,0,0,0-.37-.14l-3.18.14c-.54,0-.81-.22-.81-.67a.45.45,0,0,1,.35-.5l.27-.09a1,1,0,0,0,.62-.39,2.28,2.28,0,0,0,.15-1l.08-.31V152.28l-.08-1.56a1.75,1.75,0,0,0-.15-.83,4.28,4.28,0,0,0-.71-.76l-.62-.59-.11-.36c0-.32.41-.67,1.23-1.06l1.67-.78,1.56-.76.64-.28a.93.93,0,0,1,.39-.08q.66,0,.66.69l0,.53a8.26,8.26,0,0,0-.11,1.59v6.88c0,.39.07.58.2.58l.25-.11.41-.36,1.05-.7.49-.25c.22-.09.51-.19.86-.31a6.05,6.05,0,0,1,1.35-.19q4,0,4.05,4.41v1.64l-.11,2.4V163a2.37,2.37,0,0,0,.25,1.24,1.66,1.66,0,0,0,.86.63c.41.15.63.37.65.67,0,.45-.25.67-.73.67H469l-2.68-.11-3.08.11H463c-.5,0-.75-.23-.75-.7a.58.58,0,0,1,.42-.56l.27,0a1.37,1.37,0,0,0,1-1.29l.05-2.27v-1.09a25.21,25.21,0,0,0-.15-2.6c-.1-1-.78-1.43-2.06-1.43a3.63,3.63,0,0,0-2.05.75Z" transform="translate(-15.41 -8.36)"/><path d="M476,153.82a4,4,0,0,1,.78-.28c.43,0,.64.39.64,1.17V158l-.14,4.32a2.4,2.4,0,0,0,.14.89l.19.7a1.78,1.78,0,0,0,.44.55,2.28,2.28,0,0,0,.51.22l.41.14a.6.6,0,0,1,.6.64c0,.47-.26.7-.76.7h-.45l-1-.13L476,166l-.55,0a17.69,17.69,0,0,0-2.81.14h-.39c-.52,0-.78-.22-.78-.67a.74.74,0,0,1,.44-.67l.34-.11c.59-.28.89-1.08.89-2.38v-2.29a3.11,3.11,0,0,0-1.05-2.69l-.45-.22a.71.71,0,0,1-.28-.56c0-.22.15-.43.47-.62l2.46-1.31.52-.25Zm-2.81-6.6.37-.3c.12-.08.32-.2.61-.36a1.56,1.56,0,0,1,.71-.24,1.19,1.19,0,0,1,.62.23,8.24,8.24,0,0,1,1.09,1,2.28,2.28,0,0,1,.69,1.51,2.17,2.17,0,0,1-.27.88,6.68,6.68,0,0,1-.94,1.28,2,2,0,0,1-1.5.74c-.5,0-1-.36-1.63-1.09a3.43,3.43,0,0,1-.81-1.81A3.2,3.2,0,0,1,473.17,147.22Z" transform="translate(-15.41 -8.36)"/><path d="M486.86,159.19l.36-.25c.06-.05.08-.2.08-.44q0-2.76-1.8-2.76c-.44,0-.78.4-1,1.18a1.48,1.48,0,0,1-1.53,1.19,1.24,1.24,0,0,1-.89-.34,1.15,1.15,0,0,1-.36-.89c0-.63.62-1.35,1.86-2.15a7.72,7.72,0,0,1,4.29-1.22c1.58,0,2.55.32,2.92,1a5.87,5.87,0,0,1,.7,1.55l.11,1.61v4.68c0,.82.22,1.23.64,1.23l.22-.06.23-.08.28-.09c.37,0,.55.21.55.62a1,1,0,0,1-.18.58,5.47,5.47,0,0,1-.82.82,7.33,7.33,0,0,1-1.41,1,2.71,2.71,0,0,1-1.18.25,2.66,2.66,0,0,1-.57,0,4.08,4.08,0,0,1-.51-.18,1.27,1.27,0,0,1-.78-.6l-.37-.54-.19-.17-.2.06-.58.44a5.26,5.26,0,0,1-1.34.67,4.75,4.75,0,0,1-1.67.36,3.16,3.16,0,0,1-2.17-.8,2.59,2.59,0,0,1-.89-2,3.15,3.15,0,0,1,1.07-2.27,6.87,6.87,0,0,1,3-1.6l1.47-.42Zm-2.53,3.87v.14a1.28,1.28,0,0,0,.3.89,1,1,0,0,0,.81.34,1.73,1.73,0,0,0,1.46-1,4.65,4.65,0,0,0,.6-2.5c0-.24-.09-.37-.28-.38l-.47.11-.64.19a1.9,1.9,0,0,0-.7.39A2.16,2.16,0,0,0,484.33,163.06Z" transform="translate(-15.41 -8.36)"/><path d="M500.4,160.78a21.92,21.92,0,0,0,.1,2.8,1.29,1.29,0,0,0,.58.89,2.84,2.84,0,0,0,1.27.4l.61.06c.45,0,.67.2.67.61s-.26.64-.78.64h-.42l-1.36-.1-1.62,0-3.67.14h-.14c-.65,0-1-.21-1-.64a.53.53,0,0,1,.46-.58l.33-.12c.2,0,.38-.19.55-.52a3.33,3.33,0,0,0,.16-.51,3.19,3.19,0,0,0,.05-.69v-2.79c0-1.33-.21-2.18-.65-2.53l-.59-.5a1.48,1.48,0,0,1-.54-.75c0-.26.42-.61,1.25-1.06l1.69-.78.47-.19,1.13-.59.47-.18.54-.18c.27,0,.41.22.41.66V155c0,.61.11.91.33.91l.17-.08.58-.59a4.86,4.86,0,0,1,1-.92,4.19,4.19,0,0,1,.59-.25,2.09,2.09,0,0,1,.63-.11,2.2,2.2,0,0,1,1.46.52,1.53,1.53,0,0,1,.62,1.21,1.69,1.69,0,0,1-.31.92,2,2,0,0,1-.61.66l-.61.28-.56.09h-.47l-.5-.15-.47-.08a3.61,3.61,0,0,0-1.79.64v1.09a3.49,3.49,0,0,0-.08.58Z" transform="translate(-15.41 -8.36)"/><path d="M520.58,149.45v8.29a20.43,20.43,0,0,0,.1,2.49,8.47,8.47,0,0,0,.92,2.36c.55,1.08,2.07,1.61,4.58,1.61s3.87-.48,4.48-1.43a12,12,0,0,0,1.22-2.31,12.37,12.37,0,0,0,.37-1.92v-2l.16-1.76v-4.11a7.67,7.67,0,0,0-.25-2.41,1.18,1.18,0,0,0-1-.77l-.42-.08a.6.6,0,0,1-.55-.67c0-.51.27-.76.81-.76l.38,0a10.64,10.64,0,0,0,2,.13H534l1.61-.08H536c.43,0,.64.25.64.75a.65.65,0,0,1-.14.4.89.89,0,0,1-.34.27l-.51.08a1.24,1.24,0,0,0-.95.54,2,2,0,0,0-.29.88v1l-.14,6.29v.73a13.17,13.17,0,0,1-.08,1.72,6.11,6.11,0,0,1-.1,1c-.06.41-.14.93-.23,1.56a5.15,5.15,0,0,1-1.64,3.07,8.15,8.15,0,0,1-1.47,1.12,8.45,8.45,0,0,1-1.75.8,13.56,13.56,0,0,1-4.08.61,14,14,0,0,1-4-.56,8.23,8.23,0,0,1-3.08-1.63,4.64,4.64,0,0,1-1.56-2.38c-.08-.39-.14-.88-.2-1.47s-.08-1.23-.08-1.9V150a7,7,0,0,0-.14-1.93,1,1,0,0,0-.4-.43l-.52-.2-.4-.11a.65.65,0,0,1-.55-.69c0-.49.3-.73.88-.73h.42l1.62.07,1.62.07h.79a8.75,8.75,0,0,0,1.82-.14h.35c.55,0,.83.24.83.73a.66.66,0,0,1-.56.64l-.31.11a.84.84,0,0,0-.68.53A4.43,4.43,0,0,0,520.58,149.45Z" transform="translate(-15.41 -8.36)"/><path d="M542.88,162.27v1.15a1.24,1.24,0,0,0,1.1,1.34l.39.11c.38,0,.57.25.57.58,0,.49-.26.73-.78.73h-1.08l-1.05-.11h-3.39a1.06,1.06,0,0,0-.52.11h-.37c-.44,0-.66-.21-.66-.64,0-.28.18-.49.54-.62l.37-.11c.39-.11.59-.49.59-1.15v-4.47a1.71,1.71,0,0,0-.2-1l-.28-.39-.71-.59c-.39-.31-.59-.57-.59-.75a.5.5,0,0,1,.17-.34l.44-.33.6-.25,1.63-.84,1.55-.82a2.46,2.46,0,0,1,1.1-.33c.39,0,.58.24.58.71v.79a.78.78,0,0,0,.11.36,7,7,0,0,0,1.45-.93,5.29,5.29,0,0,1,3.2-.93,3.64,3.64,0,0,1,3,1.24,5.34,5.34,0,0,1,1,3.51v.34l-.14,2.88v1.29c0,.42,0,.73,0,.9a1.41,1.41,0,0,0,.23.6,1.35,1.35,0,0,0,.82.52c.41.12.63.33.65.63,0,.47-.29.7-.87.7h-2.42a1.12,1.12,0,0,0-.36-.11l-3.23.11c-.63,0-1-.23-1-.7a.59.59,0,0,1,.45-.56l.28-.11a1.15,1.15,0,0,0,.83-.81,6.64,6.64,0,0,0,.25-2.17v-2.52a8.16,8.16,0,0,0-.13-1.7,1.59,1.59,0,0,0-.71-1,2.38,2.38,0,0,0-1.39-.41,3.7,3.7,0,0,0-2.08.76Z" transform="translate(-15.41 -8.36)"/><path d="M559.15,153.82a4,4,0,0,1,.78-.28c.43,0,.64.39.64,1.17V158l-.14,4.32a2.4,2.4,0,0,0,.14.89l.19.7a1.71,1.71,0,0,0,.43.55,2.38,2.38,0,0,0,.52.22l.41.14a.6.6,0,0,1,.59.64c0,.47-.25.7-.76.7h-.44l-1-.13-1.32,0-.56,0a17.78,17.78,0,0,0-2.81.14h-.39c-.52,0-.78-.22-.78-.67a.75.75,0,0,1,.45-.67l.33-.11c.6-.28.89-1.08.89-2.38v-2.29a3.13,3.13,0,0,0-1-2.69l-.46-.22a.75.75,0,0,1-.28-.56c0-.22.16-.43.47-.62l2.46-1.31.53-.25Zm-2.82-6.6.38-.3c.12-.08.32-.2.61-.36a1.52,1.52,0,0,1,.7-.24,1.16,1.16,0,0,1,.62.23,8.14,8.14,0,0,1,1.1,1,2.28,2.28,0,0,1,.69,1.51,2.07,2.07,0,0,1-.28.88,6.27,6.27,0,0,1-.94,1.28,2,2,0,0,1-1.49.74,2.35,2.35,0,0,1-1.64-1.09,3.48,3.48,0,0,1-.8-1.81A3.17,3.17,0,0,1,556.33,147.22Z" transform="translate(-15.41 -8.36)"/><path d="M562.57,155.41a.88.88,0,0,1-.39-.56c0-.41.28-.61.84-.61h.16l3,.08,1.92-.08,1.53-.09H570c.53,0,.8.21.8.62s-.26.56-.79.68-.79.37-.79.76a3.16,3.16,0,0,0,.12.77,2.57,2.57,0,0,0,.27.68l2,4.43.17.36.19.19c.12,0,.29-.24.53-.72l.78-1.82.92-2.23a4.76,4.76,0,0,0,.25-1.15,1.46,1.46,0,0,0-.92-1.36l-.36-.14a.55.55,0,0,1-.33-.51c0-.42.29-.64.89-.64l2.2.08h1.36l.39-.08H578c.42,0,.63.2.63.61,0,.21-.24.48-.72.82a5.49,5.49,0,0,0-1.48,1.88l-1.06,2-1.4,2.94-.39.84-.64,1.38-.26.5-.39.84a.66.66,0,0,1-.61.39l-.87.11-1.19.08a.88.88,0,0,1-.6-.17,3.19,3.19,0,0,1-.51-.89L565,158.19a5.38,5.38,0,0,0-1.56-2.2l-.55-.36Z" transform="translate(-15.41 -8.36)"/><path d="M590.09,163.87l.48-.08c.44,0,.66.2.66.61s-.45.73-1.36,1.34a8.14,8.14,0,0,1-4.4.91,7,7,0,0,1-4.94-1.77,6.32,6.32,0,0,1,.31-9.37,8.14,8.14,0,0,1,5.52-1.94,6.62,6.62,0,0,1,3,.68c.88.46,1.32,1,1.32,1.55a1.32,1.32,0,0,1-.48,1,6.4,6.4,0,0,1-1.63.95L586,158.79l-1.78.75-.56.25a.63.63,0,0,0-.39.56,4.26,4.26,0,0,0,1.18,3,3.64,3.64,0,0,0,2.75,1.29,5.45,5.45,0,0,0,1-.1,3.69,3.69,0,0,0,1-.3l.61-.26Zm-7.1-6.29v.14c0,.44.07.68.2.69a2.62,2.62,0,0,0,.75-.25l1-.53,1.05-.58a1,1,0,0,0,.48-.59,1,1,0,0,0-.57-.83,2.17,2.17,0,0,0-1.08-.33,1.64,1.64,0,0,0-1.29.59A2.53,2.53,0,0,0,583,157.58Z" transform="translate(-15.41 -8.36)"/><path d="M598.34,160.78a24.12,24.12,0,0,0,.1,2.8,1.3,1.3,0,0,0,.59.89,2.76,2.76,0,0,0,1.26.4l.61.06c.45,0,.67.2.67.61s-.26.64-.78.64h-.41l-1.37-.1-1.61,0-3.68.14h-.14c-.65,0-1-.21-1-.64a.53.53,0,0,1,.46-.58l.33-.12c.2,0,.39-.19.55-.52a2.5,2.5,0,0,0,.16-.51,3.08,3.08,0,0,0,.06-.69v-2.79c0-1.33-.22-2.18-.65-2.53l-.6-.5a1.39,1.39,0,0,1-.53-.75c0-.26.41-.61,1.24-1.06l1.69-.78.47-.19,1.14-.59.47-.18.53-.18c.28,0,.41.22.41.66V155c0,.61.11.91.34.91l.16-.08.58-.59a4.9,4.9,0,0,1,1-.92A4,4,0,0,1,601,154a2.1,2.1,0,0,1,.64-.11,2.17,2.17,0,0,1,1.45.52,1.5,1.5,0,0,1,.62,1.21,1.75,1.75,0,0,1-.3.92,2.2,2.2,0,0,1-.61.66l-.62.28-.55.09h-.48l-.5-.15-.47-.08a3.58,3.58,0,0,0-1.78.64v1.09a2.84,2.84,0,0,0-.09.58Z" transform="translate(-15.41 -8.36)"/><path d="M604.64,163c0-.57.19-.86.56-.86l.16,0,.25.22.17.28a4.57,4.57,0,0,0,1.69,1.43,4.37,4.37,0,0,0,2.1.66,1.79,1.79,0,0,0,1-.27.86.86,0,0,0,.39-.76,1.29,1.29,0,0,0-.34-.81,8.09,8.09,0,0,0-1.3-.95l-1.51-.87c-2-1.21-3-2.53-3-4a3.23,3.23,0,0,1,1.28-2.62,4.63,4.63,0,0,1,1.48-.77,6,6,0,0,1,1.84-.27l1.11.09,1.28.25.25,0a2,2,0,0,0,.72-.17,1.7,1.7,0,0,1,.64-.2.48.48,0,0,1,.44.21,1.48,1.48,0,0,1,.12.71l.14,1,.17,1.07.11.59c0,.34-.2.5-.59.5a.81.81,0,0,1-.61-.31L613,157l-.67-.57-1-.73a3.1,3.1,0,0,0-1.56-.36c-.66,0-1,.24-1,.72a.81.81,0,0,0,.14.39l.34.39c.13.13.91.66,2.36,1.59l1,.67a7.28,7.28,0,0,1,2,1.85,3.4,3.4,0,0,1,.6,2,3.19,3.19,0,0,1-1.51,2.76,7.2,7.2,0,0,1-4.14,1l-.94,0c-.32,0-.75-.07-1.29-.14a10.41,10.41,0,0,1-1.5-.32,1.23,1.23,0,0,1-.89-.8l-.25-.94-.06-.84V163Z" transform="translate(-15.41 -8.36)"/><path d="M621.09,153.82a4,4,0,0,1,.78-.28c.43,0,.64.39.64,1.17V158l-.14,4.32a2.4,2.4,0,0,0,.14.89l.19.7a1.78,1.78,0,0,0,.44.55,2.09,2.09,0,0,0,.51.22l.41.14a.6.6,0,0,1,.6.64c0,.47-.26.7-.76.7h-.45l-1-.13-1.32,0-.55,0a17.93,17.93,0,0,0-2.82.14h-.39c-.52,0-.77-.22-.77-.67a.74.74,0,0,1,.44-.67l.33-.11c.6-.28.89-1.08.89-2.38v-2.29a3.1,3.1,0,0,0-1-2.69l-.45-.22a.76.76,0,0,1-.29-.56c0-.22.16-.43.47-.62l2.47-1.31.52-.25Zm-2.81-6.6c.12-.11.25-.21.37-.3s.32-.2.61-.36a1.52,1.52,0,0,1,.7-.24,1.19,1.19,0,0,1,.63.23,8.24,8.24,0,0,1,1.09,1,2.28,2.28,0,0,1,.69,1.51,2.17,2.17,0,0,1-.27.88,6.38,6.38,0,0,1-1,1.28,2,2,0,0,1-1.49.74c-.5,0-1-.36-1.63-1.09a3.43,3.43,0,0,1-.81-1.81A3.2,3.2,0,0,1,618.28,147.22Z" transform="translate(-15.41 -8.36)"/><path d="M631.13,156.13c-.2,0-.33.17-.39.5V160a20.75,20.75,0,0,0,.1,2.42,3.63,3.63,0,0,0,.62,1.6,2.39,2.39,0,0,0,2.13.79l.8-.08.39,0c.39,0,.58.12.58.36,0,.47-.45.85-1.36,1.16a10.66,10.66,0,0,1-3.4.46c-2.11,0-3.38-.44-3.79-1.31a7.05,7.05,0,0,1-.55-2.67l.19-2.92v-3c0-.35-.22-.53-.68-.53s-.6-.15-.6-.44c0-.13.17-.35.51-.64l.77-.62,1.17-1,1.32-1.09a6.17,6.17,0,0,1,.83-.68,1.9,1.9,0,0,1,.54-.18c.29,0,.43.18.43.54v1a1.88,1.88,0,0,0,.11.74,1.26,1.26,0,0,0,.5.14h2.42c.51,0,.76.09.76.28l-.2.81-.11.58q-.09.39-.72.39h-2.37Z" transform="translate(-15.41 -8.36)"/><path d="M649.56,154h.17c.59,0,.89.2.89.59s-.17.46-.5.61l-.31.09a1.65,1.65,0,0,0-.94.75l-.59.92-.67,1.44-.72,1.45L645,163.65,643.24,167l-1.39,2.48a12.3,12.3,0,0,1-1.2,1.87c-.33.4-.62.61-.86.61a2.67,2.67,0,0,1-.75-.17l-1.11-.42c-.41-.16-.63-.34-.64-.53s.19-.4.59-.65a8,8,0,0,0,1.38-1.17,11.27,11.27,0,0,0,1.24-1.47,2.18,2.18,0,0,0,.46-1.05,1.9,1.9,0,0,0-.14-.64l-.19-.64-.09-.3-3-7.66-.25-.7a2.07,2.07,0,0,0-1.12-1.25q-.69-.25-.72-.69c0-.43.27-.65.81-.65h.11l3.26.2,2.64-.2h.11c.65,0,1,.21,1,.62,0,.26-.17.46-.51.61l-.27.08a.74.74,0,0,0-.62.76,5.86,5.86,0,0,0,.19,1.16l.51,1.7.7,2,.25.67a.55.55,0,0,0,.28.14c.16,0,.35-.25.57-.76l.63-1.36.42-1,.6-1.44a5.12,5.12,0,0,0,.2-.84,1,1,0,0,0-.17-.58,1.21,1.21,0,0,0-.53-.42l-.36-.14a.71.71,0,0,1-.45-.58.51.51,0,0,1,.27-.49,1.92,1.92,0,0,1,.9-.16h.17l1.95.09Z" transform="translate(-15.41 -8.36)"/><path d="M649.44,164a2.27,2.27,0,0,1,.76-1.66,2.2,2.2,0,0,1,1.46-.74,1.83,1.83,0,0,1,1.59,1,4.74,4.74,0,0,1,.61,2.53,7.86,7.86,0,0,1-.33,2.25,7.21,7.21,0,0,1-.93,2,5.24,5.24,0,0,1-1.12,1.27,1.64,1.64,0,0,1-1,.39.75.75,0,0,1-.45-.12.53.53,0,0,1-.19-.41,1.74,1.74,0,0,1,.39-.89l.3-.34a3,3,0,0,0,.7-1.78,2.93,2.93,0,0,0-.84-1.74l-.41-.44A2,2,0,0,1,649.44,164Z" transform="translate(-15.41 -8.36)"/><path d="M683.43,149.34l0,.44c0,.65-.26,1-.77,1a.92.92,0,0,1-.48-.14,5.27,5.27,0,0,1-.58-1,4.42,4.42,0,0,0-2-1.63,7.57,7.57,0,0,0-3.47-.8,6,6,0,0,0-4.87,2.28,9.25,9.25,0,0,0-1.89,6.08,8,8,0,0,0,2.49,6.22,9.7,9.7,0,0,0,6.81,2.28l1.56-.08a4.16,4.16,0,0,0,.55,0c.23,0,.48-.08.78-.15l1.34-.34.89-.19q.69,0,.69.72c0,.48-.82,1.07-2.47,1.77a15.1,15.1,0,0,1-5.85,1,13.66,13.66,0,0,1-6.33-1.33,9.94,9.94,0,0,1-4.05-3.82,11,11,0,0,1,1.79-13.35,11.62,11.62,0,0,1,8.31-3.1,16.5,16.5,0,0,1,3.32.31l1.47.22a1.53,1.53,0,0,0,1-.33l.5-.45a.55.55,0,0,1,.31-.08c.59,0,.89.33.89,1l-.08,1.82Z" transform="translate(-15.41 -8.36)"/><path d="M685.84,160.49a6.23,6.23,0,0,1,2.32-5,8.78,8.78,0,0,1,5.84-2,7.07,7.07,0,0,1,5,1.76A6,6,0,0,1,700.9,160a6.1,6.1,0,0,1-2.43,4.78,8.77,8.77,0,0,1-5.84,2,7.2,7.2,0,0,1-4.91-1.63,5.5,5.5,0,0,1-1.88-4.37Zm4.48-1.34a8.15,8.15,0,0,0,1,4.19,2.86,2.86,0,0,0,2.44,1.67,2.28,2.28,0,0,0,2-1,4.68,4.68,0,0,0,.71-2.75,7.89,7.89,0,0,0-1-4.13,2.7,2.7,0,0,0-2.36-1.68,2.39,2.39,0,0,0-2,1A4.37,4.37,0,0,0,690.32,159.15Z" transform="translate(-15.41 -8.36)"/><path d="M706.94,153.82a4,4,0,0,1,.78-.28c.43,0,.64.39.64,1.17V158l-.14,4.32a2.4,2.4,0,0,0,.14.89l.19.7a1.78,1.78,0,0,0,.44.55,2.28,2.28,0,0,0,.51.22l.41.14a.6.6,0,0,1,.6.64c0,.47-.26.7-.76.7h-.45l-1-.13-1.32,0-.55,0a17.69,17.69,0,0,0-2.81.14h-.39c-.52,0-.78-.22-.78-.67a.74.74,0,0,1,.44-.67l.34-.11c.59-.28.89-1.08.89-2.38v-2.29a3.11,3.11,0,0,0-1.05-2.69l-.45-.22a.71.71,0,0,1-.28-.56c0-.22.15-.43.47-.62l2.46-1.31.52-.25Zm-2.81-6.6.37-.3c.12-.08.32-.2.61-.36a1.56,1.56,0,0,1,.71-.24,1.19,1.19,0,0,1,.62.23,8.24,8.24,0,0,1,1.09,1,2.28,2.28,0,0,1,.69,1.51,2.17,2.17,0,0,1-.27.88,6.68,6.68,0,0,1-.94,1.28,2,2,0,0,1-1.5.74c-.5,0-1-.36-1.63-1.09a3.43,3.43,0,0,1-.81-1.81A3.2,3.2,0,0,1,704.13,147.22Z" transform="translate(-15.41 -8.36)"/><path d="M726.12,159v3.36a7.44,7.44,0,0,0,.1,1.67,1.07,1.07,0,0,0,.33.46l.33.25.41.17a.68.68,0,0,1,.55.62c0,.45-.27.67-.8.67h-2.43a1.14,1.14,0,0,0-.39-.14l-3.2.14h-.11c-.67,0-1-.22-1-.67a.56.56,0,0,1,.15-.35.76.76,0,0,1,.43-.24l.28,0a1,1,0,0,0,.82-.69,6.59,6.59,0,0,0,.24-2.16V159.9a9.07,9.07,0,0,0-.18-2.19,2.06,2.06,0,0,0-.79-1.08,2.11,2.11,0,0,0-1.24-.44,4.11,4.11,0,0,0-2.19.78v5.43a5.08,5.08,0,0,0,.2,1.68,1.12,1.12,0,0,0,.72.67l.4.14a.63.63,0,0,1,.46.56.65.65,0,0,1-.74.73h-.3a18.72,18.72,0,0,0-2.59-.14l-1.63.07-1.26.07h-.22c-.48,0-.72-.21-.72-.62a.54.54,0,0,1,.4-.56l.3-.08q.69-.22.69-1.32v-4.5a2.38,2.38,0,0,0-.1-.85,1.56,1.56,0,0,0-.53-.58l-.54-.45c-.41-.34-.61-.61-.61-.81s.16-.29.47-.48l.48-.28.69-.37,2.82-1.35a7.22,7.22,0,0,1,1-.36c.41,0,.62.24.62.71v.39l-.06.29,0,.31.11.11.28-.08.44-.28a5.24,5.24,0,0,1,.92-.53,6.5,6.5,0,0,1,3.06-.78,4.46,4.46,0,0,1,2,.46,2.4,2.4,0,0,1,1.14.93l.22.53.08.06a.81.81,0,0,0,.28-.23l.61-.4,1.7-.89a6.17,6.17,0,0,1,2.84-.6,3.36,3.36,0,0,1,2.12.64,2.52,2.52,0,0,1,1,1.49,16.9,16.9,0,0,1,.21,3.28v3.92a3.2,3.2,0,0,0,.06.65,2,2,0,0,0,.23.61,1.37,1.37,0,0,0,.42.51l.72.28a.51.51,0,0,1,.49.56c0,.45-.24.67-.72.67H733.6l-2-.14-2,.14h-.36c-.5,0-.75-.22-.75-.67a.46.46,0,0,1,.13-.37,2.41,2.41,0,0,1,.73-.25,1.11,1.11,0,0,0,.77-.38,1.68,1.68,0,0,0,.23-1v-4.09l-.17-1.37a2,2,0,0,0-2.14-1.74,4.93,4.93,0,0,0-2,.61Z" transform="translate(-15.41 -8.36)"/><path d="M738.66,154.36v-1.6a14.4,14.4,0,0,0-.11-2v-.53l-.12-.48a2.07,2.07,0,0,0-.46-.7l-.34-.36-.41-.31a.54.54,0,0,1-.17-.39c0-.28.2-.55.61-.79l.53-.25,3.45-1.6.36-.14.25-.08h.23c.4,0,.61.29.61.86l0,.2-.11,1.28-.06,1.69v.14l.06,5v.89c0,.16.09.26.28.27l.22-.05,1.11-.67a5.6,5.6,0,0,1,2.84-.58,4.72,4.72,0,0,1,3.59,1.5,5.43,5.43,0,0,1,1.42,3.88,6.84,6.84,0,0,1-2,5.19,7.46,7.46,0,0,1-5.4,2l-1.61-.08-.84-.12q-.56-.09-1.08-.21l-.81-.12-.42,0h-.61l-.53,0c-.54,0-.81-.18-.81-.53l.06-.5.22-1.45.11-1.58v-7.76Zm4.29,2.91v3.93a9.22,9.22,0,0,0,.07,1.4,6.42,6.42,0,0,0,.15.69,5.21,5.21,0,0,0,.34.69,1.58,1.58,0,0,0,1.51.75,2.42,2.42,0,0,0,2-1.17,4.77,4.77,0,0,0,.84-2.86,4.94,4.94,0,0,0-.89-3,2.67,2.67,0,0,0-2.24-1.23A2.86,2.86,0,0,0,743,157.27Z" transform="translate(-15.41 -8.36)"/><path d="M760.13,159.19l.36-.25c.06-.05.09-.2.09-.44q0-2.76-1.8-2.76c-.45,0-.78.4-1,1.18a1.49,1.49,0,0,1-1.54,1.19,1.24,1.24,0,0,1-.89-.34,1.15,1.15,0,0,1-.36-.89c0-.63.62-1.35,1.87-2.15a7.66,7.66,0,0,1,4.28-1.22c1.58,0,2.56.32,2.93,1a6.11,6.11,0,0,1,.69,1.55l.11,1.61v4.68c0,.82.22,1.23.65,1.23l.22-.06.22-.08.28-.09c.37,0,.56.21.56.62a1,1,0,0,1-.18.58,6.29,6.29,0,0,1-.83.82,7.32,7.32,0,0,1-1.4,1,2.76,2.76,0,0,1-1.19.25,2.66,2.66,0,0,1-.57,0,4.08,4.08,0,0,1-.51-.18,1.27,1.27,0,0,1-.78-.6l-.36-.54-.2-.17-.19.06-.59.44a5.16,5.16,0,0,1-1.33.67,4.79,4.79,0,0,1-1.67.36,3.13,3.13,0,0,1-2.17-.8,2.56,2.56,0,0,1-.9-2,3.15,3.15,0,0,1,1.07-2.27,6.93,6.93,0,0,1,3-1.6l1.47-.42Zm-2.53,3.87v.14a1.24,1.24,0,0,0,.31.89,1,1,0,0,0,.8.34,1.71,1.71,0,0,0,1.46-1,4.65,4.65,0,0,0,.6-2.5c0-.24-.09-.37-.28-.38l-.47.11-.64.19a1.9,1.9,0,0,0-.7.39A2.16,2.16,0,0,0,757.6,163.06Z" transform="translate(-15.41 -8.36)"/><path d="M773.61,156.13c-.21,0-.34.17-.39.5V160a23.9,23.9,0,0,0,.09,2.42,3.77,3.77,0,0,0,.63,1.6,2.39,2.39,0,0,0,2.13.79l.8-.08.39,0c.38,0,.58.12.58.36,0,.47-.46.85-1.37,1.16a10.64,10.64,0,0,1-3.39.46c-2.12,0-3.38-.44-3.79-1.31a7.07,7.07,0,0,1-.56-2.67l.2-2.92v-3c0-.35-.23-.53-.68-.53s-.6-.15-.6-.44c0-.13.17-.35.51-.64l.77-.62,1.17-1,1.32-1.09a6.31,6.31,0,0,1,.82-.68,2.09,2.09,0,0,1,.55-.18c.28,0,.43.18.43.54v1a1.71,1.71,0,0,0,.11.74,1.21,1.21,0,0,0,.5.14h2.42c.5,0,.75.09.75.28l-.19.81-.11.58c-.06.26-.3.39-.73.39h-2.36Z" transform="translate(-15.41 -8.36)"/><path d="M778.24,160.49a6.2,6.2,0,0,1,2.32-5,8.77,8.77,0,0,1,5.83-2,7.1,7.1,0,0,1,5,1.76A6,6,0,0,1,793.3,160a6.08,6.08,0,0,1-2.44,4.78,8.74,8.74,0,0,1-5.83,2,7.2,7.2,0,0,1-4.91-1.63,5.47,5.47,0,0,1-1.88-4.37Zm4.48-1.34a8.15,8.15,0,0,0,1,4.19,2.85,2.85,0,0,0,2.43,1.67,2.3,2.3,0,0,0,2-1,4.68,4.68,0,0,0,.71-2.75,7.89,7.89,0,0,0-1-4.13,2.7,2.7,0,0,0-2.36-1.68,2.39,2.39,0,0,0-2,1A4.37,4.37,0,0,0,782.72,159.15Z" transform="translate(-15.41 -8.36)"/><path d="M800.62,160.78a21.92,21.92,0,0,0,.1,2.8,1.29,1.29,0,0,0,.58.89,2.84,2.84,0,0,0,1.27.4l.61.06c.44,0,.67.2.67.61s-.26.64-.78.64h-.42l-1.36-.1-1.62,0-3.67.14h-.14c-.65,0-1-.21-1-.64a.54.54,0,0,1,.47-.58l.33-.12c.2,0,.38-.19.54-.52a2.54,2.54,0,0,0,.17-.51,4,4,0,0,0,.05-.69v-2.79c0-1.33-.21-2.18-.65-2.53l-.59-.5a1.48,1.48,0,0,1-.54-.75c0-.26.42-.61,1.25-1.06l1.69-.78.47-.19,1.13-.59.47-.18.53-.18q.42,0,.42.66V155c0,.61.11.91.33.91l.17-.08.58-.59a3.09,3.09,0,0,1,1.6-1.17,2.18,2.18,0,0,1,2.1.41,1.53,1.53,0,0,1,.62,1.21,1.69,1.69,0,0,1-.31.92,2.08,2.08,0,0,1-.61.66l-.61.28-.56.09h-.47l-.5-.15-.48-.08a3.61,3.61,0,0,0-1.78.64v1.09a3.49,3.49,0,0,0-.08.58Z" transform="translate(-15.41 -8.36)"/><path d="M818.09,163.87l.48-.08c.44,0,.66.2.66.61s-.45.73-1.36,1.34a8.14,8.14,0,0,1-4.4.91,7,7,0,0,1-4.94-1.77,6.32,6.32,0,0,1,.31-9.37,8.14,8.14,0,0,1,5.52-1.94,6.62,6.62,0,0,1,3,.68c.88.46,1.32,1,1.32,1.55a1.32,1.32,0,0,1-.48,1,6.4,6.4,0,0,1-1.63.95L814,158.79l-1.78.75-.56.25a.63.63,0,0,0-.39.56,4.26,4.26,0,0,0,1.18,3,3.63,3.63,0,0,0,2.74,1.29,5.47,5.47,0,0,0,1-.1,3.69,3.69,0,0,0,1-.3l.61-.26Zm-7.1-6.29v.14c0,.44.07.68.2.69a2.62,2.62,0,0,0,.75-.25l1-.53,1.06-.58a1,1,0,0,0,.48-.59,1,1,0,0,0-.58-.83,2.13,2.13,0,0,0-1.07-.33,1.64,1.64,0,0,0-1.29.59A2.53,2.53,0,0,0,811,157.58Z" transform="translate(-15.41 -8.36)"/></svg>