<?xml version="1.0" encoding="iso-8859-1"?>
<!-- Generator: Adobe Illustrator 19.0.0, SVG Export Plug-In . SVG Version: 6.00 Build 0)  -->
<svg version="1.1" id="Capa_1" xmlns="http://www.w3.org/2000/svg" xmlns:xlink="http://www.w3.org/1999/xlink" x="0px" y="0px"
	 viewBox="0 0 512 512" style="enable-background:new 0 0 512 512;" xml:space="preserve">
<polygon style="fill:#6A80FF;" points="414,186 502,98 414,10 "/>
<polygon style="fill:#72D8FF;" points="98,396 10,308 98,220 "/>
<path style="fill:#6A80FF;" d="M306,502V206c0-30.928,25.072-56,56-56h59V46h-59c-88.366,0-160,71.634-160,160v296"/>
<path style="fill:#72D8FF;" d="M202,502v-86c0-30.928-25.072-56-56-56H92V256h54c88.366,0,160,71.634,160,160v86H202z"/>
<path d="M283.459,76.579c1.66,0,3.344-0.415,4.894-1.286l0.492-0.277c4.813-2.708,6.521-8.805,3.813-13.619
	c-2.708-4.813-8.805-6.521-13.619-3.813l-0.492,0.277c-4.813,2.708-6.521,8.805-3.813,13.619
	C276.569,74.743,279.962,76.579,283.459,76.579z"/>
<path d="M509.071,90.929l-88-88c-2.86-2.86-7.162-3.715-10.898-2.167C406.437,2.309,404,5.956,404,10v26h-42
	c-15.438,0-30.742,2.071-45.486,6.156c-5.322,1.475-8.441,6.985-6.967,12.307c1.475,5.322,6.983,8.439,12.307,6.967
	C334.859,57.827,348.367,56,362,56h52c5.523,0,10-4.477,10-10V34.142L487.858,98L424,161.858V150c0-5.523-4.477-10-10-10h-52
	c-36.393,0-66,29.607-66,66v130.072c-18.318-34.239-48.009-61.516-84-76.736V206c0-41.437,16.526-80.007,46.534-108.604
	c3.998-3.81,4.15-10.14,0.34-14.138c-3.811-3.998-10.141-4.151-14.138-0.34C210.729,115.327,192,159.038,192,206v46.328
	c-14.636-4.119-30.065-6.328-46-6.328h-38v-26c0-4.044-2.437-7.691-6.173-9.239s-8.039-0.691-10.898,2.167l-88,88
	c-3.905,3.905-3.905,10.237,0,14.143l88,88c2.86,2.859,7.161,3.716,10.898,2.167c3.737-1.548,6.173-5.194,6.173-9.239v-26h38
	c25.364,0,46,20.636,46,46v86c0,5.523,4.477,10,10,10h104c5.523,0,10-4.477,10-10V206c0-25.364,20.636-46,46-46h42v26
	c0,4.044,2.437,7.691,6.173,9.239s8.038,0.693,10.898-2.167l88-88C512.976,101.166,512.976,94.834,509.071,90.929z M296,492h-28
	v-66.922c0-5.523-4.477-10-10-10c-5.523,0-10,4.477-10,10V492h-36v-76c0-36.393-29.607-66-66-66H98c-5.523,0-10,4.477-10,10v11.858
	L24.142,308L88,244.142V256c0,5.523,4.477,10,10,10h48c82.71,0,150,67.29,150,150V492z"/>
<path d="M248,386.47c0,2.63,1.07,5.21,2.93,7.07c1.86,1.86,4.44,2.93,7.07,2.93s5.21-1.07,7.07-2.93c1.86-1.86,2.93-4.44,2.93-7.07
	c0-2.64-1.07-5.21-2.93-7.07c-1.86-1.87-4.44-2.93-7.07-2.93s-5.21,1.06-7.07,2.93C249.07,381.26,248,383.83,248,386.47z"/>
<g>
</g>
<g>
</g>
<g>
</g>
<g>
</g>
<g>
</g>
<g>
</g>
<g>
</g>
<g>
</g>
<g>
</g>
<g>
</g>
<g>
</g>
<g>
</g>
<g>
</g>
<g>
</g>
<g>
</g>
</svg>
